<?xml version="1.0" encoding="UTF-8" standalone="no"?>
<svg width="46px" height="46px" viewBox="0 0 46 46" version="1.1" xmlns="http://www.w3.org/2000/svg" xmlns:xlink="http://www.w3.org/1999/xlink">
    <!-- Generator: Sketch 39.1 (31720) - http://www.bohemiancoding.com/sketch -->
    <title>contact-email</title>
    <desc>Created with Sketch.</desc>
    <defs>
        <circle id="path-1" cx="20" cy="20" r="20"></circle>
        <filter x="-50%" y="-50%" width="200%" height="200%" filterUnits="objectBoundingBox" id="filter-2">
            <feOffset dx="0" dy="1" in="SourceAlpha" result="shadowOffsetOuter1"></feOffset>
            <feGaussianBlur stdDeviation="1.5" in="shadowOffsetOuter1" result="shadowBlurOuter1"></feGaussianBlur>
            <feColorMatrix values="0 0 0 0 0   0 0 0 0 0   0 0 0 0 0  0 0 0 0.279495018 0" type="matrix" in="shadowBlurOuter1"></feColorMatrix>
        </filter>
    </defs>
    <g id="Page-1" stroke="none" stroke-width="1" fill="none" fill-rule="evenodd">
        <g id="Desktop-HD-Copy-5" transform="translate(-663.000000, -874.000000)">
            <g id="contact-email" transform="translate(666.000000, 876.000000)">
                <g id="Oval-4">
                    <use fill="black" fill-opacity="1" filter="url(#filter-2)" xlink:href="#path-1"></use>
                    <use fill="#EEEEEF" fill-rule="evenodd" xlink:href="#path-1"></use>
                </g>
                <path d="M26.5,14 L14.5,14 C13.675,14 13.0075,14.675 13.0075,15.5 L13,24.5 C13,25.3250004 13.675,26 14.5,26 L26.5,26 C27.325,26 28,25.3250004 28,24.5 L28,15.5 C28,14.675 27.325,14 26.5,14 L26.5,14 Z M26.5,24.5 L14.5,24.5 L14.5,17 L20.5,20.75 L26.5,17 L26.5,24.5 L26.5,24.5 Z M20.5,19.25 L14.5,15.5 L26.5,15.5 L20.5,19.25 L20.5,19.25 Z" fill="#4A4F4C"></path>
            </g>
        </g>
    </g>
</svg>