<?xml version="1.0" encoding="UTF-8" standalone="no"?>
<svg width="46px" height="46px" viewBox="0 0 46 46" version="1.1" xmlns="http://www.w3.org/2000/svg" xmlns:xlink="http://www.w3.org/1999/xlink">
    <!-- Generator: Sketch 39.1 (31720) - http://www.bohemiancoding.com/sketch -->
    <title>contact-twitter</title>
    <desc>Created with Sketch.</desc>
    <defs>
        <circle id="path-1" cx="20" cy="20" r="20"></circle>
        <filter x="-50%" y="-50%" width="200%" height="200%" filterUnits="objectBoundingBox" id="filter-2">
            <feOffset dx="0" dy="1" in="SourceAlpha" result="shadowOffsetOuter1"></feOffset>
            <feGaussianBlur stdDeviation="1.5" in="shadowOffsetOuter1" result="shadowBlurOuter1"></feGaussianBlur>
            <feColorMatrix values="0 0 0 0 0   0 0 0 0 0   0 0 0 0 0  0 0 0 0.279495018 0" type="matrix" in="shadowBlurOuter1"></feColorMatrix>
        </filter>
    </defs>
    <g id="Page-1" stroke="none" stroke-width="1" fill="none" fill-rule="evenodd">
        <g id="Desktop-HD-Copy-5" transform="translate(-764.000000, -874.000000)">
            <g id="contact-twitter" transform="translate(766.812500, 876.000000)">
                <g id="Oval-4">
                    <use fill="black" fill-opacity="1" filter="url(#filter-2)" xlink:href="#path-1"></use>
                    <use fill="#EEEEEF" fill-rule="evenodd" xlink:href="#path-1"></use>
                </g>
                <path d="M27.9941511,15.5380106 C27.4035097,15.8011716 26.7719303,15.9766084 26.1111094,16.0526302 C26.7894751,15.6491221 27.309943,15.0058461 27.5555533,14.2397679 C26.9181315,14.6140346 26.2163727,14.8888863 25.4678393,15.0350875 C24.8713437,14.3976598 24.0175413,14 23.0760263,14 C21.2631582,14 19.7953211,15.467837 19.7953211,17.2806993 C19.7953211,17.538012 19.8245626,17.7894765 19.8830395,18.0292385 C17.1520466,17.8888914 14.7368422,16.5847946 13.1169592,14.602338 C12.8362569,15.0877221 12.6725143,15.6491221 12.6725143,16.2514601 C12.6725143,17.3918108 13.2514621,18.3918145 14.134503,18.9824559 C13.5964909,18.9649111 13.0935672,18.8187157 12.6491229,18.5730996 L12.6491229,18.6140375 C12.6491229,20.2046768 13.7777777,21.5263161 15.2807015,21.8304092 C15.005848,21.9064328 14.7134503,21.9473685 14.4152048,21.9473685 C14.2046783,21.9473685 14.0000001,21.9239771 13.7953214,21.8888891 C14.210526,23.192983 15.4269004,24.140351 16.8596494,24.1695906 C15.7368418,25.0467839 14.3216376,25.5730995 12.7836258,25.5730995 C12.5204678,25.5730995 12.2573099,25.5555558 12,25.5263161 C13.4502926,26.4561404 15.1754388,27 17.0292397,27 C23.0643297,27 26.3625739,21.9999995 26.3625739,17.6666684 C26.3625739,17.5263155 26.3567256,17.3801143 26.3508773,17.2397672 C27.0000016,16.771928 27.5555533,16.1929831 27.9941511,15.5380106 L27.9941511,15.5380106 Z" id="Fill-1" fill="#4A4F4C"></path>
            </g>
        </g>
    </g>
</svg>