<?xml version="1.0" encoding="UTF-8" standalone="no"?>
<svg width="46px" height="46px" viewBox="0 0 46 46" version="1.1" xmlns="http://www.w3.org/2000/svg" xmlns:xlink="http://www.w3.org/1999/xlink">
    <!-- Generator: Sketch 39.1 (31720) - http://www.bohemiancoding.com/sketch -->
    <title>contact-linkedin</title>
    <desc>Created with Sketch.</desc>
    <defs>
        <circle id="path-1" cx="20" cy="20" r="20"></circle>
        <filter x="-50%" y="-50%" width="200%" height="200%" filterUnits="objectBoundingBox" id="filter-2">
            <feOffset dx="0" dy="1" in="SourceAlpha" result="shadowOffsetOuter1"></feOffset>
            <feGaussianBlur stdDeviation="1.5" in="shadowOffsetOuter1" result="shadowBlurOuter1"></feGaussianBlur>
            <feColorMatrix values="0 0 0 0 0   0 0 0 0 0   0 0 0 0 0  0 0 0 0.279495018 0" type="matrix" in="shadowBlurOuter1"></feColorMatrix>
        </filter>
    </defs>
    <g id="Page-1" stroke="none" stroke-width="1" fill="none" fill-rule="evenodd">
        <g id="Desktop-HD-Copy-5" transform="translate(-713.000000, -874.000000)">
            <g id="contact-linkedin" transform="translate(715.812500, 876.000000)">
                <g id="Oval-4">
                    <use fill="black" fill-opacity="1" filter="url(#filter-2)" xlink:href="#path-1"></use>
                    <use fill="#EEEEEF" fill-rule="evenodd" xlink:href="#path-1"></use>
                </g>
                <g id="Group-2" transform="translate(10.000000, 10.000000)" fill="#4A4F4C">
                    <path d="M2.91891892,7.2972973 L5.78378378,7.2972973 L5.78378378,16.5945951 L2.91891892,16.5945951 L2.91891892,7.2972973 L2.91891892,7.2972973 Z M4.37837838,2.7027027 C5.2972973,2.7027027 6.05405405,3.45945946 6.05405405,4.37837838 C6.05405405,5.2972973 5.2972973,6.05405405 4.37837838,6.05405405 C3.45945946,6.05405405 2.7027027,5.2972973 2.7027027,4.37837838 C2.7027027,3.45945946 3.45945946,2.7027027 4.37837838,2.7027027 L4.37837838,2.7027027 Z" id="Fill-9"></path>
                    <path d="M7.62162162,7.2972973 L10.3783784,7.2972973 L10.3783784,8.54054054 L10.4324324,8.54054054 C10.8108108,7.78378378 11.7837838,7.02702703 13.1891892,7.02702703 C16.1081081,7.02702703 16.6486486,8.97297297 16.6486486,11.4594595 L16.6486486,16.5405405 L13.7837838,16.5405405 L13.7837838,12 C13.7837838,10.9189189 13.7837838,9.51351351 12.2702703,9.51351351 C10.7567568,9.51351351 10.5405405,10.7027027 10.5405405,11.8918919 L10.5405405,16.4864865 L7.67567568,16.4864865 L7.67567568,7.2972973 L7.62162162,7.2972973 Z" id="Fill-10"></path>
                </g>
            </g>
        </g>
    </g>
</svg>