<?xml version="1.0" encoding="UTF-8" standalone="no"?>
<svg width="30px" height="30px" viewBox="0 0 30 30" version="1.1" xmlns="http://www.w3.org/2000/svg" xmlns:xlink="http://www.w3.org/1999/xlink">
    <!-- Generator: Sketch 3.8.3 (29802) - http://www.bohemiancoding.com/sketch -->
    <title>logo-linkedin</title>
    <desc>Created with Sketch.</desc>
    <defs></defs>
    <g id="Page-1" stroke="none" stroke-width="1" fill="none" fill-rule="evenodd">
        <path d="M25.5648768,25.5640434 L21.1155865,25.5640434 L21.1155865,18.60135 C21.1155865,16.9413039 21.0872524,14.8054113 18.8038557,14.8054113 C16.487958,14.8054113 16.1346149,16.6146282 16.1346149,18.4830134 L16.1346149,25.5640434 L11.6903247,25.5640434 L11.6903247,11.2469791 L15.9554432,11.2469791 L15.9554432,13.2045335 L16.0171116,13.2045335 C16.6104614,12.0786689 18.0621684,10.8919692 20.2263952,10.8919692 C24.7323537,10.8919692 25.5648768,13.8562182 25.5648768,17.7121587 L25.5648768,25.5640434 L25.5648768,25.5640434 Z M6.67351871,9.29109142 C5.24431234,9.29109142 4.09178033,8.13522598 4.09178033,6.71018639 C4.09178033,5.28598017 5.24431234,4.13011473 6.67351871,4.13011473 C8.09689158,4.13011473 9.25192366,5.28598017 9.25192366,6.71018639 C9.25192366,8.13522598 8.09689158,9.29109142 6.67351871,9.29109142 L6.67351871,9.29109142 Z M4.44512348,25.5640434 L8.89941387,25.5640434 L8.89941387,11.2469791 L4.44512348,11.2469791 L4.44512348,25.5640434 Z M27.7807717,0 L2.21256146,0 C0.991694214,0 0,0.968360232 0,2.16339343 L0,27.8357732 C0,29.0308064 0.991694214,30.0008334 2.21256146,30.0008334 L27.7807717,30.0008334 C29.004139,30.0008334 30,29.0308064 30,27.8357732 L30,2.16339343 C30,0.968360232 29.004139,0 27.7807717,0 L27.7807717,0 Z" id="logo-linkedin" fill="#4A4F4C"></path>
    </g>
</svg>