<?xml version="1.0" encoding="UTF-8" standalone="no"?>
<svg width="75px" height="29px" viewBox="0 0 75 29" version="1.1" xmlns="http://www.w3.org/2000/svg" xmlns:xlink="http://www.w3.org/1999/xlink">
    <!-- Generator: Sketch 39.1 (31720) - http://www.bohemiancoding.com/sketch -->
    <title>logo-plan</title>
    <desc>Created with Sketch.</desc>
    <defs></defs>
    <g id="Page-1" stroke="none" stroke-width="1" fill="none" fill-rule="evenodd">
        <g id="Desktop-HD" transform="translate(-115.000000, -603.000000)">
            <g id="Logos" transform="translate(0.000000, 574.000000)">
                <g id="logos" transform="translate(115.000000, 24.000000)">
                    <g id="logo-plan" transform="translate(0.557722, 5.120918)">
                        <path d="M1.69941265,27.1525801 C1.68735679,27.3742224 1.37575916,27.3774682 1.36602174,27.5833452 C1.36602174,27.59401 1.2927592,27.616267 1.25983743,27.608848 C0.639424296,27.4715967 0.396916024,27.2012672 0.329681417,26.5947647 C0.319943991,26.4992452 0.409435571,26.3429827 0.135396588,26.3800776 C0.00370949555,26.3986251 0.032921773,26.1779101 0.0978379452,26.1584353 C0.408508198,26.0666252 0.441429971,25.7508544 0.704804155,25.6214858 C0.873122515,25.5394132 0.742826484,25.5185473 0.641279043,25.4642959 C0.0945921366,25.1624357 0.0727988502,24.8044694 0.574508123,24.4321288 C0.767401892,24.2907042 0.788267805,24.1084753 0.582390802,24.0319669 C0.304642322,23.9290284 0.401552893,23.7291794 0.447457901,23.6359783 C0.516547256,23.4968722 0.642206417,23.4161907 0.438647849,23.2807941 C0.380686981,23.2432354 0.444675779,23.1537439 0.562452263,23.1231405 C0.970033087,23.0211294 0.982088947,22.7776937 0.702022033,22.4609956 C0.563379637,22.3084426 0.349619956,22.0506326 0.66307233,21.8554204 C0.79800523,21.7714931 0.788267805,21.6875657 0.7919773,21.5869457 C0.799859978,21.2243425 0.644988539,20.8751862 0.695066729,20.5102646 C0.702022033,20.4597227 0.681156121,20.4184546 0.620413131,20.3804322 C0.230452411,20.1504435 0.42334618,19.955695 0.684865616,19.7730023 C0.313452374,19.4882986 0.261055749,19.1052931 0.54019529,18.7742207 C0.549005342,18.7649469 0.57358075,18.7524274 0.569871254,18.7477905 C0.378832233,18.2943047 0.791049926,17.9173272 0.772966135,17.4689419 C0.753027597,17.0409589 0.319943991,16.7414171 0.420564058,16.3050877 C0.449312649,16.1822107 0.380686981,16.0421772 0.587955045,15.9754063 C0.686720364,15.9438756 0.705731529,15.8562387 0.642206417,15.7426354 C0.53555842,15.5400042 0.59166454,15.3647306 0.898625297,15.3095518 C0.562452263,15.1203676 0.519329377,14.9251554 0.730306937,14.6780102 C0.830927003,14.5616248 0.834172812,14.436893 0.728452189,14.3339545 C0.45209477,14.0631613 0.42937411,13.8303905 0.67512819,13.5809269 C0.698312538,13.5554241 0.756273406,13.5586699 0.736334867,13.5011727 C0.526284681,12.8900334 0.817016395,12.2932683 0.842519177,11.6886205 C0.861530342,11.1790285 0.375122738,10.80947 0.510055638,10.3086881 C0.528139429,10.2321798 0.460441135,10.1909117 0.370485868,10.1876658 C0.276357419,10.1825653 0.211441246,10.0782357 0.251318324,10.061543 C0.516547256,9.95953187 0.436793101,9.65442586 0.653334904,9.5500963 C1.04700512,9.35581147 1.10125649,9.17636462 0.778066692,8.89676139 C0.639424296,8.77852122 0.491044474,8.75997374 0.804496848,8.62504084 C1.14947993,8.47526996 1.15040731,7.87757749 0.879614133,7.60075638 C0.725670067,7.44588495 0.742826484,7.26551072 0.856893472,7.13335995 C1.00480961,6.95994103 1.06323416,6.83381818 0.82999963,6.69703053 C0.7919773,6.6733825 0.766474518,6.63721492 0.734480119,6.6093937 C1.09244644,6.31356143 0.420564058,5.98898057 0.809133717,5.63008687 C1.10682074,5.35743895 0.695530416,4.85897549 1.01732915,4.50889184 C1.14206094,4.37488632 0.929228636,4.38137793 0.894915802,4.31228858 C0.793368361,4.11939481 0.670491321,3.92418261 1.06508891,3.88059603 C1.14298832,3.87224967 1.2751391,3.95200382 1.28719496,3.78368546 C1.29461395,3.66127211 1.30064188,3.51289229 1.16199948,3.49388112 C0.912999593,3.46095935 0.970033087,3.31675271 0.982088947,3.19665779 C1.00202749,3.00422771 1.19028439,3.07331706 1.30527875,3.07795393 C1.72166962,3.09650141 2.11023928,3.09881985 2.17840126,2.61055749 C2.20251298,2.44594863 2.37129503,2.51596536 2.47608828,2.50947374 C3.93623847,2.44873075 5.39963446,2.40143468 6.86024834,2.4255464 C7.38189615,2.43435646 7.89473391,2.26325597 8.43724763,2.39587044 C8.57125316,2.42693746 8.79753239,2.11533984 9.09104622,2.18257444 C9.25472771,2.22198784 9.44252093,2.11070297 9.56632534,2.3652671 C9.64005156,2.51828379 10.1125486,2.49278101 10.1858111,2.39308832 C10.3545931,2.16031747 10.5474869,2.27160234 10.7301796,2.26882022 C11.1892296,2.26093754 11.6496708,2.26325597 12.1077935,2.27670289 C12.2065588,2.27809396 12.2292795,2.27902133 12.295123,2.19648505 C12.4263464,2.03697674 12.6331508,2.01611083 12.7319161,2.23311632 C12.8023965,2.38520564 12.949849,2.37500453 13.0240389,2.33883695 C13.6481615,2.02863038 14.3246808,2.25351855 14.9687419,2.18582025 C15.2622558,2.15382585 15.5719986,2.25490961 15.8427918,2.04254099 C15.9141996,1.98597118 16.098747,1.98318906 16.2211604,2.07731751 C16.3866966,2.20529511 16.5471323,2.3652671 16.7256518,2.06247953 C16.7836126,1.96278683 16.9574952,2.02213876 17.0251935,2.1273957 C17.1513164,2.31936209 17.2853219,2.3263174 17.4355565,2.16124485 C17.5218022,2.07082589 17.6321597,2.10838453 17.7337072,2.10467504 C18.1909025,2.10189292 18.6499526,2.1060661 19.1108574,2.10189292 C19.2035948,2.10189292 19.3427009,2.21642359 19.3700584,2.01611083 C19.3844327,1.90946283 19.5485779,1.91827289 19.5963376,1.94794885 C20.1045385,2.28968613 20.5844545,1.78473105 21.1070297,1.93125612 C21.6592808,2.08380913 22.2546549,2.02863038 22.8351909,2.01982033 C23.0892914,2.01518346 23.3781683,2.10838453 23.5896096,1.87468631 C23.6192855,1.84083717 23.7685927,1.83295449 23.8075424,1.86680364 C24.1891568,2.21225041 24.5457321,1.7615467 24.9407933,1.84593772 C25.3808322,1.93960249 25.8542566,1.92522819 26.3119156,1.93728405 C26.4649323,1.94145723 26.6684909,2.0244572 26.7366529,1.76293776 C26.7700383,1.63542385 27.5490324,1.72074225 27.6756189,1.85335671 C27.8541384,2.04114993 28.2733114,2.04532311 28.4624957,1.84501035 C28.5524509,1.74809978 28.6563168,1.78102155 28.7513726,1.78473105 C29.1580261,1.79910534 29.5646795,1.7615467 29.9778246,1.84083717 C30.1915843,1.88025056 30.5031819,2.00127285 30.7220422,1.67159143 C30.8272991,1.51161944 31.2455447,1.58580935 31.5056731,1.64145178 C31.7045948,1.68271992 31.8951701,1.70590427 32.0880639,1.69616684 C33.2704656,1.64516128 34.4445209,1.81718913 35.6287774,1.77731206 C35.780403,1.77267519 36.001118,1.86587626 36.0447046,1.6015747 C36.061861,1.51069206 36.1703637,1.5199658 36.260319,1.61316688 C36.4912351,1.85335671 36.6224585,1.86123939 36.8227713,1.62939592 C36.8788774,1.56494344 36.9113355,1.59508309 36.968369,1.60760263 C37.3198437,1.68040148 37.7598826,1.46803286 38.0181562,1.85892096 C38.0380948,1.88396005 38.126659,1.90528965 38.1401059,1.89277011 C38.5829269,1.46710549 39.1430607,1.768502 39.6429153,1.71285957 C39.9916079,1.67298249 40.4784791,1.81626176 40.6996578,1.71656907 C41.0209929,1.57143505 41.1480431,1.60621157 41.3618028,1.77499362 C41.3979704,1.80142378 41.5519144,1.78009418 41.5690708,1.74624503 C41.6938026,1.51393787 41.7934953,1.38549659 41.9131265,1.7471724 C41.9205455,1.76664726 42.0652159,1.78241261 42.0772717,1.7652562 C42.387942,1.29600501 42.907735,1.52970323 43.2861036,1.56030657 C44.5357399,1.65953557 45.7876946,1.67298249 47.0382583,1.73558023 C47.4602135,1.75690983 47.8803138,1.78333999 48.3022689,1.77731206 C48.4863527,1.77360256 48.7256151,1.87144051 48.8169615,1.58720041 C48.8350452,1.52970323 49.118358,1.42537367 49.2361345,1.67298249 C49.316816,1.84593772 49.5352125,1.85567515 49.6863745,1.74439028 C50.0077095,1.50559151 50.1046201,1.5130105 50.3183798,1.84871985 C50.5367763,1.70915008 50.7324522,1.33959158 51.0092733,1.81208858 C51.048223,1.88164162 51.2313794,1.9567589 51.3922787,1.85335671 C51.7293791,1.64006072 52.0743622,1.53804959 52.3868872,1.90111647 C52.4374291,1.96139577 52.519038,1.94933991 52.5853452,1.90668071 C53.0253842,1.62104956 53.7056129,1.60621157 54.10392,1.88396005 C54.2235512,1.96510527 54.2740931,1.91920026 54.3918696,1.85242934 C54.5657522,1.7545914 54.8509197,1.62939592 54.9227911,1.97901588 C54.9552492,2.15104373 55.0985285,2.10096554 55.2042491,2.10096554 C56.2466174,2.10467504 57.2862035,2.10328398 58.328108,2.10328398 C58.3587114,2.10328398 58.4032253,2.11487615 58.4194544,2.10096554 C58.6740185,1.86402151 58.9781971,2.01611083 59.2633646,1.99988179 C59.3765042,1.99570861 59.6417332,2.11070297 59.6417332,1.81950757 C59.6417332,1.7545914 59.8902694,1.74624503 59.9760514,1.79307741 C60.3238167,1.98087062 60.6154757,1.93125612 60.9052801,1.70590427 C60.9326376,1.68271992 60.9915259,1.61548531 61.0810174,1.70358583 C61.2530453,1.86680364 61.4867435,1.82089863 61.5980284,1.62846855 C61.6351233,1.56494344 62.0283299,1.51161944 62.0529053,1.57468086 C62.0969555,1.70080371 62.2791845,1.71656907 62.282894,1.72398806 C62.6172123,2.29385931 62.709486,1.71007745 62.7526089,1.61548531 C62.9204635,1.25473687 63.2598824,1.38178709 63.4509214,1.46478706 C63.6605079,1.55335126 63.8649938,1.58070879 63.9925078,1.49956358 C64.5902002,1.11980397 65.2950044,1.19770338 65.9423114,1.15272574 C67.3199253,1.05720623 68.6822375,0.885178376 70.0566056,0.807278969 C70.1312592,0.804496848 70.2550636,0.786413057 70.26341,0.759982901 C70.3737675,0.205877003 70.910717,0.559206454 71.2195325,0.421027745 C71.3961972,0.340346217 71.6099569,0.280994288 71.7912585,0.222569733 C72.3509286,0.0435865727 72.9736602,0.0570334941 73.5741348,0.0973742582 C73.7419894,0.106647997 73.6385872,0.277748479 73.6891291,0.368167433 C73.7507995,0.475279118 73.899643,0.261519436 73.936738,0.421955119 C73.9798608,0.606038836 73.7146319,0.539267916 73.7109224,0.595374036 C73.6877381,0.933865505 73.2537271,1.06230679 73.1957662,1.3140888 C73.1359506,1.562625 73.0895819,1.91317233 73.3135427,2.13574206 C73.5889727,2.40468049 73.5379672,2.7241608 73.4456935,2.96620538 C73.3803136,3.14333379 73.418336,3.29403205 73.3914421,3.45261298 C73.3325539,3.78461284 73.5899001,4.12403168 73.3251349,4.4676237 C73.2755204,4.53300356 73.0371853,4.95264025 73.5472409,4.97396985 C73.5616152,4.97396985 73.5931459,5.10472957 73.57228,5.16315412 C73.4684141,5.45295846 73.4410566,5.7497181 73.3895874,6.04601406 C73.3126153,6.49347196 73.2421349,6.53195798 73.5532689,6.93304719 C73.6042744,6.99981811 73.6195761,7.16118116 73.5681068,7.20476773 C73.3460008,7.39348832 73.5017996,7.71528706 73.2421349,7.87989592 C73.2328612,7.88731492 73.2300791,7.90308027 73.2203416,7.91142664 C73.0200289,8.14651592 73.5463135,8.19010249 73.3914421,8.41128116 C73.2565092,8.60139281 73.2240511,8.77481173 73.4929895,8.89676139 C73.5569783,8.92782842 73.5977828,9.00897363 73.5681068,9.02056581 C73.1776824,9.20047634 73.5852632,9.60944823 73.2699561,9.8055878 C73.2444533,9.82181685 73.2444533,9.87143135 73.2328612,9.9052805 C73.6840286,9.97761566 73.3951516,10.3249172 73.5198834,10.5233752 C73.5681068,10.5984925 73.5718163,10.7343528 73.4058164,10.7950957 C73.2954589,10.8363639 73.2843304,10.9476487 73.3051963,11.0422409 C73.38866,11.4363748 73.4749058,11.8207713 73.3733583,12.2357711 C73.3460008,12.3563297 73.495308,12.585391 73.5472409,12.775039 C73.6919112,13.2823125 73.5616152,13.7710385 73.4990175,14.2718204 C73.4572857,14.582027 73.5342577,14.9070716 73.5931459,15.2223787 C73.6251403,15.3944065 73.7438442,15.5520601 73.4429114,15.6369148 C73.344146,15.6638087 73.3923695,15.8056969 73.4095259,15.8951884 C73.5273024,16.5350764 73.7651738,17.2009309 73.624213,17.8185619 C73.5198834,18.2664835 73.8069056,18.7793212 73.3733583,19.1869021 C73.327917,19.2318797 73.2889673,19.5606337 73.4920622,19.6287957 C73.677537,19.6913934 73.640442,19.7827398 73.6747548,19.8944883 C73.7498721,20.154153 73.709995,20.3665216 73.4410566,20.5162925 C73.3232801,20.5821361 73.1948388,20.6512254 73.4429114,20.6962031 C73.5741348,20.7198511 73.570889,20.7870857 73.5769169,20.8668398 C73.5977828,21.1153761 73.3232801,21.3870966 73.66409,21.6152306 C73.6974755,21.6388786 73.7030397,21.8099791 73.5950007,21.816007 C73.1665539,21.8401187 73.2690288,22.073817 73.2936042,22.3084426 C73.3098332,22.4656324 73.3126153,22.6140123 73.1674813,22.7823306 C73.0552691,22.9149451 73.0534143,23.1736824 73.2843304,23.386051 C73.5110733,23.5933191 73.5541962,23.9665871 73.4276097,24.2132685 C73.3497103,24.360721 73.3051963,24.4928718 73.3070511,24.6370784 C73.3163248,25.0543966 73.0951462,25.4642959 73.2481628,25.8899605 C73.2783025,25.9729605 72.8577384,26.1352509 72.7585094,26.0898096 C72.4812246,25.9646141 72.1079566,26.0541057 72.0574148,26.2159324 C71.9693143,26.4765245 71.8162976,26.4380385 71.6298954,26.4408206 C71.1606442,26.450558 70.6951025,26.4449938 70.2216782,26.5089826 C69.7144046,26.5780719 69.2011032,26.3912061 68.6803828,26.4380385 C68.373422,26.4640049 68.0646065,26.4496307 67.8169977,26.6619993 C67.7961318,26.6800831 67.6115844,26.8303176 67.4873163,26.6439155 C67.4024615,26.5159379 66.5673614,26.5479323 66.4324285,26.6471613 C66.0531325,26.9323288 65.9970264,26.9007981 65.424373,26.7306249 C65.3005686,26.6921389 64.8767588,26.6058932 64.7524907,26.9202729 C64.7038035,27.0385131 64.6166304,27.0932281 64.477988,27.0876639 C64.2345523,27.0760717 63.9999267,27.1238315 63.7578822,27.1553622 C63.5932733,27.1780828 63.4050164,27.2351163 63.2380891,26.9930718 C63.0790445,26.7663288 62.6955754,26.9888986 62.4377654,27.0375857 C62.1224583,27.0950829 61.9828885,27.1238315 61.986598,26.7890495 C61.9893802,26.6119211 61.8080786,26.6021837 61.6471792,26.6021837 C60.0859453,26.6035747 58.5242476,26.6021837 56.9602316,26.6045021 C56.8364271,26.6045021 56.6504887,26.5636976 56.6704272,26.761692 C56.7052037,27.0482505 56.4877346,27.0157924 56.2911313,27.006055 C54.2300428,26.9114629 52.1624628,26.9165634 50.1009106,26.7718931 C49.9135811,26.7584462 49.6673633,26.6508708 49.5393857,26.9550494 C49.4944081,27.0663343 49.1114027,27.0844181 48.9690508,26.9416025 C48.6889839,26.6606082 48.4121628,26.7190328 48.1103026,26.8688037 C48.0532691,26.8984796 48.0300847,26.9188818 47.9637775,26.8836416 C47.4296101,26.6119211 47.4421297,26.632787 46.8523199,26.8984796 C46.6793646,26.974988 46.3733313,27.0241388 46.2286609,26.8122338 C46.1043928,26.6313959 45.8897058,26.6383512 45.8085606,26.7055858 C45.4543037,26.9879712 45.049505,26.7695746 44.6845834,26.8474741 C44.4355835,26.8998707 44.5612427,26.6244406 44.3692763,26.5938373 C44.1281591,26.5562787 43.9960083,26.7538093 43.8096061,26.7552004 C42.990735,26.7695746 42.176037,26.7695746 41.3580933,26.7380439 C41.1786464,26.7306249 40.9523672,26.7538093 40.7900768,26.5516418 C40.6732277,26.4004798 40.5944009,26.686111 40.437211,26.6837926 C39.9016526,26.6754462 39.3549657,26.739435 38.8333179,26.6619993 C38.1600444,26.5599881 37.4844525,26.5766809 36.8287992,26.6337144 C36.5320396,26.6596808 36.2167324,26.7626193 35.8953974,26.7626193 C35.7168779,26.7626193 35.5258389,26.8052785 35.4317104,26.5970831 C35.3788501,26.4844072 35.1868837,26.5015636 35.1915206,26.5757535 C35.2077497,26.9596863 34.8674034,26.7667925 34.7640012,26.7487087 C34.2585825,26.6652451 33.7527,26.6921389 33.2463539,26.686111 C33.1503707,26.6851836 33.0376948,26.6471613 32.960259,26.7538093 C32.8656669,26.8817869 32.7733932,26.9137813 32.7228513,26.7190328 C32.7182144,26.7018764 32.6013653,26.6800831 32.5698346,26.700949 C32.0607064,27.0255298 31.4857346,26.761692 30.9529583,26.8414461 C30.8653214,26.8558204 30.7684108,26.8507199 30.7531092,26.7347981 C30.7248243,26.5405133 30.5031819,26.5683345 30.4368747,26.6142395 C30.0594335,26.8836416 29.6272773,26.7222786 29.2243333,26.7626193 C29.056015,26.7807031 28.8519927,26.7079043 28.767138,26.9212003 C28.759719,26.9462394 28.6836743,26.9773064 28.6693001,26.967569 C28.051669,26.6012563 27.4164179,27.1080661 26.7964685,26.9295466 C26.7046585,26.9026528 26.6378876,26.9462394 26.6114574,27.0524237 C26.5609155,27.2402169 26.4602955,27.166027 26.3786866,27.0654069 C26.1959939,26.8400551 26.1588989,26.8252171 26.07729,27.0315578 C26.0021728,27.2244515 25.908508,27.1419153 25.7731114,27.128932 C24.9713967,27.0459321 24.1390786,26.9888986 23.3739952,27.1261499 C22.814325,27.2258426 22.2690292,27.2851945 21.7408897,27.228161 C21.0977559,27.1562896 20.4421026,27.1057477 19.8309632,27.1989488 C19.300969,27.2787029 18.7821033,27.333418 18.2525729,27.32739 C17.9808523,27.3236805 17.7082044,27.380714 17.4429755,27.2657197 C17.365076,27.2327979 17.1990761,27.2471722 17.1466795,27.2981778 C16.7599646,27.6839653 16.2666017,27.441457 15.8270265,27.4739151 C15.5770992,27.49339 15.3127976,27.3167252 15.0828089,27.5494961 C15.0373676,27.59401 14.924228,27.59401 14.8764682,27.5300212 C14.7628649,27.3658761 14.6715186,27.3538202 14.558379,27.5300212 C14.5384404,27.5610883 14.4341109,27.5842726 14.3928427,27.5685072 C13.8883513,27.3695856 13.3847873,27.6751552 12.8784412,27.5661888 C12.4156816,27.4678872 11.997436,27.274066 11.4674418,27.3538202 C10.3708222,27.5179654 9.2695657,27.669591 8.14929804,27.654753 C7.50709162,28.0975741 6.72346069,27.9190546 6.00752805,28.0187473 C5.26933843,28.1226131 4.50935553,28.1054567 3.76050112,28.1374511 C3.56297048,28.1457975 3.03251261,27.8485742 2.8836691,27.7057586 C2.67547367,27.5017363 2.34579225,27.4919989 2.07963594,27.4349654 C1.86958576,27.3899878 1.80884277,27.2912225 1.69941265,27.1525801" id="Background" fill="#7D7D7D"></path>
                        <g id="Logos" transform="translate(3.709496, 4.173182)" fill="#FFFFFF">
                            <path d="M30.9260644,7.61234856 L32.059779,7.61234856 C33.0089462,7.61234856 33.5032364,7.14634318 33.5032364,6.30846087 C33.5032364,5.46872382 32.9936445,5.0041095 32.013874,5.0041095 L30.9260644,5.0041095 L30.9260644,7.61234856 L30.9260644,7.61234856 Z M27.8513563,4.38184162 C27.8513563,3.26296502 28.4110264,2.6564625 29.4353109,2.6564625 L32.0922371,2.6564625 C34.9661688,2.6564625 36.5352854,3.90099826 36.5352854,6.30846087 C36.5352854,8.69969444 35.0292302,9.88070509 32.1859018,9.88070509 L30.9728968,9.88070509 L30.9728968,12.7087318 L27.8513563,12.7087318 L27.8513563,4.38184162 L27.8513563,4.38184162 Z" id="Fill-22"></path>
                            <path d="M37.3893967,4.02433899 C37.3893967,3.04595953 37.8387094,2.58041784 38.6956028,2.58041784 L39.1444518,2.58041784 C40.0287028,2.58041784 40.4956356,3.04595953 40.4956356,4.02433899 L40.4956356,10.0054369 L43.555042,10.0054369 C44.5185835,10.0054369 44.9850525,10.4417663 44.9850525,11.2963413 L44.9850525,11.341319 C44.9850525,12.2278884 44.5185835,12.7087318 43.555042,12.7087318 L37.3893967,12.7087318 L37.3893967,4.02433899" id="Fill-23"></path>
                            <path d="M49.4434025,8.39087894 L51.6009379,8.39087894 L50.5159104,5.46872382 L49.4434025,8.39087894 L49.4434025,8.39087894 Z M52.160608,10.6286321 L48.9157268,10.6286321 L48.1232858,12.7087318 L45.0161196,12.7087318 L48.6059839,3.43499288 C48.7590006,2.93606573 49.1763188,2.58041784 50.575726,2.58041784 C51.991826,2.58041784 52.3479375,2.93606573 52.5037363,3.43499288 L56.2466174,12.7087318 L52.998954,12.7087318 L52.160608,10.6286321 L52.160608,10.6286321 Z" id="Fill-24"></path>
                            <path d="M56.6504887,4.02433899 C56.6504887,3.06218858 57.1304047,2.58041784 57.9247004,2.58041784 L58.2191416,2.58041784 C58.9489849,2.58041784 59.1817557,2.79788702 59.6157667,3.31072478 L63.2209327,8.00323665 L63.2209327,2.6564625 L66.1416967,2.6564625 L66.1416967,11.341319 C66.1416967,12.3053241 65.6589986,12.7861675 64.8837141,12.7861675 L64.6347142,12.7861675 C63.8877145,12.7861675 63.6721001,12.6006927 63.2529271,12.1026929 L59.569398,7.33413639 L59.569398,12.7087318 L56.6504887,12.7087318 L56.6504887,4.02433899" id="Fill-25"></path>
                            <path d="M28.0915461,16.0027638 C28.0915461,15.7444902 28.2445628,15.6183673 28.4736242,15.6183673 L28.6048476,15.6183673 C28.8404005,15.6183673 28.9989815,15.7444902 28.9989815,16.0027638 L28.9989815,18.5655615 L28.0915461,18.5655615 L28.0915461,16.0027638" id="Fill-26"></path>
                            <path d="M29.673646,16.0352219 C29.673646,15.7533002 29.8136794,15.6137305 30.0436682,15.6137305 L30.1299139,15.6137305 C30.3418189,15.6137305 30.4113719,15.6754008 30.53564,15.8284175 L31.5882094,17.1944393 L31.5882094,15.6355237 L32.4400023,15.6355237 L32.4400023,18.1667908 C32.4400023,18.4477851 32.2981141,18.590137 32.0732259,18.590137 L32.0018181,18.590137 C31.7834216,18.590137 31.7203601,18.5340308 31.5979468,18.3898242 L30.5240478,16.9992271 L30.5240478,18.5655615 L29.673646,18.5655615 L29.673646,16.0352219" id="Fill-27"></path>
                            <path d="M32.9194546,16.0254845 L32.9194546,16.0120375 C32.9194546,15.762574 33.0659797,15.6355237 33.3367728,15.6355237 L35.2142413,15.6355237 C35.4956992,15.6355237 35.6371238,15.762574 35.6371238,16.0120375 L35.6371238,16.0254845 C35.6371238,16.2828307 35.4956992,16.4247189 35.2142413,16.4247189 L34.7412806,16.4247189 L34.7412806,18.5655615 L33.8301357,18.5655615 L33.8301357,16.4247189 L33.3367728,16.4247189 C33.0659797,16.4247189 32.9194546,16.2828307 32.9194546,16.0254845" id="Fill-28"></path>
                            <path d="M36.1105481,18.110221 L36.1105481,16.1395515 C36.1105481,15.8121885 36.2737659,15.6355237 36.5742351,15.6355237 L38.5351672,15.6355237 L38.5351672,16.4196184 L37.0179835,16.4196184 L37.0179835,16.7145233 L38.150307,16.7145233 L38.150307,17.4476123 L37.0179835,17.4476123 L37.0179835,17.7870312 L38.539804,17.7870312 L38.539804,18.5655615 L36.5742351,18.5655615 C36.2964866,18.5655615 36.1105481,18.4157907 36.1105481,18.110221" id="Fill-29"></path>
                            <path d="M40.0212838,17.0089645 L40.4042892,17.0089645 C40.6732277,17.0089645 40.8100153,16.8856237 40.8100153,16.6681546 C40.8100153,16.4428027 40.6769372,16.3240989 40.3936244,16.3240989 L40.0212838,16.3240989 L40.0212838,17.0089645 L40.0212838,17.0089645 Z M40.613412,18.2043494 L40.1998033,17.6511709 L40.0356581,17.6511709 L40.0356581,18.5655615 L39.1319323,18.5655615 L39.1319323,16.1395515 C39.1319323,15.8121885 39.2914406,15.6355237 39.590055,15.6355237 L40.4956356,15.6355237 C41.3107972,15.6355237 41.718378,15.9712331 41.718378,16.5981378 C41.718378,17.0224114 41.497663,17.3386459 41.0854454,17.4545676 L41.7448082,18.2757572 C41.7726294,18.3105337 41.6154395,18.590137 41.2250151,18.590137 C40.9449482,18.590137 40.8021326,18.4644778 40.613412,18.2043494 L40.613412,18.2043494 Z" id="Fill-30"></path>
                            <path d="M42.2979867,16.0352219 C42.2979867,15.7533002 42.441266,15.6137305 42.6684726,15.6137305 L42.7561094,15.6137305 C42.9698691,15.6137305 43.0380311,15.6754008 43.1646176,15.8284175 L44.2153322,17.1944393 L44.2153322,15.6355237 L45.0648067,15.6355237 L45.0648067,18.1667908 C45.0648067,18.4477851 44.9243096,18.590137 44.697103,18.590137 L44.6256952,18.590137 C44.4100807,18.590137 44.3456283,18.5340308 44.2227512,18.3898242 L43.1493159,16.9992271 L43.1493159,18.5655615 L42.2979867,18.5655615 L42.2979867,16.0352219" id="Fill-31"></path>
                            <path d="M46.7229512,17.3071152 L47.3535655,17.3071152 L47.0382583,16.455786 L46.7229512,17.3071152 L46.7229512,17.3071152 Z M47.5153922,17.9604501 L46.5690072,17.9604501 L46.3390184,18.5655615 L45.4343652,18.5655615 L46.4776608,15.8645851 C46.5235658,15.7175963 46.6469066,15.6137305 47.05356,15.6137305 C47.4648503,15.6137305 47.5687162,15.7175963 47.6141575,15.8645851 L48.7070676,18.5655615 L47.7606826,18.5655615 L47.5153922,17.9604501 L47.5153922,17.9604501 Z" id="Fill-32"></path>
                            <path d="M48.8865145,16.0254845 L48.8865145,16.0120375 C48.8865145,15.762574 49.0335033,15.6355237 49.3042964,15.6355237 L51.1859381,15.6355237 C51.4669323,15.6355237 51.605111,15.762574 51.605111,16.0120375 L51.605111,16.0254845 C51.605111,16.2828307 51.4669323,16.4247189 51.1859381,16.4247189 L50.7088042,16.4247189 L50.7088042,18.5655615 L49.8004415,18.5655615 L49.8004415,16.4247189 L49.3042964,16.4247189 C49.0335033,16.4247189 48.8865145,16.2828307 48.8865145,16.0254845" id="Fill-33"></path>
                            <path d="M52.1142393,16.0027638 C52.1142393,15.7444902 52.2681834,15.6183673 52.4935352,15.6183673 L52.6261497,15.6183673 C52.8598479,15.6183673 53.0198199,15.7444902 53.0198199,16.0027638 L53.0198199,18.5655615 L52.1142393,18.5655615 L52.1142393,16.0027638" id="Fill-34"></path>
                            <path d="M55.789422,17.097065 C55.789422,16.6681546 55.5311484,16.3746407 55.1416514,16.3746407 C54.745199,16.3746407 54.4897075,16.6551713 54.4897075,17.097065 C54.4897075,17.532467 54.7498359,17.8204166 55.1416514,17.8204166 C55.5311484,17.8204166 55.789422,17.532467 55.789422,17.097065 L55.789422,17.097065 Z M53.594328,17.097065 C53.594328,16.2114229 54.241635,15.5733897 55.1416514,15.5733897 C56.0449135,15.5733897 56.6866563,16.2072498 56.6866563,17.097065 C56.6866563,17.9910534 56.0449135,18.630014 55.1416514,18.630014 C54.2379255,18.630014 53.594328,17.9947629 53.594328,17.097065 L53.594328,17.097065 Z" id="Fill-35"></path>
                            <path d="M57.2356616,16.0352219 C57.2356616,15.7533002 57.374304,15.6137305 57.6042927,15.6137305 L57.6919296,15.6137305 C57.9038345,15.6137305 57.9747786,15.6754008 58.1013651,15.8284175 L59.1511524,17.1944393 L59.1511524,15.6355237 L60.0015542,15.6355237 L60.0015542,18.1667908 C60.0015542,18.4477851 59.8619845,18.590137 59.6338505,18.590137 L59.5642974,18.590137 C59.3459009,18.590137 59.2823758,18.5340308 59.1599624,18.3898242 L58.0869908,16.9992271 L58.0869908,18.5655615 L57.2356616,18.5655615 L57.2356616,16.0352219" id="Fill-36"></path>
                            <path d="M61.6596987,17.3071152 L62.2875309,17.3071152 L61.9722237,16.455786 L61.6596987,17.3071152 L61.6596987,17.3071152 Z M62.4512124,17.9604501 L61.5048273,17.9604501 L61.2748386,18.5655615 L60.3674032,18.5655615 L61.4162631,15.8645851 C61.4612407,15.7175963 61.5836541,15.6137305 61.9893802,15.6137305 C62.4034526,15.6137305 62.5073185,15.7175963 62.5518324,15.8645851 L63.6419604,18.5655615 L62.6965027,18.5655615 L62.4512124,17.9604501 L62.4512124,17.9604501 Z" id="Fill-37"></path>
                            <path d="M63.9874072,16.0352219 C63.9874072,15.7509818 64.119558,15.6137305 64.3667031,15.6137305 L64.4988539,15.6137305 C64.7571275,15.6137305 64.8939152,15.7509818 64.8939152,16.0352219 L64.8939152,17.7786848 L65.7851215,17.7786848 C66.0665795,17.7786848 66.2015124,17.9048077 66.2015124,18.1533439 L66.2015124,18.1667908 C66.2015124,18.4250644 66.0665795,18.5655615 65.7851215,18.5655615 L63.9874072,18.5655615 L63.9874072,16.0352219" id="Fill-38"></path>
                            <path d="M3.13730586,3.7183056 C2.92725568,3.84906532 1.97437901,4.86314867 1.85242934,5.03285809 C1.8004964,5.10936643 1.61409425,5.4265283 1.60064733,5.44322103 C1.57236243,5.47846124 1.43557478,5.66069021 1.40868094,5.68619299 C1.38596028,5.70752259 1.28255809,6.02514815 1.2570553,6.06409785 C1.21671454,6.13318721 1.04793249,6.28342178 1.03726769,6.31912567 C1.0298487,6.34184633 1.11609447,6.52824848 0.88146888,6.72624281 C0.727524815,6.85978465 0.609748331,7.37123135 0.595374036,7.41249949 C0.559206454,7.50523687 0.357966321,7.74171722 0.391351781,7.95779533 C0.405726076,8.05099641 0.35054733,8.14327011 0.296295957,8.22302426 C0.261055749,8.29814155 0.273575297,8.5554878 0.121485979,8.60834811 C-0.0143742953,8.65610787 0.0357038947,8.87914129 0.0709441024,8.94730327 C0.172491543,9.13741492 0.0881005193,9.32288969 0.0881005193,9.33772768 C0.0862457716,9.35163828 0.0366312686,9.52042033 0.115458049,9.62938676 C0.223960794,9.78564926 0.102474815,10.0429955 0.0978379452,10.1320234 C0.0700167285,10.5980288 0.396916024,10.7362075 0.303714948,11.0121012 C0.243899332,11.182738 0.36260319,11.3283357 0.337100408,11.502682 C0.316234496,11.6459613 0.42937411,11.7099501 0.448385275,11.7572461 C0.462295883,11.7850674 0.560133828,12.0187656 0.554569585,12.0604974 C0.510055638,12.3118157 0.890278932,12.6823016 0.86941302,13.0518601 C0.849938168,13.3694857 1.22552459,13.5095191 1.25195475,13.5391951 C1.43557478,13.7613011 1.43557478,14.0279211 1.63310542,14.1591445 C1.65118921,14.1716641 1.86494889,14.3334908 1.89045167,14.3478651 C2.01054659,14.4174181 1.89833435,14.4980997 1.91549077,14.5379768 C2.07221695,14.8885241 2.40931736,15.1157307 2.40931736,15.1157307 C3.22355163,16.0440319 5.15851725,17.264456 5.34538309,17.288104 C5.53085787,17.3145342 5.70844997,17.3456012 5.85404767,17.4656961 C6.00752805,17.591819 6.69934897,17.8454557 6.69934897,17.8454557 C6.80136009,17.8881149 6.90939915,17.8774501 7.01094659,17.9112993 C7.10692979,17.9460758 7.70740438,18.1607628 7.79411384,18.1904388 C7.91652719,18.2344891 8.05934277,18.3193438 8.50958279,18.4273828 C8.70618606,18.4709694 8.90093458,18.5864275 9.10171102,18.6249135 C9.32752656,18.6685 9.52134771,18.4732878 9.70960461,18.5924554 C9.91872742,18.7195056 10.2076044,18.8020419 10.3462468,18.8215167 C11.3070061,19.0324943 12.677201,19.0723714 13.6555805,19.0431591 C13.6555805,19.0431591 13.9662508,19.1113211 14.2982506,19.0431591 C14.6399879,19.0260027 15.0267028,18.9096173 15.367049,18.8915335 C15.8599482,18.7519637 16.4395569,18.6355783 16.9013891,18.4009527 C17.0632158,18.3624667 17.2417353,18.1862656 17.3432828,18.1788466 C17.5677072,18.0926009 17.8904334,17.8018692 17.9247462,17.7786848 C17.959059,17.7596736 18.2595282,17.5760536 18.2595282,17.5760536 C18.2595282,17.5760536 18.3573661,17.5129922 18.4570588,17.4476123 C18.5242934,17.393361 19.3246171,16.7585735 19.3246171,16.7585735 C19.3853601,16.6254954 19.5411589,16.5777356 19.6552259,16.4877804 C19.6686728,16.4692329 19.6807286,16.4502217 19.6951029,16.4344564 C19.7405443,16.3908698 19.795723,16.3602664 19.849047,16.3273447 C19.8736224,16.3134341 19.8991252,16.2985961 19.9213822,16.2791212 C19.9306559,16.2656743 19.9403933,16.2564006 19.9496671,16.2452721 C19.9561587,16.2295067 19.9603319,16.2114229 19.9723877,16.197976 C19.9770246,16.190557 19.9839799,16.1845291 19.9913989,16.1845291 C20.0057732,16.1845291 20.0150469,16.1989034 20.0275665,16.1970486 C20.0373039,16.1956576 20.0456503,16.1775738 20.0493598,16.1701548 C20.0581698,16.1506799 20.0665162,16.144652 20.0836726,16.1339872 C20.1063933,16.1191492 20.1017564,16.0885459 20.0836726,16.0713895 C20.0702257,16.0588699 20.0484324,16.0440319 20.0456503,16.0208476 C20.0373039,15.9865348 20.0711531,15.9601046 20.100829,15.9434119 C20.1281865,15.9281102 20.1597173,15.9308923 20.18522,15.9480487 C20.2079407,15.9628867 20.2158234,15.9930264 20.2394714,16.0013727 C20.26822,16.0111102 20.2863038,15.977261 20.2863038,15.9545404 C20.2863038,15.9364566 20.2863038,15.9281102 20.3002144,15.909099 C20.3201529,15.8789594 20.2668289,15.885451 20.251991,15.8729315 C20.238544,15.8622667 20.2640468,15.8534566 20.26822,15.8414008 C20.275639,15.8103337 20.238544,15.7950321 20.2102591,15.7927136 C20.1805832,15.7894678 20.1569351,15.8089427 20.1369966,15.830736 C20.1272592,15.8427918 20.1161307,15.8548477 20.1026838,15.8645851 C20.0961921,15.8669035 20.0808905,15.8669035 20.077181,15.8729315 C20.0711531,15.8789594 20.0762536,15.8910153 20.0720804,15.8993616 C20.0702257,15.915127 20.0512145,15.9104901 20.0382313,15.909099 C20.0266391,15.9072443 20.0094827,15.9058532 19.9960358,15.9058532 C19.9770246,15.9072443 19.9561587,15.9128085 19.9380749,15.9193002 C19.9241643,15.923937 19.9153542,15.9364566 19.9042258,15.9420208 C19.8842872,15.9512946 19.8671308,15.9568588 19.8444101,15.9577862 C19.7873766,15.9642778 19.7433264,15.9967359 19.6941756,16.0185292 C19.6552259,16.036613 19.6190583,16.0597973 19.5791812,16.0681437 C19.5638795,16.0704621 19.5411589,16.0713895 19.5267846,16.0704621 C19.5124103,16.0681437 19.5059187,16.0621157 19.4915444,16.0713895 C19.4804159,16.082518 19.4725332,16.0950375 19.4558405,16.1029202 C19.4470304,16.1140487 19.429874,16.1168308 19.4215276,16.1288867 C19.4108628,16.144652 19.4108628,16.1636632 19.3964886,16.1789648 C19.3797958,16.1989034 19.3644942,16.2104956 19.3427009,16.2174509 C19.2865947,16.2318252 19.2114775,16.2086408 19.1697456,16.1775738 C19.1090026,16.1363056 19.0927736,16.0440319 19.0793267,15.977261 C19.0746898,15.9531493 19.0793267,15.916518 19.0287848,15.923937 C19.0079189,15.9281102 18.9921535,15.9531493 18.9777792,15.9670599 C18.9207457,16.0431046 18.835891,16.0885459 18.7468631,16.1140487 C18.698176,16.1242498 18.6518073,16.1288867 18.6049749,16.1339872 C18.5660252,16.1339872 18.5270755,16.1140487 18.4890532,16.1191492 C18.4663325,16.121004 18.4589135,16.144652 18.4542767,16.1650542 C18.4454666,16.1808196 18.4380476,16.1970486 18.4334108,16.2114229 C18.4125449,16.2475905 18.3828689,16.2582553 18.3457739,16.24249 C18.3230533,16.2318252 18.2762209,16.2049313 18.3096064,16.1775738 C18.3286175,16.1604174 18.3875058,16.1404788 18.3712767,16.1029202 C18.3666398,16.082518 18.3341818,16.1001381 18.3202712,16.1052386 C18.2952321,16.1191492 18.2697293,16.1339872 18.2395896,16.1339872 C18.1964667,16.1339872 18.1375785,16.1159034 18.1329416,16.0644342 C18.1329416,16.0574789 18.1329416,16.0477414 18.1366511,16.0393951 C18.141288,16.029194 18.1510254,16.0254845 18.1584444,16.0208476 C18.1718913,16.0171381 18.1881204,16.0064733 18.1927572,15.9967359 C18.203422,15.9809705 18.1825561,15.9642778 18.1881204,15.9471214 C18.1881204,15.929965 18.2335617,15.9049259 18.2442265,15.8868421 C18.2650924,15.8548477 18.2794667,15.8284175 18.3156343,15.8103337 C18.3457739,15.7973505 18.4162544,15.8103337 18.4283102,15.7769483 C18.446394,15.7370712 18.4371203,15.6958031 18.4691147,15.6512891 C18.5052822,15.6049204 18.5377403,15.6095573 18.4987906,15.556697 C18.4514946,15.4927082 18.3828689,15.5502054 18.3341818,15.5831271 C18.3096064,15.5998199 18.2803941,15.6220768 18.2507181,15.6243953 C18.2062042,15.6243953 18.2233606,15.5947193 18.2442265,15.5710713 C18.264165,15.5469595 18.2952321,15.5274847 18.3142432,15.5024456 C18.3411371,15.4658143 18.3522656,15.4236188 18.4083717,15.4291831 C18.4361929,15.4328926 18.4635504,15.4417026 18.4844163,15.4148088 C18.523366,15.3693674 18.4797795,15.3276356 18.4334108,15.3262446 C18.3773046,15.3253172 18.3267628,15.3471105 18.2803941,15.3758591 C18.2395896,15.4036803 18.203422,15.4328926 18.1681818,15.4658143 C18.1329416,15.4927082 18.1023383,15.5265573 18.0559696,15.5024456 C18.0453048,15.495954 18.0406679,15.4927082 18.0258299,15.4927082 C17.9998635,15.495954 17.9752881,15.5205294 17.9544222,15.5362947 C17.9075898,15.5733897 17.8528747,15.5947193 17.8324725,15.5163562 C17.8259809,15.495954 17.8802322,15.473697 17.8964613,15.4597864 C17.8964613,15.4597864 18.0151651,15.444021 18.0406679,15.436602 C18.0796176,15.4291831 18.1510254,15.4110993 18.1765282,15.3781775 C18.1834835,15.3665853 18.1881204,15.3568479 18.1992489,15.343401 C18.2507181,15.2835854 18.1793103,15.1973396 18.1120757,15.2376804 C18.0633886,15.26782 18.0286121,15.3229987 17.9845618,15.3568479 C17.9544222,15.3823507 17.9163998,15.4097082 17.8728133,15.4097082 C17.8366457,15.4097082 17.7652379,15.3758591 17.7907407,15.328563 C17.8023328,15.304915 17.8477742,15.304915 17.8718859,15.2910043 C17.898316,15.2738479 17.9136177,15.2413898 17.94283,15.2233061 C17.9845618,15.1871385 18.0360311,15.1588536 18.0921372,15.1477251 C18.1227405,15.1421608 18.1834835,15.1393787 18.1834835,15.0883732 C18.1834835,15.0647251 18.1626176,15.054524 18.141288,15.0586972 C18.1120757,15.0647251 18.0921372,15.0716804 18.0615338,15.0679709 C18.0207294,15.0605519 17.9725059,15.0591609 17.94283,15.030876 C17.9163998,15.0072279 17.9293831,14.9492671 17.8904334,14.9469486 C17.8204166,14.9395296 17.8686401,14.9831162 17.8477742,15.0197475 C17.8259809,15.054524 17.714696,15.0814179 17.6929027,15.0364402 C17.6692547,14.9868257 17.7355619,14.9372112 17.7735842,14.9214459 C17.8106792,14.9042894 17.8528747,14.8848146 17.8927518,14.8848146 C17.9108356,14.8838872 17.9247462,14.8885241 17.94283,14.8769319 C17.9544222,14.8662671 17.9636959,14.8194347 17.9952266,14.8120157 C18.0151651,14.8073789 18.0360311,14.7707476 18.0063551,14.7591554 C17.9896624,14.7512727 17.9618411,14.7665744 17.9446847,14.7688929 C17.9247462,14.7707476 17.9020255,14.7651834 17.8830144,14.7693565 C17.8366457,14.7832671 17.8324725,14.8217532 17.8106792,14.8546749 C17.7907407,14.8848146 17.744372,14.9075352 17.7100591,14.9154179 C17.6585899,14.9233006 17.6483888,14.8736861 17.6075843,14.8556023 C17.5514782,14.8277811 17.5630704,14.8973341 17.5514782,14.9274738 C17.5380313,14.9673509 17.4907352,14.9682782 17.4592045,14.9854347 C17.4202548,15.0002726 17.3993889,15.0364402 17.3687855,15.0614793 C17.2922772,15.1310324 17.1953666,15.1212949 17.1049477,15.1477251 C17.0270483,15.1736916 17.0534784,15.1769374 17.0173108,15.2029038 C16.9491489,15.2511273 16.8652215,15.1736916 16.7905679,15.2038312 C16.7836126,15.2061496 16.7506908,15.2376804 16.7326071,15.2413898 C16.707568,15.2497362 16.707568,15.2242334 16.6867021,15.2242334 C16.5735624,15.2195966 16.5336854,15.2029038 16.5128194,15.2061496 C16.4785066,15.2131049 16.4511491,15.2353619 16.4312105,15.2645742 C16.3996798,15.3151161 16.2990598,15.3503563 16.2726296,15.3503563 C16.2429536,15.3489652 16.2230151,15.3188256 16.2030766,15.2961049 C16.1775738,15.2696747 16.1548531,15.2780211 16.1251772,15.2993507 C16.0917917,15.3229987 16.0917917,15.3758591 16.0709258,15.3855965 C16.0500599,15.3953339 16.0092554,15.3962613 16.0148197,15.3642669 C16.0227023,15.3457194 16.0370766,15.3345909 16.045423,15.3188256 C16.0500599,15.3016691 16.0426409,15.2891496 16.0227023,15.2891496 C16.0092554,15.2910043 15.9781884,15.3165071 15.9665962,15.3229987 C15.9322834,15.3345909 15.8822052,15.3322725 15.8497471,15.3253172 C15.8316633,15.3188256 15.8145069,15.3141887 15.7973505,15.3081608 C15.7839036,15.3016691 15.769993,15.2910043 15.7556187,15.2910043 C15.7273338,15.2919317 15.7213058,15.3253172 15.6930209,15.3299541 C15.6679818,15.3369094 15.6378422,15.328563 15.610021,15.3229987 C15.5891551,15.3151161 15.5590154,15.304915 15.5362947,15.3095518 L15.4801886,15.3591663 C15.444021,15.3665853 15.4013618,15.3577753 15.3624121,15.3577753 C15.337373,15.3568479 15.1189765,15.3642669 15.0364402,15.3781775 C14.8899151,15.4050713 14.7512727,15.4611775 14.6038203,15.4792612 C14.4596137,15.495954 13.7974687,15.5265573 13.705195,15.5223841 C13.6101392,15.5205294 13.1909662,15.5043003 13.1464522,15.549278 C13.1381059,15.5590154 13.04305,15.549278 13.0249663,15.5478869 C12.989726,15.5455685 12.9878713,15.495954 12.957268,15.4848255 C12.8673127,15.4458758 12.9382568,15.5386132 12.8302177,15.4658143 C12.7588099,15.4161998 12.6628268,15.436602 12.5450503,15.4417026 C12.3530839,15.4449484 12.0317488,15.3930155 11.9645142,15.3855965 C11.8467377,15.3693674 11.7257154,15.3188256 11.6584808,15.2413898 C11.5986652,15.1736916 11.5017546,15.1551441 11.4883077,15.0605519 C11.4600228,14.8277811 11.547196,14.4767701 11.5643524,14.3770774 C11.5880004,14.2778484 11.6148943,13.9106083 11.6487434,13.8851055 C11.6668272,13.8679491 11.6487434,13.8558933 11.6668272,13.8387368 C11.7971232,13.7098319 11.7507545,13.7056587 11.7762573,13.5753627 C11.8170618,13.3565024 11.9028439,13.0314579 12.1504527,12.9711786 C12.2696202,12.9415026 12.4119721,12.8700948 12.4945084,12.8394915 C12.5923463,12.8056423 12.789877,12.8329999 12.9428937,12.7648379 C12.9762791,12.7490725 12.9999272,12.7309887 13.0388769,12.7258882 C13.1863293,12.7101228 13.3356365,12.7546368 13.4835526,12.736553 C13.6263682,12.7184692 13.7877313,12.7064133 13.8201894,12.7110502 C13.8762955,12.7235697 13.8336363,12.6618994 13.8554296,12.6516983 C13.9245189,12.6275865 13.9226642,12.7161507 14.0061278,12.736553 C14.0650161,12.7537094 14.3112338,12.7648379 14.3742953,12.7648379 C14.3928427,12.7648379 14.3780048,12.7342345 14.390988,12.7198602 C14.4341109,12.6739552 14.4767701,12.7629831 14.5022729,12.783849 C14.565798,12.8362457 15.6424791,12.9558769 15.7175963,12.9721059 C15.8390823,12.9976087 16.0189929,12.9892624 16.1678364,12.9159998 C16.2355347,12.8858602 16.4618139,12.783849 16.5072552,12.7356256 C16.5234842,12.7161507 16.4938083,12.6864748 16.5081826,12.668391 C16.548987,12.6206312 16.5976742,12.5292849 16.5768082,12.4231006 C16.5726351,12.3892515 16.5888641,12.355866 16.5976742,12.3257263 C16.6152943,12.2747208 16.5842272,12.2404079 16.5897915,12.1898661 C16.5944283,12.1472069 16.6004563,12.0897097 16.6343054,12.058179 C16.6894842,12.0020729 16.6955121,11.9283466 16.6723278,11.8847601 C16.6259591,11.8008327 16.5480597,11.7646651 16.5290485,11.7512182 C16.4873167,11.7266428 16.5290485,11.7526093 16.5336854,11.6988216 C16.5336854,11.6723914 16.4530038,11.6844473 16.4530038,11.6844473 C16.4530038,11.6844473 16.297205,11.6770283 16.243881,11.6584808 C16.0978196,11.6056205 15.9531493,11.5907825 15.7992052,11.5884641 C15.5553059,11.5861457 15.3225351,11.487844 15.0828089,11.5087099 C15.0429318,11.5110284 14.9548313,11.5365312 14.9367475,11.5342127 C14.8968704,11.5281848 14.9344291,11.4628049 14.7902224,11.4674418 C14.6552895,11.4697602 14.5147924,11.4382295 14.3854237,11.4043804 C14.2676473,11.3719223 13.9245189,11.3923245 13.8855692,11.3719223 C13.8628486,11.3594028 13.835491,11.3645033 13.8095246,11.3547659 C13.758519,11.3380732 13.7367257,11.2662017 13.6319325,11.2624922 C13.6101392,11.2624922 13.591128,11.2235425 13.5684074,11.2235425 C13.5285303,11.2226151 13.4580499,11.2416263 13.4353292,11.2235425 C13.3898879,11.1873749 13.2906589,11.1683637 13.2739661,11.1002018 C13.2452176,10.9717605 13.4942174,10.8201348 13.5758263,10.7570734 C13.6500163,10.7023584 13.7376531,10.6105483 13.8382732,10.61704 C13.8990161,10.6212131 13.927301,10.5785539 13.9671781,10.5326489 C14.0538876,10.4311015 14.3882059,9.98735308 14.4948539,9.90342575 C14.6098482,9.81347048 14.521284,9.70404036 14.665027,9.59136443 C14.7113957,9.55937004 14.7675018,9.4114539 14.7855856,9.38224162 C14.8574571,9.25287297 14.8319543,9.03540379 14.9631777,8.94359377 C14.971524,8.93849322 14.9965631,8.89722508 15.0174291,8.84761058 C15.0364402,8.80124188 14.9914626,8.75997374 14.9812615,8.74328101 C14.9594682,8.70572237 14.9733788,8.65378943 14.971524,8.60834811 C14.9687419,8.57728109 14.9594682,8.28747675 14.9594682,8.23044325 C14.9641051,8.14327011 15.0012,8.1010746 15.0865184,8.1080299 C15.1472614,8.11266677 15.0874458,7.97727018 15.0772447,7.93600204 C15.0517419,7.81961662 14.940457,7.66196306 14.7619375,7.64527033 C14.5528147,7.62533179 14.390988,7.7778848 14.2579098,7.92672831 C14.1698093,8.026421 13.927301,8.37696833 13.8864966,8.40247111 C13.8174072,8.44513031 13.8809324,8.47666102 13.8002508,8.58191796 C13.7724296,8.61483973 13.7204967,8.60602968 13.6954576,8.63802408 C13.6681,8.68068328 13.6055023,8.78315809 13.6055023,8.83462734 C13.6082844,8.87311336 13.6217314,8.91113569 13.5892733,8.93617478 C13.4942174,9.01129207 13.4761337,8.91113569 13.4353292,8.93617478 C13.4010164,8.95889544 13.3857147,9.00016358 13.3694857,9.0136105 C13.2679382,9.10124733 13.2452176,9.13509648 13.1399606,9.15828083 C13.0796813,9.169873 12.9554132,9.18285624 12.9173909,9.24962716 C12.8918881,9.29645954 12.7597373,9.3048059 12.7597373,9.2125322 C12.7588099,9.1485434 12.8214077,8.91901837 12.8278993,8.89583402 C12.8631395,8.78223072 12.677201,8.71314136 12.7662289,8.59768331 C12.8149161,8.53601295 12.8070334,8.47156047 12.7680837,8.4098901 C12.7532457,8.38345995 12.7226424,8.26197397 12.7036312,8.23786225 C12.6493798,8.16970026 12.7244971,8.14837067 12.6628268,8.05609696 C12.6266592,7.99999084 12.5733352,8.09458298 12.5640614,7.95640427 C12.5571061,7.87154956 12.4736425,7.84604678 12.4300559,7.80756076 C12.3730224,7.7528457 12.3104247,7.69813064 12.2445811,7.6536167 C12.0706985,7.53073966 11.8750226,7.44634863 11.6696093,7.39905256 C11.4600228,7.35129281 11.2439447,7.33830957 11.0334308,7.37586822 C10.9791795,7.38560564 10.8952521,7.38189615 10.8952521,7.32996321 C10.8952521,7.31373417 10.8743862,7.31280679 10.861403,7.30446043 C10.8205985,7.27756658 10.7338891,7.31512523 10.6912299,7.33320902 C10.5581517,7.38560564 10.6884477,7.44727601 10.6161126,7.46906929 C10.5127104,7.50199107 10.2655653,7.57618098 10.197867,7.5965832 C10.1686547,7.60585694 10.1171854,7.62069492 10.0420681,7.62069492 C9.97297879,7.62069492 9.96880561,7.68143791 9.88163246,7.72131499 C9.71516885,7.79782334 9.75411855,8.18685668 9.76478335,8.28515831 C9.76571073,8.30231473 9.77498446,8.3496108 9.81022467,8.33848231 C9.84546488,8.32596276 9.88812408,8.37372252 9.88163246,8.45718617 C9.87699559,8.54111351 9.87699559,8.58330902 9.84546488,8.68485646 C9.8162526,8.78547653 9.88255984,8.73029778 9.87699559,8.82720835 C9.87096766,8.89954351 9.96880561,9.15549871 9.95582237,9.2269065 C9.95304025,9.24869978 9.97576091,9.27559363 9.98596202,9.29506848 C9.99291733,9.31222489 10.0068279,9.3154707 10.0249117,9.31778914 C10.0708167,9.32381707 10.0661799,9.41933658 10.1037385,9.50882816 C10.1278502,9.5714259 10.1468614,9.65628061 10.1997217,9.69986718 C10.2358893,9.72629734 10.2386714,9.7629286 10.2567552,9.78564926 C10.2808669,9.8199621 10.2966323,9.84407382 10.2790122,9.86725817 C10.2586099,9.89507938 10.177001,9.95906818 10.1468614,9.94701232 C10.0963195,9.92892853 9.954895,9.91872742 9.90806262,9.90342575 C9.81300679,9.87096766 9.69523031,9.9266101 9.66787278,9.89878888 C9.63819682,9.86725817 9.58811863,9.86725817 9.54545943,9.85149281 C9.50558235,9.83711851 9.50048179,9.88766039 9.48054326,9.88116877 C9.43510193,9.8695766 9.42629188,9.83711851 9.39800698,9.80883361 C9.33262712,9.73881688 9.24499029,9.73510739 9.15086184,9.69986718 C9.03401273,9.65396217 8.91159937,9.61269403 8.80958825,9.54082256 C8.69691232,9.4610684 8.32039852,9.32149863 8.3032421,9.28069418 C8.28237619,9.22226963 8.16274496,9.24730872 8.15810809,9.23293443 C8.14837067,9.19212998 8.04125898,9.18100149 8.03754949,9.15086184 C8.0333763,9.10820264 7.95918639,9.11701269 7.92719199,9.09336466 C7.9021529,9.07667193 7.84048253,9.04143172 7.80848814,9.0562697 C7.77510268,9.07528087 7.72827029,9.09568309 7.69163903,9.06832556 C7.67262786,9.05116915 7.65547144,9.03540379 7.62765023,9.02983955 C7.55067819,9.00758257 7.49967263,9.03818591 7.44356651,9.08316354 C7.37586822,9.13602386 7.31141573,9.19305735 7.25438224,9.25611877 C7.22099678,9.29738691 7.20894092,9.34700142 7.18575657,9.39337011 C7.16489066,9.43556562 7.1277957,9.4610684 7.10414767,9.50094548 C7.07771751,9.55241473 7.08699125,9.60527504 7.14402474,9.62011303 C7.21079566,9.63402363 7.1528348,9.68781132 7.19734874,9.71145935 C7.27061128,9.74948168 7.29704144,9.88766039 7.38653302,9.97529722 C7.49457207,10.0791631 7.52981228,10.2368167 7.56505249,10.3026602 C7.61142118,10.3972523 7.78437641,10.3230624 7.81590713,10.4408389 C7.82935405,10.4876713 7.92904674,10.5762355 8.11034834,10.7362075 C8.17619188,10.7909226 8.45347667,10.9411571 8.56012467,10.9536767 C8.84575583,10.9861348 8.97048762,11.1173582 9.08548198,11.1989671 C9.13973335,11.234671 9.24035342,11.2045313 9.36740364,11.4424027 C9.41609077,11.5314306 9.44066618,11.8370003 9.46709633,11.990017 C9.51856558,12.3210895 9.64886162,12.2700839 9.58719125,12.3864693 C9.51114659,12.5357765 9.64886162,12.7101228 9.64793424,13.0894187 C9.64515212,13.1779829 9.60202923,13.3235806 9.55566054,13.4316197 C9.46709633,13.6476978 9.61269403,13.9245189 9.57374433,14.0135468 C9.52134771,14.1354965 9.49769967,14.6084572 9.39058799,14.7058314 C9.34468298,14.7466359 9.26307408,14.7355074 9.20604058,14.7104683 C9.10449314,14.6678091 8.79196814,14.7466359 8.71685086,14.6803286 C8.57913584,14.5555969 8.41545434,14.5722896 8.3139069,14.5602337 C8.22719745,14.5477142 8.11034834,14.4776974 8.0440411,14.4457031 C7.90632608,14.3770774 7.34294644,14.1739825 7.13475101,14.0668708 C6.61866744,13.7951503 5.90783535,13.4923627 5.85404767,13.2132232 C5.83457282,13.096374 5.05650612,12.5997653 4.93780227,12.4277375 C4.87242241,12.3350001 4.73378001,12.188475 4.71152304,12.1472069 C4.68045601,12.0841454 4.66515434,11.9464304 4.62249514,11.8861511 C4.52187508,11.7479724 4.39714329,11.730816 4.34474666,11.4651234 C4.32759025,11.3645033 4.25757352,11.4187547 4.14907077,11.1437883 C3.86900386,10.434811 3.90331669,9.61593984 3.91444518,9.30805171 C3.92418261,9.04375015 4.15370764,8.4632141 4.22047856,8.25780078 C4.26313776,8.13585112 4.41429971,8.05748802 4.44397567,7.84280097 C4.45417678,7.77556636 4.78478557,7.55160557 4.90163468,7.35778443 C5.0041095,7.18900238 5.23038873,6.98915331 5.39314284,6.88528743 C5.48402549,6.82825394 6.70027634,5.9347292 6.80785171,5.80814266 C6.84680141,5.75991922 6.96179578,5.5865003 7.21450516,5.58139974 C7.27432078,5.58047237 7.4083263,5.49237185 7.41481792,5.44322103 C7.43382908,5.30782445 8.68810227,5.00781899 8.88563291,4.79174088 C8.94683958,4.72496996 9.32381707,4.61878565 9.51207397,4.58215438 C9.56539797,4.56870746 9.55287842,4.63547838 9.67529177,4.52419351 C9.7666381,4.4393388 9.96787823,4.57844488 10.0819452,4.46345052 C10.2284703,4.31785282 10.2711295,4.28632211 10.5646433,4.29003161 C10.855375,4.2937411 10.8108611,4.1411881 11.0427046,4.12495905 C11.1669727,4.11568531 11.3686765,4.04845071 11.4349837,3.92557367 C11.4855256,3.83376365 12.0261846,3.78554021 12.1332963,3.70439499 C12.3938883,3.51011017 12.5867821,3.72479722 12.903944,3.65941736 C12.9428937,3.65246206 13.0796813,3.69743969 13.1529439,3.69094807 C13.2280611,3.68352908 13.3495471,3.57502634 13.3945247,3.67518272 C13.4200275,3.73453465 13.9115357,3.70578606 14.033949,3.69929444 C14.0691893,3.69836706 14.1489434,3.64967994 14.1401334,3.68352908 C14.1262227,3.74195364 14.451731,3.71552348 14.5129377,3.76745642 C14.5991834,3.83608209 14.7285521,3.90841725 14.8954794,3.85833906 C14.9947084,3.83098153 15.35963,3.88755134 15.4940992,3.93484741 C15.5873003,3.96637812 15.4231551,4.02109318 15.769993,4.03546747 C15.992099,4.04242278 16.7627467,4.5033276 16.9241098,4.53253988 C17.119322,4.54459574 17.1703275,4.74398112 17.3687855,4.81863472 C17.7253608,4.95356762 18.1584444,5.25728257 19.0468686,5.95003086 C19.0899915,5.98156158 19.1354328,6.13411458 19.1818015,6.13318721 C19.4099355,6.12391347 19.6255499,6.54957808 19.7206057,6.67291881 C19.7521364,6.70676796 19.8991252,6.616349 19.8815051,6.87879581 C19.8791867,6.91774552 19.9960358,6.86071202 19.9992816,7.04201362 C20.0039184,7.24742693 20.3679127,7.36381236 20.457868,7.80756076 C20.4648233,7.85161102 20.5181473,7.8877786 20.5376221,7.92765568 C20.6016109,8.08901874 20.8455103,8.83462734 20.8408734,9.10634789 C20.839946,9.18795679 20.885851,9.68085601 20.8116611,10.0439229 C20.7439628,10.3675764 20.6234042,10.6796377 20.5000635,10.9875258 C20.4268009,11.1762464 20.2492088,11.4294195 20.2357619,11.4966541 C20.2250971,11.5611066 20.1796558,11.6288049 20.1921753,11.6978942 C20.2023765,11.7424082 20.2033038,11.8096428 20.1532256,11.8263355 C20.0980469,11.8467377 20.016438,11.8893969 20.0094827,11.96776 C20.0057732,12.0155198 19.8954157,12.0187656 19.9000526,12.0739443 C19.9079352,12.14257 19.7813487,12.1379331 19.7730023,12.2098046 C19.7683655,12.2543186 19.665427,12.2946593 19.6844381,12.3549386 C19.6951029,12.3915699 19.6399242,12.3924973 19.6000471,12.4096537 C19.5420863,12.4277375 19.4396114,12.5909553 19.4396114,12.6206312 C19.4405388,12.6516983 19.3784048,12.631296 19.3700584,12.7333072 C19.3644942,12.7963686 19.300969,12.7996144 19.2657288,12.852011 C19.2323434,12.8988434 19.1924663,12.9118266 19.1859747,12.9211004 C19.1660361,12.9535585 19.1600082,13.0115193 19.1646451,13.0615975 C19.1660361,13.1051841 19.0886004,13.2433628 19.1799467,13.240117 C19.2179691,13.2377986 19.2323434,13.1909662 19.2578462,13.1673181 C19.2967959,13.133469 19.3473377,13.1005472 19.3964886,13.0782903 C19.4558405,13.0486143 19.5328125,13.0337763 19.5685164,12.9670054 C19.5838181,12.9377931 19.6236952,12.8626758 19.665427,12.8561842 C19.6807286,12.8543295 19.6951029,12.8575753 19.711332,12.8496926 C19.7266337,12.844592 19.7405443,12.8278993 19.7512091,12.8158434 C19.7776392,12.7815306 19.8054604,12.7425809 19.8337453,12.7101228 C19.849047,12.6897206 19.8944883,12.7101228 19.9051531,12.6799832 C19.9153542,12.6591173 19.8944883,12.6479888 19.9195274,12.6363966 C19.9380749,12.6261955 19.9594045,12.6261955 19.9770246,12.6155307 C19.9951084,12.6057933 20.0057732,12.5877095 20.0210749,12.5751899 C20.0512145,12.5496871 20.0873821,12.5316033 20.1235497,12.5571061 C20.1778011,12.5909553 19.9992816,12.737944 19.9876894,12.7537094 C19.9450302,12.7996144 19.933438,12.8663853 19.8898515,12.9146088 C19.8583207,12.9535585 19.8226169,12.9920445 19.7873766,13.0277484 C19.7730023,13.0388769 19.7549186,13.0486143 19.7433264,13.0615975 C19.7303432,13.0782903 19.7206057,13.096374 19.7141141,13.1121394 C19.6951029,13.140888 19.665427,13.1561897 19.6436337,13.1803014 C19.6190583,13.2044131 19.6083935,13.2354801 19.5893823,13.2628377 C19.5555332,13.3003963 19.5374494,13.3268265 19.5536784,13.3806141 C19.5638795,13.4121449 19.5875276,13.4255918 19.6190583,13.4098264 C19.6482706,13.3963795 19.658008,13.3657762 19.6733097,13.339346 C19.6862929,13.3101337 19.7015946,13.2883404 19.7266337,13.2693293 C19.7521364,13.2493907 19.7804213,13.2377986 19.8063878,13.2220332 C19.8291085,13.2109047 19.8420917,13.1863293 19.8546113,13.1654634 C19.8898515,13.1121394 19.933438,13.0615975 19.9723877,13.0133741 C19.9960358,12.9850892 20.016438,12.9503127 20.0512145,12.9354747 C20.0711531,12.9299104 20.0961921,12.9299104 20.1063933,12.9062624 C20.1161307,12.8858602 20.1063933,12.8483015 20.137924,12.8459831 C20.1671363,12.844592 20.1643541,12.8821507 20.1671363,12.9002345 C20.1731642,12.9257372 20.1805832,12.9308378 20.2033038,12.9308378 C20.238544,12.9322289 20.2501362,12.9159998 20.2640468,12.8881786 C20.2747116,12.8626758 20.2974323,12.8302177 20.3201529,12.8176982 C20.3470468,12.8033239 20.3725496,12.7949775 20.3980523,12.7736479 C20.4351473,12.737944 20.4703875,12.7078044 20.503773,12.6716368 C20.5255663,12.6470614 20.551069,12.6229497 20.5747171,12.5960558 C20.5928009,12.5751899 20.6108847,12.5431955 20.6387059,12.5302123 C20.657717,12.5223296 20.6739461,12.5343855 20.6920299,12.5357765 C20.7115047,12.5390223 20.7105773,12.5316033 20.7175327,12.5144469 C20.7249516,12.5042458 20.7346891,12.4884805 20.7499907,12.4884805 C20.7856946,12.4884805 20.7847673,12.5390223 20.7847673,12.5645251 C20.7847673,12.5751899 20.779203,12.5951285 20.7889404,12.6057933 C20.7963594,12.6178491 20.8190801,12.6141396 20.8315996,12.6132122 C20.8598845,12.6081117 20.8751862,12.6081117 20.8659125,12.6410335 C20.863594,12.6581899 20.8464376,12.6748826 20.8353091,12.6864748 C20.8000689,12.7221787 20.7639013,12.7537094 20.7328343,12.7940502 C20.71846,12.8098155 20.7013036,12.8265082 20.6897114,12.8422736 C20.6461249,12.8955976 20.6016109,12.9466032 20.5580243,13.0008545 C20.5209294,13.0435137 20.4856892,13.0880277 20.4467395,13.1292958 C20.4286557,13.1547986 20.4087171,13.1826198 20.3832144,13.201631 C20.3516837,13.2266701 20.3419462,13.2544913 20.3210803,13.2883404 C20.2974323,13.331927 20.2612647,13.3565024 20.231125,13.3903516 C20.2130413,13.4107538 20.2176781,13.4353292 20.2102591,13.4594409 C20.2033038,13.4858711 20.1889295,13.4979269 20.1699184,13.5197202 C20.1281865,13.568871 20.0901642,13.6240498 20.077181,13.6861838 C20.0702257,13.7140051 20.0711531,13.7650106 20.1091754,13.7344073 C20.1309687,13.7163235 20.1369966,13.6894296 20.1597173,13.6727369 C20.1796558,13.65929 20.2051586,13.6578989 20.2301977,13.6495526 C20.2640468,13.6388878 20.2937228,13.6157034 20.3099518,13.5841727 C20.3229351,13.5572789 20.3201529,13.5127649 20.3410189,13.4942174 C20.3563205,13.4798431 20.3915607,13.4826253 20.413354,13.4742789 C20.4397842,13.4677873 20.4703875,13.4594409 20.497745,13.4510946 C20.5246389,13.4469214 20.557097,13.445994 20.580745,13.4316197 C20.5816724,13.4288376 20.5853819,13.4265191 20.588164,13.4255918 C20.5918735,13.4200275 20.5960467,13.4158543 20.596974,13.4098264 C20.6016109,13.3996253 20.6071752,13.385251 20.6062478,13.3745862 C20.6016109,13.3597482 20.5900187,13.3565024 20.6016109,13.3439829 C20.6108847,13.331927 20.6187673,13.3212622 20.6234042,13.3064242 C20.6261863,13.2841673 20.6108847,13.2674745 20.5946556,13.2568097 C20.571935,13.2424354 20.5357674,13.2220332 20.5311305,13.1909662 C20.5292758,13.1747371 20.5417953,13.1612902 20.551069,13.1455249 C20.557097,13.133469 20.5626612,13.1177036 20.564516,13.1005472 C20.564516,13.0894187 20.5626612,13.0782903 20.564516,13.0680891 C20.5672981,13.0541785 20.571935,13.0435137 20.5788903,13.0347037 C20.5863092,13.0254299 20.5988288,13.0059551 20.6108847,13.0022456 C20.6424154,12.9920445 20.6535439,13.0337763 20.6832198,13.0388769 C20.7077952,13.0411953 20.7286611,13.0435137 20.7499907,13.0435137 C20.7782756,13.0435137 20.8037784,13.0486143 20.8288175,13.0435137 C20.8464376,13.0411953 20.8724041,13.0388769 20.8816778,13.0217204 C20.8886331,13.0143015 20.8914153,13.0008545 20.8886331,12.9892624 C20.885851,12.966078 20.8571024,12.95124 20.8571024,12.9322289 C20.8533929,12.912754 20.8659125,12.8872512 20.877041,12.8724132 C20.8914153,12.8496926 20.9132085,12.8422736 20.9359292,12.8496926 C20.9827616,12.8626758 21.0337671,12.9187819 21.0852364,12.9002345 C21.1051749,12.8918881 21.1116666,12.8691674 21.1005381,12.8483015 C21.0972923,12.8394915 21.0852364,12.8339272 21.0787448,12.8241898 C21.0717895,12.8176982 21.06808,12.8098155 21.0634431,12.7996144 C21.0481414,12.7648379 21.0671526,12.7309887 21.0880185,12.7022401 C21.1079571,12.6790558 21.1367057,12.6456703 21.1677727,12.6363966 C21.1830743,12.631296 21.1993034,12.6206312 21.2164598,12.6206312 L21.2275883,12.6206312 C21.2484542,12.6206312 21.2600464,12.6456703 21.2619011,12.6651452 C21.2646832,12.6864748 21.2581916,12.7087318 21.2475268,12.7282066 C21.2312978,12.7588099 21.1993034,12.7940502 21.229443,12.8241898 C21.2581916,12.8483015 21.2943592,12.8483015 21.3282084,12.8422736 C21.34351,12.8422736 21.3560296,12.8394915 21.3704039,12.8394915 C21.3843145,12.8394915 21.4014709,12.8362457 21.4130631,12.8394915 C21.4311469,12.8483015 21.4455212,12.8821507 21.4394932,12.9016255 C21.4311469,12.9340836 21.4051804,12.9558769 21.389415,12.9850892 C21.3704039,13.0156925 21.3333089,13.0398042 21.3027056,13.0592791 C21.2846218,13.0685528 21.2600464,13.0736534 21.2391805,13.0782903 C21.2076498,13.0894187 21.1830743,13.0996199 21.1724095,13.1292958 C21.1622084,13.1612902 21.1784375,13.1747371 21.2076498,13.1779829 C21.2438173,13.1844746 21.2781302,13.2044131 21.2781302,13.2433628 C21.2781302,13.3101337 21.222024,13.346765 21.1677727,13.3745862 C21.145052,13.3875694 21.1195492,13.3996253 21.1005381,13.4167817 C21.0898733,13.4255918 21.0805995,13.4353292 21.0764263,13.4469214 C21.0717895,13.4510946 21.0555604,13.4858711 21.0546331,13.4858711 C21.0300577,13.4942174 21.0091917,13.4603683 20.9901806,13.4497035 C20.9795158,13.4436756 20.9683873,13.4413571 20.9586499,13.4469214 C20.9512309,13.4510946 20.9493761,13.4580499 20.9438119,13.4654689 C20.9359292,13.4714968 20.9234097,13.4742789 20.9187728,13.4858711 C20.9159907,13.4942174 20.9159907,13.5095191 20.9159907,13.5197202 C20.9159907,13.5391951 20.9159907,13.5646979 20.9113538,13.5855638 C20.9048622,13.598547 20.8914153,13.620804 20.8960521,13.6365693 C20.9016164,13.6634632 20.9447393,13.6481615 20.9567951,13.6388878 C20.9748789,13.6263682 20.9795158,13.605966 20.9948174,13.5962286 C21.0193929,13.5753627 21.0472141,13.6314688 21.0435046,13.6504799 C21.038404,13.6704185 21.0193929,13.6773738 21.0138286,13.6931391 C21.0045549,13.7121503 21.0226387,13.7269883 21.038404,13.7334799 C21.06808,13.7408989 21.1404151,13.7028766 21.1394878,13.6704185 L21.1394878,13.6657816 C21.1316051,13.6421336 21.1005381,13.6082844 21.1413425,13.598547 C21.1622084,13.5939101 21.1784375,13.6082844 21.1942028,13.6194129 C21.205795,13.6291503 21.222024,13.6476978 21.2391805,13.6476978 C21.2600464,13.6476978 21.2772028,13.6119939 21.290186,13.598547 C21.312443,13.5730442 21.3407279,13.5535694 21.3694765,13.5368766 C21.4093536,13.5118375 21.4654597,13.5016364 21.4983815,13.4668599 C21.5317669,13.4255918 21.5600518,13.3648488 21.5744261,13.3101337 C21.5809177,13.2883404 21.587873,13.2558824 21.6050295,13.2387259 C21.6495434,13.1960667 21.7190965,13.216469 21.7571188,13.1728824 C21.7770573,13.1561897 21.7872584,13.1357874 21.7928227,13.1153852 C21.7988506,13.0940556 21.8081243,13.0782903 21.8197165,13.0615975 C21.8350182,13.0411953 21.8280629,13.0217204 21.8289903,12.9976087 C21.8289903,12.9762791 21.8415098,12.95124 21.8577388,12.9377931 C21.8804595,12.9220278 21.8985433,12.9220278 21.9194092,12.9368657 C21.9527947,12.9623685 22.005655,12.9257372 22.0362583,12.9503127 C22.0687164,12.9762791 22.027912,13.0314579 22.0038002,13.0518601 C21.9240461,13.111212 21.9412025,13.2197148 21.8651578,13.2776756 C21.8387277,13.2980779 21.7988506,13.3003963 21.7738115,13.3235806 C21.7399624,13.3606756 21.7529456,13.4279102 21.7200238,13.4603683 C21.7056495,13.4761337 21.6769009,13.445994 21.6592808,13.4552677 C21.6458339,13.4617594 21.641197,13.4826253 21.641197,13.4942174 C21.641197,13.5039549 21.641197,13.5146197 21.6388786,13.5243571 C21.6314596,13.5401224 21.587873,13.5697984 21.6152306,13.5902006 C21.624968,13.598547 21.6458339,13.598547 21.6592808,13.5999381 C21.6810741,13.6008654 21.685711,13.5962286 21.7010127,13.5818543 C21.7056495,13.5730442 21.7130685,13.5623794 21.7218786,13.5637705 C21.7353255,13.5646979 21.7427445,13.5818543 21.7520182,13.5869548 C21.7571188,13.591128 21.7691746,13.605966 21.7779847,13.598547 C21.7872584,13.5939101 21.7872584,13.5753627 21.7900406,13.5697984 C21.7960685,13.5572789 21.807197,13.5480051 21.8206439,13.5480051 C21.8322361,13.5489325 21.8289903,13.552642 21.8322361,13.561452 C21.8452193,13.5818543 21.8804595,13.5707258 21.8957612,13.560061 C21.9092081,13.552642 21.921264,13.5391951 21.9310014,13.5299213 C21.9565042,13.5016364 21.9736606,13.4691783 21.9917444,13.4436756 C22.0163198,13.4158543 22.0390404,13.3875694 22.0714985,13.3745862 C22.0895823,13.3671672 22.1095209,13.3694857 22.1294594,13.3606756 C22.1531074,13.3514019 22.1711912,13.3342454 22.189275,13.3184801 C22.2217331,13.2883404 22.2634649,13.2799941 22.3005599,13.2493907 C22.3177163,13.2354801 22.3557386,13.2044131 22.3603755,13.2470723 C22.3622302,13.2558824 22.3557386,13.2660835 22.3575934,13.2702566 C22.3603755,13.2799941 22.3677945,13.2841673 22.3677945,13.2948321 C22.3650124,13.3365639 22.2926772,13.3514019 22.2769118,13.3875694 C22.2727387,13.4042622 22.2806213,13.4200275 22.2769118,13.4339381 C22.2718113,13.4835526 22.2245152,13.4714968 22.1911298,13.4923627 C22.1503253,13.5197202 22.1178672,13.568871 22.0960739,13.6119939 C22.0840181,13.6337872 22.0858728,13.6365693 22.0970013,13.65929 C22.1039566,13.6704185 22.1248225,13.6861838 22.1178672,13.7005581 C22.1095209,13.7140051 22.0789175,13.6982397 22.0668617,13.7005581 C22.0251298,13.7075134 22.0427499,13.7478542 22.0362583,13.7719659 C22.027912,13.8002508 21.9917444,13.7524911 21.9810796,13.804424 C21.9736606,13.8313178 21.9773701,13.8614575 21.9667053,13.8883513 C21.9527947,13.9189547 21.9166271,13.9393569 21.8897332,13.9541949 C21.8804595,13.9565133 21.8730405,13.9574407 21.8642305,13.9625413 C21.8577388,13.9648597 21.8489288,13.9722787 21.8424372,13.980625 C21.8350182,13.9903625 21.8387277,14.0075189 21.8322361,14.0200384 C21.8289903,14.0307032 21.8206439,14.0390496 21.8132249,14.0460049 C21.7988506,14.0594518 21.7779847,14.0761446 21.7738115,14.0956194 C21.7691746,14.10953 21.7738115,14.1137032 21.7881858,14.1150943 C21.7969959,14.1174127 21.807197,14.1123121 21.8132249,14.108139 C21.8169344,14.1072116 21.8197165,14.1039658 21.8243534,14.1030384 C21.8289903,14.0993289 21.8350182,14.0993289 21.8387277,14.0965468 C21.8452193,14.093301 21.8507835,14.0914462 21.8577388,14.085882 C21.8688673,14.0798541 21.8804595,14.0738261 21.8929791,14.0668708 C21.9068897,14.0594518 21.9240461,14.0534239 21.9365656,14.0436865 C21.9917444,14.0019546 22.0418226,13.9565133 22.0895823,13.9055078 C22.1396605,13.8545022 22.1758281,13.7877313 22.22637,13.7367257 C22.2463085,13.7140051 22.2769118,13.6838654 22.3070515,13.6750553 C22.3650124,13.65929 22.3469286,13.7186419 22.3242079,13.7450721 C22.3126157,13.7575916 22.3126157,13.774748 22.3005599,13.7863402 C22.2908225,13.7951503 22.2769118,13.7951503 22.2671744,13.8025693 C22.2518728,13.811843 22.2398169,13.835491 22.2291521,13.8494016 C22.2110683,13.8851055 22.1939119,13.9245189 22.1637722,13.9514128 C22.1405879,13.9681055 22.1141577,13.9759882 22.0970013,13.9996362 C22.0789175,14.0232842 22.0687164,14.0538876 22.0571242,14.0826362 C22.0469231,14.1053568 22.0390404,14.1299322 22.0733533,14.1345691 C22.1187946,14.1419881 22.1220404,14.1053568 22.1447611,14.0798541 C22.1646996,14.0534239 22.212923,14.0520328 22.2407443,14.033949 C22.2718113,14.0135468 22.2727387,13.9894351 22.2824761,13.9583681 C22.287113,13.9444575 22.3135431,13.8999435 22.3297722,13.9017983 C22.3334817,13.8660944 22.3631576,13.8716586 22.3830962,13.8480106 C22.393761,13.835491 22.3849509,13.8299268 22.4048894,13.8243625 C22.4345654,13.811843 22.4837162,13.8025693 22.4790794,13.8494016 C22.4753699,13.8790776 22.4466213,13.9041167 22.4285375,13.9245189 C22.3784593,13.9894351 22.3297722,14.0446138 22.2926772,14.1137032 C22.2518728,14.1818652 22.2671744,14.2555914 22.2245152,14.322826 C22.2008672,14.353893 22.1795376,14.3951612 22.1503253,14.4197366 C22.1220404,14.4433846 22.0858728,14.4559042 22.0617611,14.4818706 C22.0362583,14.5078371 22.014465,14.5402952 21.9954539,14.5690438 C21.9648505,14.6154125 21.921264,14.6390605 21.8748953,14.6719823 C21.8577388,14.6849655 21.8424372,14.7016582 21.8289903,14.719742 C21.8109065,14.7457085 21.7779847,14.7665744 21.7571188,14.7930046 C21.7399624,14.8185074 21.7320797,14.8458649 21.7130685,14.8681219 C21.6847836,14.8982615 21.6583535,14.9089263 21.656035,14.9566861 C21.6351691,14.9590045 21.6342417,14.9515855 21.616158,14.9673509 C21.6050295,14.9733788 21.5971468,14.9831162 21.587873,14.9891441 C21.5781356,15.0035184 21.5660798,15.0202112 21.5563423,15.0341218 C21.5489233,15.0401497 21.5234206,15.0647251 21.5271301,15.0730715 C21.5391859,15.1175854 21.6792194,14.9993453 21.6922026,14.9868257 C21.7371802,14.9446302 21.7779847,14.8973341 21.8243534,14.8546749 C21.9365656,14.7457085 22.0478505,14.6316415 22.1549622,14.5161835 C22.2463085,14.4150997 22.340437,14.3098428 22.4257554,14.2036585 C22.4656324,14.1549713 22.5096827,14.1053568 22.5370402,14.0520328 C22.5597609,14.0135468 22.5685709,13.9514128 22.608448,13.9296195 C22.6367329,13.9138541 22.6803195,13.92591 22.7137049,13.9115357 C22.8421462,13.8582117 22.9191183,13.6750553 23.0035093,13.5730442 C23.2460176,13.2883404 23.5488051,12.6057933 23.5738442,12.5316033 C23.5937828,12.4750335 23.6137213,12.3414917 23.7389168,12.3118157 C23.8205257,12.2904861 23.8047603,12.1161398 23.8214531,12.0400952 C23.8455648,11.9390114 23.8566933,11.8286539 23.9197547,11.7479724 C24.0287211,11.6107211 24.0375312,11.3742407 24.0546876,11.2963413 C24.0936373,11.1345146 24.3945701,10.0819452 24.3194528,9.23571655 C24.3032238,9.07203506 24.307397,8.08901874 24.0366038,7.78808591 C23.8608664,7.5965832 24.0537602,7.35639337 23.9471122,7.0498963 C23.9216094,6.97570638 24.0342854,6.94185724 24.0546876,6.86673995 C24.1302686,6.62423168 23.9795703,6.42206417 23.8502016,6.39563402 C23.7389168,6.37430442 23.5900733,6.37430442 23.546023,6.24261733 C23.5288666,6.18651121 23.6248498,5.95652248 23.4987269,5.71633264 C23.4361292,5.60133828 23.3350455,5.33657304 22.5597609,4.73470738 C22.3014873,4.53114882 22.1095209,4.2547914 21.8804595,4.02341161 C21.8081243,3.89218821 21.4061078,3.53236714 21.3017782,3.45817723 C21.229443,3.40763535 21.1153761,3.16605445 20.779203,3.04595953 C20.6688455,3.00608246 19.9181364,2.400971 19.8309632,2.37222241 C19.5114829,2.26882022 18.9606228,1.87283157 18.8618575,1.84825616 C18.3003326,1.71471432 18.0977014,1.39894351 17.8867239,1.37854128 C17.7253608,1.36323962 17.2769755,1.33680946 17.0423499,1.0725079 C16.9101992,0.929228636 16.7265791,0.897697923 16.548987,0.995999556 C16.4358474,1.06045204 16.0788085,0.741435423 15.5710713,0.804496848 C15.4639596,0.817943769 15.3707585,0.62968687 14.9812615,0.67976506 C14.6038203,0.729379563 14.359921,0.483161796 14.2249881,0.43540204 C14.0984015,0.38996072 13.3003963,0.185938465 12.9428937,0.199849073 L12.7198602,0.199849073 C11.9547768,0.099229006 11.2842855,0.099229006 10.5447048,0.199849073 C10.3717496,0.244363019 8.15115279,0.815625334 7.94434841,0.934792879 C7.77324793,1.03494926 7.30585149,1.18425645 7.18900238,1.23850783 C6.94649411,1.35164744 6.00474592,1.65768082 5.97553365,1.76247407 C5.95837723,1.81811651 5.80628791,1.82414444 5.76826558,1.86773101 C5.7464723,1.89462485 5.51277408,2.14269737 5.20488595,2.25676436 C5.0110648,2.32817215 4.08276354,3.00608246 3.91073568,3.15678071 C3.78739496,3.26296502 3.23143431,3.66080842 3.13730586,3.7183056" id="Fill-39"></path>
                            <path d="M14.2924952,4.23021599 C14.3022402,4.29698691 14.2479471,4.36607626 14.2163922,4.4180092 C14.2001507,4.44397567 14.1890136,4.47782482 14.1662755,4.4996181 C14.1491059,4.52002033 14.1203353,4.53346725 14.0948129,4.54830523 C14.0521209,4.57195327 14.0061807,4.58215438 13.966273,4.54830523 C13.9064114,4.49359017 13.9579202,4.44258461 13.9579202,4.37952319 C13.9314697,4.29605954 13.9579202,4.21445063 13.998756,4.1411881 C14.031239,4.08183617 14.0665063,4.00300939 14.128224,3.96405968 C14.1620991,3.94458483 14.1871575,3.90424407 14.2326337,3.93021054 C14.3022402,4.00022727 14.2734695,4.13886966 14.2924952,4.23021599" id="Fill-56"></path>
                            <path d="M13.1828342,4.62805939 C13.2074284,4.68972975 13.2218138,4.76021017 13.2635776,4.81538891 C13.3044134,4.86824922 13.3118381,5.0041095 13.2863158,5.00550056 C13.2199576,5.01060112 13.2338789,5.05975193 13.2037161,5.05975193 C13.1475669,5.05836087 12.9689103,5.05604244 12.9238981,4.93826595 C12.9062645,4.8974615 12.9020881,4.86314867 12.9039443,4.81399785 C12.9081207,4.7662381 12.9192577,4.60904822 12.9136892,4.52419351 C12.9081207,4.44397567 13.0162427,4.4393388 13.0705357,4.48292537 C13.0960581,4.5033276 13.1730892,4.60533873 13.1828342,4.62805939" id="Fill-57"></path>
                            <path d="M15.4022892,4.76627455 C15.3781775,4.84144953 15.2404625,4.87486063 15.297496,4.96395689 C15.3118703,5.01824993 15.2511273,5.04284422 15.2121776,5.0502689 C15.1106301,5.08182383 15.0039821,5.18716161 14.8968704,5.12869218 C14.8537476,5.04284422 14.7188147,5.03309931 14.72577,4.92915367 C14.7777029,4.83588101 14.8815688,4.85397869 14.9460213,4.78019584 C14.971524,4.75049709 15.3480378,4.68181871 15.3934792,4.74400048 L15.4022892,4.76627455" id="Fill-58"></path>
                            <path d="M12.8042513,5.49248479 C12.8042513,5.53100036 12.7996144,5.57926084 12.7680837,5.6122079 C12.7152234,5.66789306 12.6164581,5.66557285 12.5877095,5.67485371 C12.5163017,5.69619969 12.4128995,5.67810201 12.3832235,5.67021328 C12.3683855,5.66789306 12.2445811,5.61684833 12.2297431,5.58900574 C12.2162962,5.56765976 12.1935756,5.4613939 12.2037767,5.43633557 C12.2218605,5.3880751 12.2826035,5.3644089 12.3275811,5.35652017 C12.3920336,5.34491909 12.4643687,5.33517419 12.5223296,5.36580103 C12.6294413,5.43030301 12.7407262,5.39039531 12.7768937,5.41684577 C12.7861675,5.42519854 12.8023965,5.47717136 12.8042513,5.49248479" id="Fill-59"></path>
                            <path d="M14.3112338,5.51972938 C14.3019601,5.48680761 14.1962395,5.39777971 14.1660998,5.38247804 C14.108139,5.35512052 14.0376585,5.36439425 13.9759882,5.34584678 C13.8484743,5.30457864 13.7696475,5.42420987 13.6681,5.4409026 C13.6217314,5.45064003 13.598547,5.49793609 13.5637705,5.52204781 C13.4626867,5.58789136 13.3820052,5.85543873 13.3620667,5.91618172 C13.3147706,6.06317048 13.4645415,6.16008105 13.5225023,6.16239948 C13.6055023,6.16610898 13.6954576,6.15358943 13.7752117,6.13550564 C13.9017983,6.0909917 14.0084463,6.00381855 14.0984015,5.9027348 C14.1619266,5.82993595 14.2022674,5.74044437 14.2602283,5.66532708 C14.3390551,5.56007014 14.314016,5.52714837 14.3112338,5.51972938 L14.3112338,5.51972938 Z M14.7920772,6.02653921 C14.72577,6.1939302 14.4359656,6.58574566 13.9523401,6.67894674 C13.7752117,6.71372326 13.5549604,6.79255004 13.3945247,6.66318138 C13.3857147,6.65576239 13.3087427,6.58574566 13.2336254,6.55421495 C13.1529439,6.51990212 13.1292958,6.56209763 13.0666981,6.51016469 C13.0560333,6.5027457 13.0207931,6.41464518 13.0286757,6.35761169 C13.0351674,6.32005305 13.0078098,6.2862039 12.9934355,6.25189106 C12.9744244,6.21201399 12.9192456,6.13643302 12.9280557,6.06780735 C12.9317652,6.04230457 12.9030166,5.90505323 12.9688601,5.80814266 C12.9934355,5.77893038 13.0657707,5.63333268 12.9925082,5.62034945 C12.9642233,5.61663995 12.9581953,5.54291373 13.0133741,5.49793609 C13.0847819,5.4371931 13.1218768,5.17984685 13.3820052,5.10519325 C13.5730442,5.04908713 13.6908207,4.82327159 13.8943793,4.81121573 C13.9912898,4.79405931 14.0882004,4.80982467 14.1772283,4.84599225 C14.2602283,4.88308721 14.36734,4.8974615 14.420664,4.97165141 C14.4540494,5.02219329 14.6070661,5.0963832 14.6608538,5.19422115 C14.6998035,5.26702 14.7902224,5.3235898 14.8073789,5.40844451 C14.8185074,5.44832159 14.8579207,5.60365672 14.8574571,5.64492486 C14.8556023,5.71865108 14.8138705,5.97553365 14.7920772,6.02653921 L14.7920772,6.02653921 Z" id="Fill-60"></path>
                            <path d="M15.5335126,6.06786192 C15.5710713,6.07899896 15.6160489,6.10034494 15.610021,6.1495335 C15.602602,6.19083333 15.5664344,6.17459183 15.5362947,6.18804908 C15.4894624,6.21217932 15.5056914,6.3035958 15.4384568,6.29617111 C15.3985797,6.29199472 15.367049,6.31194857 15.3327362,6.32401369 C15.2511273,6.32030135 15.1444793,6.33004625 15.0726078,6.28735429 C15.0517419,6.2766813 15.0447866,6.26322405 15.0267028,6.24883872 C15.0114011,6.23306125 14.9506581,6.22192422 14.9548313,6.15185372 C14.9576134,6.12957965 14.9460213,6.12865156 14.9297922,6.1128741 C14.8996526,6.0762147 14.9288648,6.02795422 14.9756972,6.02192166 C15.0012,6.01774527 15.0257754,6.02516996 15.0475687,6.0158891 C15.1189765,5.982478 15.199658,6.00057568 15.2757027,6.01217676 C15.3155798,6.01774527 15.3554568,6.02424187 15.3934792,6.03398678 C15.4268646,6.04326764 15.5200657,6.06414958 15.5335126,6.06786192" id="Fill-61"></path>
                            <path d="M12.7490725,6.55753929 C12.7481451,6.56774824 12.7662289,6.58584592 12.7708658,6.59419869 C12.798687,6.63642661 12.7532457,6.683759 12.7198602,6.70835328 C12.6818379,6.73201948 12.6382513,6.7473329 12.600229,6.77471144 C12.5821452,6.78816869 12.4945084,6.82854044 12.4634414,6.83410895 C12.4384023,6.83874939 12.3405643,6.84060556 12.318771,6.83642917 C12.271475,6.82714831 12.2264973,6.78352826 12.2237152,6.7343397 C12.2561733,6.54965056 12.469933,6.51902371 12.6122849,6.4596262 C12.6901843,6.44152852 12.7560278,6.4800441 12.7490725,6.55753929" id="Fill-62"></path>
                            <path d="M14.5641295,6.8542204 C14.6100698,6.89456117 14.6518336,6.92748294 14.6810684,6.98266169 C14.709839,7.03691306 14.7191199,7.09116443 14.731649,7.14958899 C14.7516029,7.22192415 14.6643628,7.23768951 14.6383764,7.29333194 C14.6290955,7.3090973 14.6193506,7.32486265 14.602181,7.32996321 C14.5710901,7.33413639 14.5279341,7.31744366 14.4949871,7.30816992 C14.4597198,7.29796881 14.4253806,7.29796881 14.4026425,7.26411966 C14.3836167,7.23861688 14.3743359,7.20476773 14.3729438,7.17230965 C14.3701595,7.14402474 14.3729438,7.08374544 14.3492776,7.05082367 C14.3390686,7.03691306 14.3274675,7.02532089 14.3237552,7.00816447 C14.3209709,6.99008068 14.3302518,6.97570638 14.3237552,6.96040471 C14.311226,6.91032653 14.3529899,6.90615334 14.3474214,6.86673995 C14.342781,6.84262823 14.3553101,6.82454444 14.3738718,6.81712545 C14.4091391,6.81202489 14.4388379,6.8259355 14.4713209,6.83613661 C14.4898826,6.84262823 14.5469599,6.8403098 14.5641295,6.8542204" id="Fill-63"></path>
                            <path d="M13.6294005,7.03505831 C13.6730205,7.11156666 13.6702362,7.19595768 13.6321847,7.27756658 C13.6057343,7.34062801 13.5639704,7.39673413 13.5226705,7.45191288 C13.505965,7.47556091 13.4943639,7.508019 13.4669854,7.51775642 C13.4010913,7.54233183 13.3537589,7.4899352 13.3393735,7.47416985 C13.3287005,7.46072293 13.3059624,7.43382908 13.3041063,7.41481792 C13.2929692,7.23537107 13.4363585,6.97106951 13.505965,6.9645779 C13.5588659,6.96179578 13.5913489,7.01697452 13.6294005,7.03505831" id="Fill-64"></path>
                            <path d="M24.4346886,6.44442338 C24.4300482,6.5200624 24.4203033,6.59848568 24.3446643,6.64535403 C24.3395598,6.64999446 24.3233183,6.64628212 24.3140374,6.64535403 C24.3056847,6.64535403 24.2968679,6.64256977 24.2894432,6.63885743 C24.255104,6.62957657 24.2272614,6.60498228 24.2063795,6.5771397 C24.1961705,6.56368245 24.1845694,6.54976116 24.1715762,6.53630391 C24.1590471,6.5200624 24.1465179,6.50521302 24.1353809,6.48618726 C24.1247079,6.46808958 24.1200674,6.44442338 24.1200674,6.42539762 C24.1228517,6.40822802 24.1293483,6.39152247 24.1335247,6.37435288 C24.1418775,6.35857542 24.1534785,6.34558221 24.1655437,6.33305305 C24.1762167,6.32470027 24.1970986,6.31263515 24.212412,6.31170707 C24.3140374,6.30660259 24.4100944,6.33954965 24.4346886,6.44442338" id="Fill-40"></path>
                            <path d="M18.871258,13.2897438 C18.8758985,13.2929921 18.8758985,13.2980966 18.8758985,13.3032011 C18.871258,13.345429 18.8132526,13.3649188 18.7923707,13.3904412 C18.7696326,13.4178197 18.7533911,13.4827858 18.7060587,13.4554072 C18.7162676,13.4020423 18.7696326,13.3185145 18.8151088,13.2883517 C18.838311,13.2748945 18.8684738,13.2628293 18.871258,13.2897438" id="Fill-41"></path>
                            <path d="M19.1001926,13.3996253 C19.0927736,13.4158543 19.0793267,13.4288376 19.0728351,13.4399661 C19.0468686,13.4714968 19.0213658,13.5016364 18.9977178,13.5327035 C18.9889077,13.5433683 18.9814887,13.552642 18.9708239,13.5623794 C18.9147178,13.6314688 18.8558296,13.6954576 18.7923045,13.7538821 C18.7598464,13.7854128 18.7269246,13.8141614 18.6926118,13.8424463 C18.6763827,13.8558933 18.6221314,13.9175636 18.5957012,13.8883513 C18.5748353,13.8637759 18.590137,13.8276084 18.606366,13.8072061 C18.6221314,13.7914408 18.6365056,13.7756754 18.6471704,13.7566643 C18.6629358,13.7334799 18.667109,13.7075134 18.674528,13.6801559 C18.6810196,13.6504799 18.6926118,13.6157034 18.7222877,13.6008654 C18.7561369,13.5827816 18.7992598,13.5753627 18.835891,13.5707258 C18.8757681,13.5646979 18.8961703,13.5368766 18.9170363,13.5030275 C18.9253826,13.4942174 18.9309469,13.4835526 18.9318742,13.4724242 C18.9379022,13.4552677 18.942539,13.4469214 18.9569133,13.4353292 C18.9717513,13.4232733 18.987053,13.4098264 19.003282,13.3973069 C19.0241479,13.3806141 19.0593881,13.3365639 19.0899915,13.3537203 C19.10993,13.3657762 19.1090026,13.3838599 19.1001926,13.3996253" id="Fill-42"></path>
                            <path d="M21.6252331,13.6917794 C21.6345139,13.7057007 21.635442,13.7237984 21.635442,13.7381837 C21.6308016,13.7613858 21.603423,13.7706667 21.5843973,13.7771633 C21.560267,13.7878363 21.5375289,13.7975812 21.5092223,13.805934 C21.4823078,13.8119665 21.4558573,13.8221755 21.430335,13.8268159 C21.4168777,13.8300642 21.344487,13.8449136 21.3797543,13.8653315 C21.4062047,13.8801809 21.387179,13.8973505 21.3616566,13.9057032 C21.3435589,13.9117358 21.3027231,13.9200886 21.2874097,13.9043111 C21.2646716,13.882037 21.2990108,13.8244957 21.3152523,13.8073261 C21.3352061,13.7855161 21.3616566,13.7674184 21.3885711,13.752569 C21.4168777,13.7381837 21.4451843,13.7256545 21.4730269,13.7098771 C21.4985493,13.6917794 21.5231436,13.6676491 21.5500581,13.6546559 C21.5843973,13.6421268 21.613632,13.6634728 21.6252331,13.6917794" id="Fill-43"></path>
                            <path d="M19.9914529,13.7576283 L19.9895967,13.7613407 C19.9724271,13.7659811 19.9380879,13.7734058 19.9260228,13.7576283 C19.9051409,13.7311779 19.9561856,13.7098319 19.9770676,13.7098319 C20.0011978,13.7098319 20.0160472,13.7502036 19.9914529,13.7576283" id="Fill-44"></path>
                            <path d="M20.0356535,13.8095351 C20.0458625,13.8225283 20.0166277,13.8276328 20.0096671,13.8313451 C19.9962099,13.8387698 19.9841447,13.8448024 19.9706875,13.8545473 C19.9405247,13.8693966 19.9196427,13.8907426 19.8982968,13.916265 C19.8815912,13.9362189 19.8616374,13.9575648 19.8375071,13.9673097 C19.836579,13.9682378 19.8337948,13.9682378 19.8337948,13.9682378 C19.8291543,13.970094 19.8235858,13.9714861 19.8221937,13.9714861 C19.792959,13.9793749 19.7595479,13.9747344 19.7720771,13.9362189 C19.7776456,13.9106965 19.7975994,13.8972392 19.8194094,13.8884224 C19.8384352,13.8809977 19.8625654,13.8768213 19.8815912,13.8629 C19.9001529,13.8494428 19.9089698,13.8225283 19.9043293,13.8002542 C19.9154664,13.7914374 19.9261393,13.79747 19.9382045,13.8035025 C19.9498055,13.808607 19.9604785,13.8160317 19.9771841,13.8141755 C19.9897132,13.8118553 20.0013143,13.8095351 20.0152356,13.808607 C20.0166277,13.808607 20.0333333,13.808607 20.0356535,13.8095351" id="Fill-45"></path>
                            <path d="M18.387761,14.1551499 C18.3144421,14.2442462 18.183582,14.3347346 18.1014464,14.2660562 C18.0179186,14.1987699 18.0615387,14.1333399 18.1227924,14.0669817 C18.2174571,13.9792776 18.4183878,13.8934296 18.4573674,13.9319452 C18.5246537,13.9996955 18.4165316,14.0850794 18.387761,14.1551499" id="Fill-46"></path>
                            <path d="M21.1668635,14.11381 C21.1478377,14.1124179 21.1450534,14.0669417 21.1469096,14.0539485 C21.1478377,14.0437395 21.1478377,14.0339946 21.1478377,14.0219295 C21.1450534,14.0107925 21.1394849,13.9964072 21.1469096,13.9852701 C21.1557264,13.9681005 21.1877454,13.9759893 21.2039869,13.9792376 C21.2220846,13.9806297 21.2276531,13.9880544 21.2230127,14.0075442 C21.2211565,14.0279621 21.2012026,14.0446676 21.194242,14.0627653 C21.1868173,14.0776147 21.1905297,14.1040651 21.1756803,14.1124179 C21.172432,14.11381 21.1677915,14.1152022 21.1668635,14.11381" id="Fill-47"></path>
                            <path d="M19.6084181,14.1123975 C19.5875362,14.1151817 19.56387,14.0460393 19.5838239,14.0107721 C19.5917126,13.9917463 19.6093462,14.0052035 19.6228035,14.0154125 C19.6344046,14.0339742 19.6344046,14.0571764 19.6325484,14.0785223 C19.6297641,14.0933717 19.6325484,14.1096132 19.6084181,14.1123975" id="Fill-48"></path>
                            <path d="M19.4825242,14.219507 C19.4959815,14.2074419 19.5006219,14.1930566 19.5080466,14.175887 C19.5168634,14.1647499 19.5289285,14.1591814 19.5289285,14.144332 C19.5289285,14.1174175 19.5034062,14.1053524 19.47974,14.1137052 C19.4560738,14.122058 19.4398323,14.1392276 19.415702,14.1512927 C19.3790426,14.1731027 19.3377428,14.1856319 19.2941227,14.1930566 C19.2658161,14.1930566 19.2379735,14.1930566 19.2068826,14.1986251 C19.1924973,14.2014093 19.1655828,14.2051217 19.1563019,14.2185789 C19.146557,14.2315721 19.1563019,14.262199 19.1600143,14.2751922 C19.1743996,14.327165 19.2458623,14.3229886 19.2885542,14.3215965 C19.3266057,14.3178842 19.3646573,14.3067471 19.4008526,14.2886494 C19.4310154,14.2705518 19.4616423,14.2473496 19.4825242,14.219507" id="Fill-49"></path>
                            <path d="M21.7029439,14.2231349 C21.7066563,14.2231349 21.7066563,14.2254551 21.7103686,14.2273112 C21.715009,14.2365921 21.7010877,14.2495853 21.6922709,14.2546898 C21.6811339,14.2621145 21.671389,14.2662909 21.6639643,14.2816043 C21.6560756,14.2950615 21.6467947,14.30063 21.6305532,14.3034143 C21.6050308,14.3048064 21.5999264,14.2760358 21.6050308,14.25701 C21.6152398,14.2314876 21.6412262,14.2231349 21.6639643,14.2231349 C21.671389,14.2217427 21.6922709,14.2194225 21.7029439,14.2231349" id="Fill-50"></path>
                            <path d="M19.1257346,14.4559632 L19.1099572,14.4559632 C19.0886112,14.453643 19.0640169,14.421624 19.0793303,14.39935 C19.097428,14.3793961 19.1517211,14.367331 19.1600738,14.3961017 C19.1698187,14.4267285 19.1517211,14.4513228 19.1257346,14.4559632" id="Fill-51"></path>
                            <path d="M17.725421,14.8431842 L17.725421,14.8459685 C17.725421,14.8636021 17.7356299,14.8705627 17.7119637,14.8682425 C17.6901537,14.8682425 17.6585988,14.8325112 17.6530302,14.8162697 C17.6418932,14.7907473 17.6465336,14.7888912 17.6646313,14.7749699 C17.6901537,14.7591924 17.7119637,14.733206 17.737022,14.7197488 C17.7625444,14.7058275 17.7862106,14.7058275 17.7736814,14.7397026 C17.7644006,14.7591924 17.7444467,14.7749699 17.7300614,14.7930676 C17.7226367,14.8097731 17.7244929,14.8260146 17.725421,14.8431842" id="Fill-52"></path>
                            <path d="M21.447416,15.0874462 C21.4766507,15.0911585 21.4566969,15.1872155 21.4112206,15.1830391 C21.3703848,15.1793267 21.4167892,15.0786294 21.447416,15.0874462" id="Fill-53"></path>
                            <path d="M21.1670331,15.163509 C21.198588,15.2326514 21.1452231,15.3082904 21.09093,15.3491262 C21.0635515,15.3695441 21.0338527,15.3857856 20.9976574,15.379753 C20.9647103,15.3751126 20.9387239,15.3514464 20.9275869,15.3231398 C20.907633,15.2646703 20.9475407,15.2062009 20.993017,15.174646 C21.0176112,15.1574764 21.04731,15.1430911 21.0788649,15.1393787 C21.0988188,15.1393787 21.155432,15.1430911 21.1670331,15.163509" id="Fill-54"></path>
                            <path d="M20.9415841,15.4778859 C20.9439043,15.4871668 20.9258066,15.4959836 20.9179179,15.5043364 C20.9132775,15.510833 20.9007483,15.5164015 20.8914674,15.5191858 C20.8724417,15.5233621 20.8399587,15.5312509 20.8265014,15.5154734 C20.8190767,15.5029443 20.8265014,15.4936634 20.8362463,15.489487 C20.8497036,15.4848466 20.8599125,15.4755657 20.8724417,15.468141 C20.8858989,15.4597883 20.9007483,15.4546838 20.9160617,15.4588602 C20.9234864,15.4597883 20.9387998,15.468141 20.9415841,15.4778859" id="Fill-55"></path>
                            <path d="M19.3901486,15.9151772 C19.3428162,15.9420917 19.3901486,16.052534 19.3646263,16.096154 C19.3377118,16.1425583 19.275994,16.1546234 19.2249493,16.1365257 C19.1771529,16.1193562 19.1906101,16.0826968 19.2114921,16.0441812 C19.2114921,16.0409329 19.210564,16.0228352 19.210564,16.0172667 C19.2114921,16.0065937 19.2179887,16.0014892 19.2226291,15.9931364 C19.2314459,15.9833915 19.243047,15.9629736 19.232374,15.9481243 C19.2268055,15.9420917 19.2179887,15.9397715 19.2114921,15.9300266 C19.2017472,15.9193536 19.2068516,15.9058963 19.2068516,15.8896548 C19.210564,15.8789818 19.2059235,15.8622763 19.2152044,15.8534595 C19.2226291,15.8464988 19.2360863,15.8511393 19.243047,15.8525314 C19.2657851,15.8580999 19.2829547,15.869701 19.3038366,15.8789818 C19.318686,15.8868706 19.3330713,15.8877987 19.3474567,15.8877987 C19.3585937,15.8877987 19.3701948,15.8868706 19.3799397,15.880374 C19.3901486,15.8752695 19.4008216,15.869701 19.4110306,15.8655246 C19.4300563,15.8580999 19.4560428,15.8608842 19.4653236,15.8868706 C19.4653236,15.8993997 19.4662517,15.9374513 19.4444417,15.9300266 C19.4356249,15.9281704 19.4291283,15.9165693 19.4198474,15.9119289 C19.4110306,15.9072885 19.4008216,15.9091446 19.3901486,15.9151772" id="Fill-65"></path>
                            <path d="M18.1413492,14.9373819 C18.1158268,14.938774 18.1046898,14.9684727 18.0768472,14.9568717 C18.0559653,14.9480548 18.0615338,14.9276369 18.0647821,14.9118595 C18.0722068,14.896082 18.0657102,14.8714877 18.074991,14.8557103 C18.1014415,14.8120902 18.1682637,14.852462 18.1882176,14.7963128 C18.1993546,14.7749668 18.2299814,14.680302 18.2652487,14.7285625 C18.2907711,14.7591893 18.247151,14.8037375 18.2508634,14.8366845 C18.2508634,14.8612788 18.2555038,14.8663833 18.2346219,14.8886573 C18.2234848,14.9007225 18.2063152,14.9234606 18.1882176,14.9322774 C18.1738322,14.938774 18.1566626,14.9345976 18.1413492,14.9373819" id="Fill-66"></path>
                            <path d="M19.3074903,13.1877317 C19.294033,13.19098 19.2759353,13.2044372 19.272223,13.2165024 C19.2578376,13.244809 19.294033,13.2401686 19.3121307,13.2313517 C19.3218756,13.2248551 19.3627114,13.1960845 19.347398,13.1779868 C19.3395092,13.1636015 19.3139869,13.1844834 19.3074903,13.1877317" id="Fill-67"></path>
                            <path d="M20.5237818,13.5104543 C20.5140369,13.4881802 20.4286529,13.5039577 20.4323653,13.5443294 C20.4351495,13.5624271 20.5465199,13.5536103 20.5237818,13.5104543" id="Fill-68"></path>
                            <path d="M20.6670489,13.1052025 C20.6489512,13.1075227 20.6280693,13.0485892 20.6081154,13.1075227 C20.6016188,13.1293327 20.581665,13.153927 20.5969784,13.1683123 C20.6169322,13.1929066 20.667977,13.1854819 20.689787,13.1729528 C20.7106689,13.1599596 20.732943,13.1293327 20.7078847,13.111235 C20.6939634,13.1028823 20.6758657,13.1028823 20.6670489,13.1052025" id="Fill-69"></path>
                            <path d="M20.1219306,12.9526323 C20.0964083,12.9414953 20.0513961,12.992076 20.0356186,13.0083175 C19.9850379,13.0593622 19.9381696,13.1122631 19.9042944,13.1772292 C19.8871249,13.2111043 19.8546418,13.2222413 19.8291195,13.2472997 C19.8193746,13.2570446 19.8063814,13.272822 19.8221588,13.2802467 C19.8384003,13.2885995 19.8792361,13.2705018 19.8945495,13.2640052 C19.909863,13.2570446 19.9233202,13.2426592 19.9381696,13.2278098 C19.9497707,13.2166728 19.9660122,13.2120324 19.9813256,13.2018234 C19.9952469,13.1939347 20.0012794,13.1804775 20.0096322,13.1684123 C20.0212333,13.1563472 20.0332984,13.1442821 20.0458276,13.1336091 C20.0555725,13.1252563 20.0667095,13.1122631 20.0764544,13.1029823 C20.093624,13.078388 20.1103296,13.0556499 20.1312115,13.0338398 C20.1446688,13.0180624 20.1618383,12.9698019 20.1391002,12.9558806 C20.1321396,12.9512402 20.1284272,12.9558806 20.1219306,12.9526323" id="Fill-70"></path>
                            <path d="M21.069104,12.929922 C21.0547186,12.93085 21.0384771,12.929922 21.0226997,12.9276017 C20.9623741,12.9141445 20.9646943,12.8955828 20.9521651,12.9661173 C20.951237,12.9795746 20.9331393,13.0895528 20.951237,13.0909449 C20.98372,13.0941932 21.0226997,13.0338676 21.0384771,13.0134497 C21.0454378,13.0037048 21.1080836,12.9257456 21.069104,12.929922" id="Fill-71"></path>
                            <path d="M21.2212525,13.2378056 C21.2528074,13.2433742 21.1994425,13.3004515 21.1757763,13.3162289 C21.1479337,13.3320064 21.1089541,13.3236536 21.0787913,13.3343266 C21.0671902,13.3417513 21.0384195,13.3514962 21.0244983,13.3440715 C21.0128972,13.3333985 21.0193938,13.3101964 21.0272825,13.3004515 C21.0384195,13.28421 21.053733,13.2763212 21.0718306,13.2702887 C21.0908564,13.262864 21.1052417,13.2470865 21.1242675,13.2387337 C21.1553584,13.2220282 21.1878414,13.2289888 21.2212525,13.2378056" id="Fill-72"></path>
                            <path d="M19.4916036,13.4288383 C19.5375439,13.4200215 19.5115575,13.4761707 19.4967081,13.4924122 C19.4869632,13.5016931 19.4461274,13.5490255 19.4396308,13.5527378 C19.3746648,13.5731557 19.4507679,13.4413675 19.4916036,13.4288383" id="Fill-73"></path>
                            <path d="M19.3187301,13.6119975 C19.2922797,13.5869391 19.2430911,13.6704669 19.2068957,13.7006297 C19.1818374,13.7210476 19.0955254,13.7516744 19.156315,13.7952945 C19.2115362,13.8324179 19.2523719,13.7651317 19.2723258,13.7312565 C19.2885673,13.7006297 19.3447165,13.6338075 19.3187301,13.6119975" id="Fill-74"></path>
                            <path d="M20.8418171,13.645383 C20.839961,13.6579122 20.8237194,13.6644088 20.8218633,13.677402 C20.819079,13.6894671 20.8209352,13.7029244 20.8237194,13.7140614 C20.8334643,13.7140614 20.839961,13.7335512 20.8464576,13.7367995 C20.8543463,13.7409759 20.8659474,13.7409759 20.8770844,13.7367995 C20.8914697,13.731231 20.9132798,13.7187018 20.9026068,13.6982839 C20.8970382,13.6862188 20.8798687,13.6727616 20.8705878,13.6634807 C20.8654833,13.6593043 20.8464576,13.6291415 20.8418171,13.645383" id="Fill-75"></path>
                            <path d="M20.8601066,13.8141618 C20.7793631,13.8118416 20.648967,13.816018 20.5900335,13.8851604 C20.541773,13.9445579 20.5918897,14.0155565 20.6577838,14.0341182 C20.6967634,14.0438631 20.7594092,14.0447912 20.7900361,14.0155565 C20.8164865,13.9942105 20.8192708,13.9445579 20.8457212,13.9199636 C20.8656751,13.8981536 20.9143996,13.8958334 20.91904,13.8628863 C20.9278568,13.8266909 20.8916615,13.816018 20.8601066,13.8141618" id="Fill-76"></path>
                            <path d="M21.9820991,14.1739844 C21.9366228,14.1953304 21.8470625,14.2496234 21.8642321,14.3271186 C21.9004275,14.3387197 22.0391764,14.147998 21.9820991,14.1739844" id="Fill-77"></path>
                            <path d="M20.6151344,14.0798715 C20.5854356,14.0826558 20.5237179,14.0218662 20.5158292,14.0882243 C20.5084045,14.1550465 20.6016771,14.1104984 20.6360163,14.1030737 C20.6415848,14.0993613 20.6388006,14.0965771 20.6360163,14.0900805 C20.6318399,14.0798715 20.6253433,14.0798715 20.6151344,14.0798715" id="Fill-78"></path>
                            <path d="M17.1231937,14.9566945 C17.0985994,14.9274598 17.0470906,14.9636552 17.0280649,14.9798967 C17.0155357,14.9905697 17.0025425,14.9993865 16.9844448,15.0003146 C16.965419,15.0003146 16.9412888,14.9905697 16.9241192,15.0063472 C16.8921002,15.0309414 16.9301518,15.0392942 16.9519618,15.0402223 C16.9719157,15.0434706 16.9918695,15.0448627 17.0127514,15.0499672 C17.0605479,15.0573919 17.0972073,15.058784 17.1194813,15.0086674 C17.126906,14.9905697 17.1343307,14.9734001 17.1231937,14.9566945" id="Fill-79"></path>
                            <path d="M16.7628448,15.1008996 C16.7526359,15.0795537 16.7456752,15.1018277 16.7391786,15.1083243 C16.7229371,15.1222456 16.7048395,15.115749 16.6821013,15.115749 C16.6658598,15.115749 16.6533307,15.1213175 16.6468341,15.1357029 C16.6394094,15.1421995 16.6296645,15.1714342 16.6384813,15.1793229 C16.6468341,15.19046 16.6756047,15.1746825 16.6867418,15.1714342 C16.7020552,15.1626174 16.7122641,15.1626174 16.7303618,15.1612252 C16.7684134,15.158905 16.7790863,15.1338467 16.7628448,15.1008996" id="Fill-80"></path>
                            <path d="M18.3240416,14.9043468 C18.3013035,14.9229085 18.2832058,14.9419343 18.2595396,14.9660645 C18.2507228,14.9748813 18.2395858,14.9883386 18.2470105,15.0022599 C18.2641801,15.025462 18.285062,15.0064363 18.2985193,14.9952992 C18.3156889,14.9832341 18.3365708,14.9869465 18.3546685,14.9748813 C18.371374,14.9674567 18.3774066,14.9530713 18.392256,14.938686 C18.4182424,14.917804 18.4692871,14.8950659 18.4734635,14.8570144 C18.4818163,14.8013292 18.4057132,14.8458774 18.3876155,14.8570144 C18.3620932,14.8713997 18.3412112,14.8871772 18.3240416,14.9043468" id="Fill-81"></path>
                            <path d="M18.3666486,15.2085208 C18.3847463,15.2498206 18.4121248,15.2716307 18.4543528,15.2804475 C18.4798751,15.2850879 18.5606186,15.3017935 18.5596905,15.2558532 C18.5596905,15.2442521 18.5453052,15.2242983 18.5388086,15.2168736 C18.5281356,15.1973838 18.5244233,15.1941355 18.4989009,15.1987759 C18.4770909,15.2029523 18.4589932,15.2052725 18.4381113,15.1964557 C18.4102687,15.1871748 18.3712891,15.1273133 18.3592239,15.1421626 C18.3485509,15.1588682 18.3620082,15.2062006 18.3666486,15.2085208" id="Fill-82"></path>
                            <path d="M18.5641706,15.1274046 C18.5660267,15.1455023 18.5748436,15.1612797 18.5994378,15.1770572 C18.6852858,15.2308862 18.6472343,15.1603516 18.6811094,15.1042024 C18.6927105,15.0851767 18.7270497,15.0605824 18.7182329,15.0364521 C18.7024554,14.9891197 18.5595301,15.0587262 18.5641706,15.1274046" id="Fill-83"></path>
                            <path d="M18.7163421,15.2892652 C18.7307274,15.2781282 18.7441847,15.2679193 18.7599622,15.2581743 C18.7840924,15.2414688 18.8193597,15.2233711 18.8360652,15.1941364 C18.8360652,15.1918162 18.8583393,15.1310265 18.8360652,15.1393793 C18.7994058,15.1491242 18.7850205,15.1904241 18.7534655,15.2085217 C18.7279432,15.2242992 18.6063639,15.2827686 18.6091482,15.3143236 C18.6100762,15.3287089 18.6420952,15.3356695 18.6518401,15.3347415 C18.6773625,15.3310291 18.6662255,15.3254606 18.683395,15.3096831 C18.6926759,15.3050427 18.7024208,15.2934416 18.7163421,15.2892652" id="Fill-84"></path>
                            <path d="M18.7641044,15.3322725 C18.748791,15.3322725 18.7390461,15.3434095 18.7260529,15.348978 C18.7107395,15.3568668 18.6926418,15.3601151 18.6773284,15.3693959 C18.6726879,15.3758925 18.6564464,15.3823891 18.6536622,15.3939902 C18.651806,15.4097677 18.6699037,15.4218328 18.6773284,15.4329698 C18.6926418,15.4487473 18.7088833,15.4547799 18.7279091,15.4547799 C18.7469348,15.4547799 18.7562157,15.4301856 18.7469348,15.4162643 C18.7441506,15.4097677 18.7344057,15.4051272 18.7390461,15.3963104 C18.7422944,15.3870296 18.7534314,15.3823891 18.759928,15.3758925 C18.7696729,15.3666117 18.7770976,15.3568668 18.7743134,15.3434095 C18.7743134,15.3355208 18.7724572,15.3322725 18.7641044,15.3322725" id="Fill-85"></path>
                            <path d="M18.6472328,15.4621049 C18.6402722,15.4611768 18.6319194,15.4658173 18.6221745,15.4681375 C18.6138217,15.4713858 18.6050049,15.4755622 18.5957241,15.4829869 C18.5813387,15.4894835 18.5558163,15.5094373 18.5702017,15.5266069 C18.584123,15.5335676 18.5985083,15.5335676 18.6138217,15.5335676 C18.6221745,15.5335676 18.6319194,15.5335676 18.6402722,15.5298552 C18.6472328,15.5266069 18.6518733,15.5182541 18.6565137,15.5094373 C18.6630103,15.5024767 18.6653305,15.4927318 18.6653305,15.4815947 C18.6653305,15.4755622 18.6537294,15.4658173 18.6472328,15.4621049" id="Fill-86"></path>
                            <path d="M19.6524857,15.9239682 C19.6283555,15.9364974 19.6144342,15.9374255 19.6046893,15.9629478 C19.5972646,15.9833657 19.5893759,16.007496 19.6181466,16.0051757 C19.6580543,16.0014634 19.7114192,15.9666602 19.752255,15.9480984 C19.7568954,15.9480984 19.8473838,15.889165 19.8292861,15.8868448 C19.7731369,15.8738516 19.7063147,15.8993739 19.6580543,15.9239682 L19.6524857,15.9239682" id="Fill-87"></path>
                            <path d="M18.4872531,15.8646524 C18.4724037,15.8878545 18.4181107,15.9300824 18.4162545,15.9630295 C18.4120781,16.01129 18.4761161,16.0075776 18.5141676,16.0140742 C18.6167211,16.0293877 18.7601104,16.043309 18.8334292,15.9569969 C18.8621999,15.925442 18.8858661,15.8451626 18.8584875,15.8038627 C18.8250764,15.7467854 18.7851687,15.7973661 18.7364442,15.8038627 C18.6348188,15.81732 18.5587157,15.753282 18.4872531,15.8646524" id="Fill-88"></path>
                            <path d="M20.2051666,15.7018513 C20.1949576,15.7115962 20.1912453,15.7167007 20.19867,15.7264456 C20.2079508,15.7445432 20.22048,15.7510398 20.2395057,15.7542881 C20.2757011,15.7654252 20.3156088,15.7807386 20.3429874,15.8053329 C20.361085,15.8197182 20.3726861,15.8452406 20.3963523,15.8512731 C20.4269791,15.8582338 20.4432207,15.8345676 20.446933,15.8104374 C20.4497173,15.7941958 20.4497173,15.7807386 20.4571419,15.7654252 C20.4603902,15.7510398 20.4724554,15.742223 20.4678149,15.7264456 C20.4571419,15.6958187 20.4088815,15.677257 20.3782546,15.6754008 C20.3536603,15.6754008 20.3253537,15.6754008 20.3030796,15.6837536 C20.2863741,15.6902502 20.2757011,15.6958187 20.2613158,15.6972108 C20.2432181,15.6995311 20.2186238,15.6911783 20.2051666,15.7018513" id="Fill-89"></path>
                        </g>
                    </g>
                </g>
            </g>
        </g>
    </g>
</svg>