<?xml version="1.0" encoding="UTF-8" standalone="no"?>
<svg width="30px" height="31px" viewBox="0 0 30 31" version="1.1" xmlns="http://www.w3.org/2000/svg" xmlns:xlink="http://www.w3.org/1999/xlink">
    <!-- Generator: Sketch 3.8.3 (29802) - http://www.bohemiancoding.com/sketch -->
    <title>logo-facebook</title>
    <desc>Created with Sketch.</desc>
    <defs></defs>
    <g id="Page-1" stroke="none" stroke-width="1" fill="none" fill-rule="evenodd">
        <path d="M28.3442865,0.894 L1.6557135,0.894 C0.741080729,0.894 0,1.63508073 0,2.5497135 L0,29.2382865 C0,30.1526945 0.741080729,30.894 1.6557135,30.894 L16.0238896,30.894 L16.0238896,19.2764664 L12.11436,19.2764664 L12.11436,14.7488263 L16.0238896,14.7488263 L16.0238896,11.4098602 C16.0238896,7.53495109 18.3905595,5.42501231 21.8472128,5.42501231 C23.5029263,5.42501231 24.9260755,5.54831969 25.3407345,5.60339774 L25.3407345,9.65287056 L22.9433783,9.6539946 C21.0634184,9.6539946 20.6994537,10.5472706 20.6994537,11.8581281 L20.6994537,14.7488263 L25.1829191,14.7488263 L24.5990918,19.2764664 L20.6994537,19.2764664 L20.6994537,30.894 L28.3442865,30.894 C29.2586945,30.894 30,30.1526945 30,29.2382865 L30,2.5497135 C30,1.63508073 29.2586945,0.894 28.3442865,0.894" id="logo-facebook" fill="#4A4F4C"></path>
    </g>
</svg>