<?xml version="1.0" encoding="UTF-8" standalone="no"?>
<svg width="30px" height="25px" viewBox="0 0 30 25" version="1.1" xmlns="http://www.w3.org/2000/svg" xmlns:xlink="http://www.w3.org/1999/xlink">
    <!-- Generator: Sketch 3.8.3 (29802) - http://www.bohemiancoding.com/sketch -->
    <title>logo-twitter</title>
    <desc>Created with Sketch.</desc>
    <defs></defs>
    <g id="Page-1" stroke="none" stroke-width="1" fill="none" fill-rule="evenodd">
        <path d="M30,2.88609678 C28.8961923,3.37561725 27.7099748,3.70646329 26.4649402,3.85526171 C27.7357621,3.09349281 28.7116208,1.88730385 29.171184,0.450126193 C27.9820037,1.15538242 26.6647646,1.66761769 25.2628114,1.94370679 C24.1400198,0.747503566 22.5404367,0 20.7702184,0 C17.3710084,0 14.6151651,2.75573357 14.6151651,6.15472402 C14.6151651,6.63711182 14.6697026,7.10688028 14.7746077,7.55733567 C9.65927795,7.30066937 5.12410842,4.85032371 2.08844508,1.12663228 C1.55865247,2.03566334 1.25513003,3.09294415 1.25513003,4.22089323 C1.25513003,6.35619445 2.34181938,8.24009657 3.99330627,9.34379458 C2.98430813,9.31186217 2.03533414,9.03500494 1.20542083,8.57401514 C1.20498189,8.59969275 1.20498189,8.62548008 1.20498189,8.65137715 C1.20498189,11.6334906 3.32656644,14.1211456 6.14221442,14.6864918 C5.62569955,14.82717 5.08197081,14.9023373 4.520575,14.9023373 C4.12399868,14.9023373 3.7383957,14.8638209 3.36266872,14.7919456 C4.14583562,17.2372435 6.41885219,19.0166795 9.11214748,19.0663887 C7.00570613,20.7171074 4.35180511,21.7010864 1.4682322,21.7010864 C0.97146933,21.7010864 0.481509931,21.672007 0,21.6151651 C2.72380116,23.3614616 5.95906946,24.3803358 9.43487326,24.3803358 C20.7558433,24.3803358 26.9465599,15.0017557 26.9465599,6.86842972 C26.9465599,6.60155821 26.9406343,6.33611324 26.9287831,6.07220454 C28.1312411,5.20443323 29.1748052,4.12037748 30,2.88609678" id="logo-twitter" fill="#4A4F4C"></path>
    </g>
</svg>