<?xml version="1.0" encoding="UTF-8" standalone="no"?>
<svg width="30px" height="30px" viewBox="0 0 30 30" version="1.1" xmlns="http://www.w3.org/2000/svg" xmlns:xlink="http://www.w3.org/1999/xlink">
    <!-- Generator: Sketch 3.8.3 (29802) - http://www.bohemiancoding.com/sketch -->
    <title>logo-instagram</title>
    <desc>Created with Sketch.</desc>
    <defs></defs>
    <g id="Page-1" stroke="none" stroke-width="1" fill="none" fill-rule="evenodd">
        <g id="logo-instagram" fill="#4A4F4C">
            <path d="M15,2.70660714 C19.0039286,2.70660714 19.4781548,2.72184524 21.0593452,2.7939881 C22.521369,2.86071429 23.3153571,3.105 23.8438095,3.31029762 C24.5436905,3.58232143 25.0432738,3.90732143 25.5679762,4.43202381 C26.0926786,4.95672619 26.4176786,5.45630952 26.6896429,6.15619048 C26.895,6.68464286 27.1392857,7.47863095 27.2060119,8.94059524 C27.2781548,10.5218452 27.2933929,10.9960714 27.2933929,15 C27.2933929,19.0039286 27.2781548,19.4781548 27.2060119,21.0593452 C27.1392857,22.521369 26.895,23.3153571 26.6896429,23.8438095 C26.4176786,24.5436905 26.0926786,25.0432738 25.5679762,25.5679762 C25.0432738,26.0926786 24.5436905,26.4176786 23.8438095,26.6896429 C23.3153571,26.895 22.521369,27.1392857 21.0593452,27.2060119 C19.4783929,27.2781548 19.0041667,27.2933929 15,27.2933929 C10.9958333,27.2933929 10.5216071,27.2781548 8.94065476,27.2060119 C7.47863095,27.1392857 6.68464286,26.895 6.15625,26.6896429 C5.45630952,26.4176786 4.95672619,26.0926786 4.43202381,25.5679762 C3.90732143,25.0432738 3.58232143,24.5436905 3.31035714,23.8438095 C3.105,23.3153571 2.86071429,22.521369 2.7939881,21.0594048 C2.72184524,19.4781548 2.70660714,19.0039286 2.70660714,15 C2.70660714,10.9960714 2.72184524,10.5218452 2.7939881,8.94065476 C2.86071429,7.47863095 3.105,6.68464286 3.31035714,6.15619048 C3.58232143,5.45630952 3.90732143,4.95672619 4.43202381,4.43202381 C4.95672619,3.90732143 5.45630952,3.58232143 6.15625,3.31029762 C6.68464286,3.105 7.47863095,2.86071429 8.94059524,2.7939881 C10.5218452,2.72184524 10.9960714,2.70660714 15,2.70660714 M15,0.00470238095 C10.9275,0.00470238095 10.4169048,0.0219642857 8.8175,0.0949404762 C7.22136905,0.167797619 6.13136905,0.42125 5.1775,0.791964286 C4.19142857,1.17517857 3.35517857,1.68791667 2.52154762,2.52154762 C1.68791667,3.35517857 1.17517857,4.19142857 0.791964286,5.1775 C0.42125,6.13136905 0.167797619,7.22136905 0.0949404762,8.8175 C0.0219642857,10.4168452 0.00476190476,10.9275 0.00476190476,15 C0.00476190476,19.0725 0.0219642857,19.5831548 0.0949404762,21.1825 C0.167797619,22.778631 0.42125,23.868631 0.791964286,24.8225 C1.17517857,25.8085119 1.68791667,26.6448214 2.52154762,27.4784524 C3.35517857,28.3120833 4.19142857,28.8248214 5.1775,29.2080357 C6.13136905,29.57875 7.22136905,29.8322024 8.8175,29.9050595 C10.4169048,29.9780357 10.9275,29.9952381 15,29.9952381 C19.0725,29.9952381 19.5831548,29.9780357 21.1825,29.9050595 C22.778631,29.8322024 23.868631,29.57875 24.8225,29.2080357 C25.8085714,28.8248214 26.6448214,28.3120833 27.4784524,27.4784524 C28.3120833,26.6448214 28.8248214,25.8085714 29.2080357,24.8225 C29.57875,23.868631 29.8322024,22.778631 29.9050595,21.1825 C29.9780357,19.5831548 29.9952976,19.0725 29.9952976,15 C29.9952976,10.9275 29.9780357,10.4168452 29.9050595,8.8175 C29.8322024,7.22136905 29.57875,6.13136905 29.2080357,5.1775 C28.8248214,4.19142857 28.3120833,3.35517857 27.4784524,2.52154762 C26.6448214,1.68791667 25.8085714,1.17517857 24.8225,0.791964286 C23.868631,0.42125 22.778631,0.167797619 21.1825,0.0949404762 C19.5831548,0.0219642857 19.0725,0.00470238095 15,0.00470238095" id="Fill-1"></path>
            <path d="M15,7.29970238 C10.7472619,7.29970238 7.29970238,10.7472619 7.29970238,15 C7.29970238,19.2527381 10.7472619,22.7002976 15,22.7002976 C19.2527381,22.7002976 22.7002976,19.2527381 22.7002976,15 C22.7002976,10.7472619 19.2527381,7.29970238 15,7.29970238 L15,7.29970238 Z M15,19.9984524 C12.2394643,19.9984524 10.0015476,17.7605357 10.0015476,15 C10.0015476,12.2394643 12.2394643,10.0015476 15,10.0015476 C17.7605357,10.0015476 19.9984524,12.2394643 19.9984524,15 C19.9984524,17.7605357 17.7605357,19.9984524 15,19.9984524 L15,19.9984524 Z" id="Fill-2"></path>
            <path d="M24.8039286,6.99547619 C24.8039286,7.98928571 23.9983333,8.79494048 23.0045238,8.79494048 C22.0107143,8.79494048 21.2050595,7.98928571 21.2050595,6.99547619 C21.2050595,6.00166667 22.0107143,5.19607143 23.0045238,5.19607143 C23.9983333,5.19607143 24.8039286,6.00166667 24.8039286,6.99547619" id="Fill-3"></path>
        </g>
    </g>
</svg>