<?xml version="1.0" encoding="UTF-8" standalone="no"?>
<svg width="77px" height="57px" viewBox="0 0 77 57" version="1.1" xmlns="http://www.w3.org/2000/svg" xmlns:xlink="http://www.w3.org/1999/xlink">
    <!-- Generator: Sketch 39.1 (31720) - http://www.bohemiancoding.com/sketch -->
    <title>solutions-community-engagement</title>
    <desc>Created with Sketch.</desc>
    <defs></defs>
    <g id="Page-1" stroke="none" stroke-width="1" fill="none" fill-rule="evenodd">
        <g id="Desktop-HD-Copy-5" transform="translate(-681.000000, -300.000000)" fill="#DB3833">
            <g id="solutions-community-engagement" transform="translate(681.000000, 300.000000)">
                <path d="M45.807436,7.10446358 C45.807436,11.0281404 42.6266492,14.2089272 38.7029724,14.2089272 C34.7792956,14.2089272 31.5985088,11.0281404 31.5985088,7.10446358 C31.5985088,3.18078675 34.7792956,0 38.7029724,0 C42.6266492,0 45.807436,3.18078675 45.807436,7.10446358 L45.807436,7.10446358 Z" id="Fill-1"></path>
                <path d="M19.7577362,14.2089272 C19.7577362,18.132604 16.5769589,21.3133907 12.6532726,21.3133907 C8.72958633,21.3133907 5.54880905,18.132604 5.54880905,14.2089272 C5.54880905,10.2852503 8.72958633,7.10446358 12.6532726,7.10446358 C16.5769589,7.10446358 19.7577362,10.2852503 19.7577362,14.2089272 L19.7577362,14.2089272 Z" id="Fill-3"></path>
                <path d="M71.8571358,14.2089272 C71.8571358,18.132604 68.676349,21.3133907 64.7526722,21.3133907 C60.8289954,21.3133907 57.6482086,18.132604 57.6482086,14.2089272 C57.6482086,10.2852503 60.8289954,7.10446358 64.7526722,7.10446358 C68.676349,7.10446358 71.8571358,10.2852503 71.8571358,14.2089272 L71.8571358,14.2089272 Z" id="Fill-4"></path>
                <path d="M58.8322859,27.707408 L38.7029724,39.5481806 L18.5736589,27.707408 C16.6791353,26.7601461 14.7846117,26.0496998 12.6532726,26.0496998 C6.02243996,26.0496998 0.8125,31.2596397 0.8125,37.8904724 L0.8125,56.8357086 L24.4940453,56.8357086 L24.4940453,42.1531506 L36.3348179,49.2576118 C36.8084488,49.4944296 37.0452642,49.731245 37.5188951,49.731245 C37.9925261,49.731245 38.2293415,49.9680605 38.7029724,49.9680605 C39.1766033,49.9680605 39.4134188,49.9680605 39.8870497,49.731245 C40.3606806,49.731245 40.597496,49.4944296 41.0711269,49.2576118 L52.9118996,42.1531506 L52.9118996,56.8357086 L76.5934448,56.8357086 L76.5934448,37.8904724 C76.5934448,31.2596397 71.3835049,26.0496998 64.7526722,26.0496998 C62.6213331,26.0496998 60.7268095,26.7601461 58.8322859,27.707408 Z" id="Fill-5"></path>
                <path d="M38.7029724,34.1014252 L50.0701141,27.4705925 C48.6492214,22.7342834 44.1497278,19.1820517 38.7029724,19.1820517 C33.256217,19.1820517 28.9935389,22.7342834 27.3358307,27.4705925 L38.7029724,34.1014252 L38.7029724,34.1014252 Z" id="Fill-6"></path>
            </g>
        </g>
    </g>
</svg>