<?xml version="1.0" encoding="UTF-8" standalone="no"?>
<svg width="57px" height="56px" viewBox="0 0 57 56" version="1.1" xmlns="http://www.w3.org/2000/svg" xmlns:xlink="http://www.w3.org/1999/xlink">
    <!-- Generator: Sketch 39.1 (31720) - http://www.bohemiancoding.com/sketch -->
    <title>solutions-environmental-management</title>
    <desc>Created with Sketch.</desc>
    <defs></defs>
    <g id="Page-1" stroke="none" stroke-width="1" fill="none" fill-rule="evenodd">
        <g id="Desktop-HD-Copy-5" transform="translate(-375.000000, -536.000000)" fill="#4A4F4C">
            <g id="solutions-environmental-management" transform="translate(375.000000, 536.000000)">
                <path d="M48.1600446,41.646596 C41.8439732,34.1462612 32.9619978,25.8564174 26.6459263,20.1324777 C26.2511719,19.7377232 26.0537946,19.3429687 26.0537946,18.7508371 C26.0537946,17.5665737 26.8433036,16.7770647 28.027567,16.7770647 C28.4223214,16.7770647 29.0144531,16.974442 29.4092076,17.1718192 L29.4092076,17.1718192 L29.6065848,17.1718192 L29.6065848,17.1718192 L29.6065848,17.1718192 C38.4885603,25.2642857 45.5941406,32.1724888 50.7259487,38.0938058 L50.7259487,38.0938058 C51.1207031,37.3042969 51.5154576,36.5147879 51.9102121,35.725279 C51.9102121,35.725279 51.9102121,35.5279018 52.1075893,35.3305246 C52.3049665,34.7383929 52.5023438,33.9488839 52.699721,33.3567522 C52.699721,33.159375 52.8970982,32.9619978 52.8970982,32.7646205 C53.0944754,32.1724888 53.0944754,31.5803571 53.2918527,30.9882254 C53.2918527,30.7908482 53.2918527,30.593471 53.4892299,30.1987165 C53.2918527,29.4092076 53.2918527,28.4223214 53.2918527,27.6328125 C53.2918527,12.2373884 37.1069196,4.14492187 21.7114955,3.94754464 C7.69771205,3.75016741 0,0 0,0 C0,0 1.97377232,20.1324777 6.1186942,31.3829799 C10.8557478,44.2125 19.540346,49.344308 31.5803571,49.344308 C32.3698661,49.344308 33.159375,49.344308 33.9488839,49.1469308 L34.1462612,49.1469308 C34.7383929,49.1469308 35.5279018,48.9495516 36.1200335,48.7521744 L36.3174107,48.7521744 C37.6990513,48.3574179 39.080692,47.9626654 40.4623326,47.3705318 L40.4623326,47.3705318 L40.4623326,47.3705318 C41.646596,46.778402 42.8308594,46.1862684 44.0151228,45.3967594 C47.9626674,49.9364338 50.5285714,53.489226 50.5285714,55.0682438 L56.4498884,55.0682438 C56.2525112,52.1075893 52.8970982,46.9757793 48.1600446,41.646596 L48.1600446,41.646596 Z" id="Fill-12"></path>
            </g>
        </g>
    </g>
</svg>