<?xml version="1.0" encoding="UTF-8" standalone="no"?>
<svg width="55px" height="79px" viewBox="0 0 55 79" version="1.1" xmlns="http://www.w3.org/2000/svg" xmlns:xlink="http://www.w3.org/1999/xlink">
    <!-- Generator: Sketch 39.1 (31720) - http://www.bohemiancoding.com/sketch -->
    <title>solutions-internation-development</title>
    <desc>Created with Sketch.</desc>
    <defs></defs>
    <g id="Page-1" stroke="none" stroke-width="1" fill="none" fill-rule="evenodd">
        <g id="Desktop-HD-Copy-5" transform="translate(-1022.000000, -283.000000)" fill="#4A4F4C">
            <g id="solutions-internation-development" transform="translate(1021.625000, 283.000000)">
                <path d="M4.31235051,31.7292754 L4.31235051,25.3580617 C4.31235051,21.5030591 7.43744753,18.3779621 11.2924501,18.3779621 C14.194355,18.3779621 16.6826569,20.148807 17.7356738,22.6688148 C12.4706068,24.4354823 7.84849258,27.603309 4.31235051,31.7292754 Z M34.6330013,21.9559619 L34.6330013,19.4088065 C34.6330013,15.553804 31.5079043,12.428707 27.6529017,12.428707 C23.7978992,12.428707 20.6728022,15.553804 20.6728022,19.4088065 L20.6728022,21.8458536 C22.8424899,21.3546103 25.1001772,21.0952744 27.4184356,21.0952744 C29.9042028,21.0952744 32.3203294,21.3934416 34.6330013,21.9559619 Z M37.5128478,22.8102527 C38.530692,20.215319 41.0574539,18.3779621 44.0133534,18.3779621 C47.8683559,18.3779621 50.993453,21.5030591 50.993453,25.3580617 L50.993453,32.2898448 C47.4913415,28.000216 42.8417028,24.6842483 37.5128478,22.8102527 Z M11.2924501,15.8582963 C13.7844746,15.8582963 15.8046596,13.8381113 15.8046596,11.3460867 C15.8046596,8.85406222 13.7844746,6.8338772 11.2924501,6.8338772 C8.80042554,6.8338772 6.78024051,8.85406222 6.78024051,11.3460867 C6.78024051,13.8381113 8.80042554,15.8582963 11.2924501,15.8582963 Z M27.6529017,9.90904114 C30.1449263,9.90904114 32.1651113,7.88885611 32.1651113,5.39683159 C32.1651113,2.90480707 30.1449263,0.884622043 27.6529017,0.884622043 C25.1608772,0.884622043 23.1406922,2.90480707 23.1406922,5.39683159 C23.1406922,7.88885611 25.1608772,9.90904114 27.6529017,9.90904114 Z M44.0133534,15.8582963 C46.5053779,15.8582963 48.525563,13.8381113 48.525563,11.3460867 C48.525563,8.85406222 46.5053779,6.8338772 44.0133534,6.8338772 C41.5213289,6.8338772 39.5011439,8.85406222 39.5011439,11.3460867 C39.5011439,13.8381113 41.5213289,15.8582963 44.0133534,15.8582963 Z" id="Combined-Shape"></path>
                <path d="M27.4184356,24.4965545 C12.5472004,24.4965545 0.379826178,36.6639288 0.379826178,51.535164 C0.379826178,66.4063975 12.5472004,78.5737734 27.4184356,78.5737734 C42.2896708,78.5737734 54.457045,66.4063975 54.457045,51.535164 C54.457045,36.6639288 42.2896708,24.4965545 27.4184356,24.4965545 L27.4184356,24.4965545 Z M47.5284014,49.0002943 L40.768749,49.0002943 C40.4307664,45.4514768 38.9098446,38.6918245 34.178088,32.4391461 C41.2757229,34.9740157 46.5144535,41.3956854 47.5284014,49.0002943 L47.5284014,49.0002943 Z M29.1083487,31.7631808 C35.0230445,37.8468679 36.8819489,45.2824855 37.3889228,49.0002943 L29.1083487,49.0002943 L29.1083487,31.7631808 L29.1083487,31.7631808 Z M25.7285225,49.0002943 L17.4479484,49.0002943 C17.9549223,45.2824855 19.6448354,37.8468679 25.7285225,31.7631808 L25.7285225,49.0002943 L25.7285225,49.0002943 Z M25.7285225,54.0700336 L25.7285225,71.3071488 C19.8138267,65.22346 17.9549223,57.7878424 17.4479484,54.0700336 L25.7285225,54.0700336 L25.7285225,54.0700336 Z M29.1083487,54.0700336 L37.3889228,54.0700336 C36.8819489,57.7878424 35.1920358,65.22346 29.1083487,71.3071488 L29.1083487,54.0700336 L29.1083487,54.0700336 Z M20.6587832,32.4391461 C15.9270266,38.6918245 14.5750961,45.4514768 14.0681222,49.0002943 L7.30846984,49.0002943 C8.32241769,41.3956854 13.5611483,34.9740157 20.6587832,32.4391461 L20.6587832,32.4391461 Z M7.30846984,54.0700336 L14.0681222,54.0700336 C14.4061048,57.6188511 15.9270266,64.3785034 20.6587832,70.6311802 C13.5611483,68.0963105 8.32241769,61.6746425 7.30846984,54.0700336 L7.30846984,54.0700336 Z M34.178088,70.6311802 C38.9098446,64.3785034 40.2617751,57.6188511 40.768749,54.0700336 L47.5284014,54.0700336 C46.5144535,61.6746425 41.2757229,68.0963105 34.178088,70.6311802 L34.178088,70.6311802 Z" id="Page-1"></path>
            </g>
        </g>
    </g>
</svg>