<?xml version="1.0" encoding="UTF-8" standalone="no"?>
<svg width="59px" height="52px" viewBox="0 0 59 52" version="1.1" xmlns="http://www.w3.org/2000/svg" xmlns:xlink="http://www.w3.org/1999/xlink">
    <!-- Generator: Sketch 39.1 (31720) - http://www.bohemiancoding.com/sketch -->
    <title>solutions-media</title>
    <desc>Created with Sketch.</desc>
    <defs></defs>
    <g id="Page-1" stroke="none" stroke-width="1" fill="none" fill-rule="evenodd">
        <g id="Desktop-HD-Copy-5" transform="translate(-1020.000000, -540.000000)" fill="#DB3833">
            <g id="solutions-media" transform="translate(1020.125000, 540.000000)">
                <path d="M32.1024306,12.7235243 L41.4982639,3.32769097 C42.28125,2.54470486 42.28125,1.37022569 41.4982639,0.587239583 C40.7152778,-0.195746528 39.5407986,-0.195746528 38.7578125,0.587239583 L29.3619792,9.98307292 L19.9661458,0.587239583 C19.1831597,-0.195746528 18.0086806,-0.195746528 17.2256944,0.587239583 C16.4427083,1.37022569 16.4427083,2.54470486 17.2256944,3.32769097 L26.6215278,12.7235243 L0,12.7235243 L0,51.8728299 L58.7239583,51.8728299 L58.7239583,12.7235243 L32.1024306,12.7235243 L32.1024306,12.7235243 Z M43.0642361,38.1705729 C43.0642361,41.3025174 40.5195313,44.0429688 37.1918403,44.0429688 L13.7022569,44.0429688 C10.374566,44.0429688 7.82986111,41.3025174 7.82986111,38.1705729 L7.82986111,26.4257813 C7.82986111,23.0980903 10.374566,20.5533854 13.7022569,20.5533854 L37.1918403,20.5533854 C40.5195313,20.5533854 43.0642361,23.0980903 43.0642361,26.4257813 L43.0642361,38.1705729 L43.0642361,38.1705729 Z M50.8940972,36.2131076 C49.7196181,36.2131076 48.9366319,35.4301215 48.9366319,34.2556424 C48.9366319,33.0811632 49.7196181,32.2981771 50.8940972,32.2981771 C52.0685764,32.2981771 52.8515625,33.0811632 52.8515625,34.2556424 C52.8515625,35.4301215 52.0685764,36.2131076 50.8940972,36.2131076 L50.8940972,36.2131076 Z M50.8940972,30.3407118 C49.7196181,30.3407118 48.9366319,29.5577257 48.9366319,28.3832465 C48.9366319,27.2087674 49.7196181,26.4257812 50.8940972,26.4257812 C52.0685764,26.4257812 52.8515625,27.2087674 52.8515625,28.3832465 C52.8515625,29.5577257 52.0685764,30.3407118 50.8940972,30.3407118 L50.8940972,30.3407118 Z M50.8940972,24.468316 C49.7196181,24.468316 48.9366319,23.6853299 48.9366319,22.5108507 C48.9366319,21.3363715 49.7196181,20.5533854 50.8940972,20.5533854 C52.0685764,20.5533854 52.8515625,21.3363715 52.8515625,22.5108507 C52.8515625,23.6853299 52.0685764,24.468316 50.8940972,24.468316 L50.8940972,24.468316 Z" id="Page-1"></path>
            </g>
        </g>
    </g>
</svg>