<?xml version="1.0" encoding="UTF-8" standalone="no"?>
<svg width="85px" height="55px" viewBox="0 0 85 55" version="1.1" xmlns="http://www.w3.org/2000/svg" xmlns:xlink="http://www.w3.org/1999/xlink">
    <!-- Generator: Sketch 39.1 (31720) - http://www.bohemiancoding.com/sketch -->
    <title>solutions-urban-planning</title>
    <desc>Created with Sketch.</desc>
    <defs></defs>
    <g id="Page-1" stroke="none" stroke-width="1" fill="none" fill-rule="evenodd">
        <g id="Desktop-HD-Copy-5" transform="translate(-677.000000, -540.000000)" fill="#DB3833">
            <g id="solutions-urban-planning" transform="translate(676.812500, 540.000000)">
                <path d="M51.21875,29.3164063 L51.21875,15.6354167 C51.21875,11.9220052 48.6779948,8.99036458 45.3554687,8.01315104 L45.3554687,1.95442708 L43.4010417,3.41060513e-13 L41.4466146,1.95442708 L41.4466146,8.01315104 C38.1240885,8.79492188 35.5833333,11.9220052 35.5833333,15.6354167 L35.5833333,33.2252604 L27.765625,33.2252604 L27.765625,39.0885417 L19.9479167,39.0885417 L19.9479167,25.4075521 L4.3125,13.6809896 L4.3125,29.3164063 L0.403645833,29.3164063 L0.403645833,54.7239583 L59.0364583,54.7239583 L59.0364583,29.3164063 L51.21875,29.3164063 L51.21875,29.3164063 Z" id="Page-1"></path>
                <polygon id="Fill-1" points="84.0364583 27 60.0364583 27 59.0364583 23 85.0364583 23"></polygon>
                <path d="M61.0364583,29 L61.0364583,55 L70.0364583,55 L70.0364583,49 L74.0364583,49 L74.0364583,55 L83.0364583,55 L83.0364583,29 L61.0364583,29 L61.0364583,29 Z M68.0364583,47 L64.0364583,47 L64.0364583,43 L68.0364583,43 L68.0364583,47 L68.0364583,47 Z M68.0364583,41 L64.0364583,41 L64.0364583,37 L68.0364583,37 L68.0364583,41 L68.0364583,41 Z M68.0364583,35 L64.0364583,35 L64.0364583,31 L68.0364583,31 L68.0364583,35 L68.0364583,35 Z M74.0364583,47 L70.0364583,47 L70.0364583,43 L74.0364583,43 L74.0364583,47 L74.0364583,47 Z M74.0364583,41 L70.0364583,41 L70.0364583,37 L74.0364583,37 L74.0364583,41 L74.0364583,41 Z M74.0364583,35 L70.0364583,35 L70.0364583,31 L74.0364583,31 L74.0364583,35 L74.0364583,35 Z M80.0364583,47 L76.0364583,47 L76.0364583,43 L80.0364583,43 L80.0364583,47 L80.0364583,47 Z M80.0364583,41 L76.0364583,41 L76.0364583,37 L80.0364583,37 L80.0364583,41 L80.0364583,41 Z M80.0364583,35 L76.0364583,35 L76.0364583,31 L80.0364583,31 L80.0364583,35 L80.0364583,35 Z" id="Fill-3"></path>
            </g>
        </g>
    </g>
</svg>