<?xml version="1.0" encoding="UTF-8"?>
<svg width="91px" height="54px" viewBox="0 0 91 54" version="1.1" xmlns="http://www.w3.org/2000/svg" xmlns:xlink="http://www.w3.org/1999/xlink">
    <!-- Generator: Sketch 40.3 (33839) - http://www.bohemiancoding.com/sketch -->
    <title>solutions-urban-planning</title>
    <desc>Created with Sketch.</desc>
    <defs></defs>
    <g id="Page-1" stroke="none" stroke-width="1" fill="none" fill-rule="evenodd">
        <g id="Desktop-HD-Copy-5" transform="translate(-665.000000, -658.000000)" fill="#4A4F4C">
            <g id="solutions-asset-monitoring" transform="translate(348.000000, 300.000000)">
                <g id="Group-15">
                    <g id="Group" transform="translate(0.535511, 0.000000)">
                        <g id="solutions-urban-planning" transform="translate(315.495739, 358.449219)">
                            <g id="building" transform="translate(48.761155, 0.367657)">
                                <polygon id="Fill-1" points="41.1598687 6.57598901 1.70393465 6.57598901 0.0599373999 0 42.803866 0"></polygon>
                                <path d="M3.34793191,9.86398352 L3.34793191,52.6079121 L18.1439072,52.6079121 L18.1439072,42.7439286 L24.7198962,42.7439286 L24.7198962,52.6079121 L39.5158715,52.6079121 L39.5158715,9.86398352 L3.34793191,9.86398352 L3.34793191,9.86398352 Z M14.8559127,39.4559341 L8.27992367,39.4559341 L8.27992367,32.8799451 L14.8559127,32.8799451 L14.8559127,39.4559341 L14.8559127,39.4559341 Z M14.8559127,29.5919506 L8.27992367,29.5919506 L8.27992367,23.0159615 L14.8559127,23.0159615 L14.8559127,29.5919506 L14.8559127,29.5919506 Z M14.8559127,19.727967 L8.27992367,19.727967 L8.27992367,13.151978 L14.8559127,13.151978 L14.8559127,19.727967 L14.8559127,19.727967 Z M24.7198962,39.4559341 L18.1439072,39.4559341 L18.1439072,32.8799451 L24.7198962,32.8799451 L24.7198962,39.4559341 L24.7198962,39.4559341 Z M24.7198962,29.5919506 L18.1439072,29.5919506 L18.1439072,23.0159615 L24.7198962,23.0159615 L24.7198962,29.5919506 L24.7198962,29.5919506 Z M24.7198962,19.727967 L18.1439072,19.727967 L18.1439072,13.151978 L24.7198962,13.151978 L24.7198962,19.727967 L24.7198962,19.727967 Z M34.5838797,39.4559341 L28.0078907,39.4559341 L28.0078907,32.8799451 L34.5838797,32.8799451 L34.5838797,39.4559341 L34.5838797,39.4559341 Z M34.5838797,29.5919506 L28.0078907,29.5919506 L28.0078907,23.0159615 L34.5838797,23.0159615 L34.5838797,29.5919506 L34.5838797,29.5919506 Z M34.5838797,19.727967 L28.0078907,19.727967 L28.0078907,13.151978 L34.5838797,13.151978 L34.5838797,19.727967 L34.5838797,19.727967 Z" id="Fill-3"></path>
                            </g>
                            <path d="M40.0797345,38.068112 C41.0574724,38.068112 41.8574399,37.2681445 41.8574399,36.2904066 C41.8574399,35.3126686 41.0574724,34.5127012 40.0797345,34.5127012 C39.1019965,34.5127012 38.3020291,35.3126686 38.3020291,36.2904066 C38.3020291,37.2681445 39.1019965,38.068112 40.0797345,38.068112 L40.0797345,38.068112 Z M30.7467811,43.8456545 C28.3024361,43.8456545 26.3025176,45.8455731 26.3025176,48.2899181 C26.3025176,50.734263 28.3024361,52.7341816 30.7467811,52.7341816 C33.191126,52.7341816 35.1910446,50.734263 35.1910446,48.2899181 C35.1910446,45.8455731 33.191126,43.8456545 30.7467811,43.8456545 L30.7467811,43.8456545 Z M30.7467811,51.4009025 C29.0135183,51.4009025 27.6357966,50.0231808 27.6357966,48.2899181 C27.6357966,46.5566553 29.0135183,45.1789336 30.7467811,45.1789336 C32.4800438,45.1789336 33.8577655,46.5566553 33.8577655,48.2899181 C33.8577655,50.0231808 32.4800438,51.4009025 30.7467811,51.4009025 L30.7467811,51.4009025 Z M35.9021268,42.5568181 L37.9909306,40.4235716 L38.6575701,41.0902112 C39.768636,42.2457197 41.3241282,42.9123592 43.1462763,42.9123592 L43.1462763,41.1346538 C41.8129972,41.1346538 40.7019314,40.6457848 39.9019639,39.8458174 L38.1687011,38.1569972 C37.9020453,37.8458988 37.457619,37.6236856 36.96875,37.6236856 C36.479881,37.6236856 36.0354547,37.8014562 35.7243562,38.1569972 L33.2800113,40.6013422 C32.9689128,40.9124406 32.7466997,41.356867 32.7466997,41.845736 C32.7466997,42.3346049 32.9689128,42.7790313 33.2800113,43.1345724 L36.0798973,45.6233599 L36.0798973,50.0676235 L37.8576027,50.0676235 L37.8576027,44.5122941 L35.9021268,42.5568181 L35.9021268,42.5568181 Z M43.1907189,43.8456545 C40.746374,43.8456545 38.7464554,45.8455731 38.7464554,48.2899181 C38.7464554,50.734263 40.746374,52.7341816 43.1907189,52.7341816 C45.6350639,52.7341816 47.6349824,50.734263 47.6349824,48.2899181 C47.6349824,45.8455731 45.6350639,43.8456545 43.1907189,43.8456545 L43.1907189,43.8456545 Z M43.1907189,51.4009025 C41.4574562,51.4009025 40.0797345,50.0231808 40.0797345,48.2899181 C40.0797345,46.5566553 41.4574562,45.1789336 43.1907189,45.1789336 C44.9239817,45.1789336 46.3017034,46.5566553 46.3017034,48.2899181 C46.3017034,50.0231808 44.9239817,51.4009025 43.1907189,51.4009025 L43.1907189,51.4009025 Z" id="Bike"></path>
                            <path d="M30.6338628,32.2662808 C30.6618458,30.5667479 29.6933374,29.0076251 28.1574925,28.2793246 C28.0274831,26.6711698 26.6751372,25.4379373 25.0620296,25.4562625 C24.8173642,25.4758258 24.5761658,25.5258485 24.3438822,25.6048447 C24.1935665,23.9704403 22.746871,22.7674196 21.1127142,22.9177353 C20.4720772,22.9766729 19.8680905,23.2418922 19.3911416,23.6732759 L19.3911416,23.6732759 C19.3911416,21.9635898 18.0053648,20.577813 16.2956787,20.577813 C14.5859927,20.577813 13.2002158,21.9635898 13.2002158,23.6732759 C13.2002158,23.6732759 13.2992706,23.7228033 13.2992706,23.7970944 C12.0328549,22.7107107 10.1255545,22.8568166 9.0391708,24.12348 C8.67242036,24.5511491 8.43246008,25.0726727 8.34653003,25.6296084 C7.95452061,25.5045517 7.54443369,25.4461094 7.13310858,25.4562625 C5.08168341,25.4391755 3.40468544,27.0881905 3.38759848,29.1396157 C3.38338865,29.6343945 3.47823364,30.1247158 3.66619014,30.582349 C1.70366667,31.130865 0.557354858,33.1666891 1.10587088,35.1292126 C1.453058,36.3716075 2.42379516,37.3423447 3.66619014,37.6895318 C4.29345474,39.6282821 6.37385344,40.6916355 8.31260376,40.0643709 C9.63820478,39.6354636 10.6091896,38.4965809 10.8229003,37.1199666 C11.2760761,37.5139572 11.8364787,37.7640706 12.432541,37.838114 L12.432541,50.2199656 L8.34653003,52.6963359 L20.7283816,52.6963359 L16.7661891,50.2199656 L16.7661891,45.267225 C18.593998,43.0595408 20.9549695,41.3548075 23.6257348,40.3144843 C25.6098027,40.7797943 27.5953564,39.5487906 28.0606664,37.5649704 C28.1309953,37.2650819 28.1636834,36.9575168 28.1574925,36.6494563 C28.164674,36.5174657 28.164674,36.3852276 28.1574925,36.253237 C29.6933374,35.5249365 30.6618458,33.9658138 30.6338628,32.2662808 L30.6338628,32.2662808 Z M16.7661891,43.4347109 L16.7661891,34.9159971 C17.435552,36.1063883 18.6940434,36.8443466 20.0597616,36.8475659 L20.7531453,36.8475659 C20.7917767,37.9349401 21.3083475,38.9500043 22.1646764,39.6211007 C20.1447011,40.5472632 18.3141682,41.8404212 16.7661891,43.4347109 L16.7661891,43.4347109 Z" id="Page-1"></path>
                        </g>
                    </g>
                </g>
            </g>
        </g>
    </g>
</svg>