<?xml version="1.0" encoding="UTF-8" standalone="no"?>
<svg width="106px" height="57px" viewBox="0 0 106 57" version="1.1" xmlns="http://www.w3.org/2000/svg" xmlns:xlink="http://www.w3.org/1999/xlink">
    <!-- Generator: Sketch 39.1 (31720) - http://www.bohemiancoding.com/sketch -->
    <title>solutions-asset-monitoring</title>
    <desc>Created with Sketch.</desc>
    <defs></defs>
    <g id="Page-1" stroke="none" stroke-width="1" fill="none" fill-rule="evenodd">
        <g id="Desktop-HD-Copy-5" transform="translate(-349.000000, -300.000000)" fill="#4A4F4C">
            <g id="solutions-asset-monitoring" transform="translate(349.000000, 300.000000)">
                <g id="Group-15">
                    <g id="Group-3">
                        <path d="M19.746965,25.5064964 L13.8228755,25.5064964 C10.5317147,25.5064964 9.21524868,29.1267734 8.7215762,30.4432377 L7.07599579,35.3799789 L6.58232166,35.3799789 C3.78483496,35.3799789 1.64558042,37.5192335 1.64558042,40.3167202 L1.64558042,43.607881 L0,43.607881 L0,50.1902027 L6.58232166,50.1902027 C6.58232166,53.8104812 9.54436641,56.7725244 13.1646433,56.7725244 C16.7849202,56.7725244 19.746965,53.8104812 19.746965,50.1902027 L36.2027692,50.1902027 C36.2027692,53.8104812 39.1648139,56.7725244 42.7850908,56.7725244 C46.4053677,56.7725244 49.3674125,53.8104812 49.3674125,50.1902027 L55.9497341,50.1902027 L55.9497341,18.9241748 L19.746965,18.9241748 L19.746965,25.5064964 Z M11.0253888,31.2660279 C11.5190629,29.7850055 12.3418531,27.9748671 13.8228755,27.9748671 L19.746965,27.9748671 L19.746965,35.3799789 L9.70892445,35.3799789 L11.0253888,31.2660279 L11.0253888,31.2660279 Z" id="Page-1"></path>
                        <path d="M27.3501011,0 C22.3936739,0 18.9241748,5.45206996 18.9241748,5.45206996 C18.9241748,5.45206996 21.4519527,10.9041399 27.3501011,10.9041399 C33.2978138,10.9041399 35.7760274,5.45206996 35.7760274,5.45206996 C35.7760274,5.45206996 32.3560926,0 27.3501011,0 L27.3501011,0 Z M27.3501011,8.92156903 C25.4170945,8.92156903 23.880602,7.38507659 23.880602,5.45206996 C23.880602,3.51906334 25.4170945,1.9825709 27.3501011,1.9825709 C29.2831077,1.9825709 30.8196002,3.51906334 30.8196002,5.45206996 C30.8196002,7.38507659 29.2831077,8.92156903 27.3501011,8.92156903 L27.3501011,8.92156903 Z" id="Fill-1"></path>
                        <path d="M28.8370293,5.45206996 C28.8370293,6.27327561 28.1713067,6.93899813 27.3501011,6.93899813 C26.5288954,6.93899813 25.8631729,6.27327561 25.8631729,5.45206996 C25.8631729,4.63086432 26.5288954,3.96514179 27.3501011,3.96514179 C28.1713067,3.96514179 28.8370293,4.63086432 28.8370293,5.45206996 L28.8370293,5.45206996 Z" id="Fill-3"></path>
                    </g>
                    <g id="Group" transform="translate(74.535511, 0.000000)">
                        <g id="Page-1" transform="translate(0.000000, 18.924175)">
                            <polygon id="Fill-1" points="29.5690231 4.7310437 1.18276092 4.7310437 0 0 30.751784 0"></polygon>
                            <path d="M2.36552185,7.09656554 L2.36552185,37.8483496 L13.0103702,37.8483496 L13.0103702,30.751784 L17.7414139,30.751784 L17.7414139,37.8483496 L28.3862622,37.8483496 L28.3862622,7.09656554 L2.36552185,7.09656554 L2.36552185,7.09656554 Z M10.6448483,28.3862622 L5.91380462,28.3862622 L5.91380462,23.6552185 L10.6448483,23.6552185 L10.6448483,28.3862622 L10.6448483,28.3862622 Z M10.6448483,21.2896966 L5.91380462,21.2896966 L5.91380462,16.5586529 L10.6448483,16.5586529 L10.6448483,21.2896966 L10.6448483,21.2896966 Z M10.6448483,14.1931311 L5.91380462,14.1931311 L5.91380462,9.46208739 L10.6448483,9.46208739 L10.6448483,14.1931311 L10.6448483,14.1931311 Z M17.7414139,28.3862622 L13.0103702,28.3862622 L13.0103702,23.6552185 L17.7414139,23.6552185 L17.7414139,28.3862622 L17.7414139,28.3862622 Z M17.7414139,21.2896966 L13.0103702,21.2896966 L13.0103702,16.5586529 L17.7414139,16.5586529 L17.7414139,21.2896966 L17.7414139,21.2896966 Z M17.7414139,14.1931311 L13.0103702,14.1931311 L13.0103702,9.46208739 L17.7414139,9.46208739 L17.7414139,14.1931311 L17.7414139,14.1931311 Z M24.8379794,28.3862622 L20.1069357,28.3862622 L20.1069357,23.6552185 L24.8379794,23.6552185 L24.8379794,28.3862622 L24.8379794,28.3862622 Z M24.8379794,21.2896966 L20.1069357,21.2896966 L20.1069357,16.5586529 L24.8379794,16.5586529 L24.8379794,21.2896966 L24.8379794,21.2896966 Z M24.8379794,14.1931311 L20.1069357,14.1931311 L20.1069357,9.46208739 L24.8379794,9.46208739 L24.8379794,14.1931311 L24.8379794,14.1931311 Z" id="Fill-3"></path>
                        </g>
                        <path d="M14.3397309,0 C9.38330369,0 5.91380462,5.45206996 5.91380462,5.45206996 C5.91380462,5.45206996 8.44158251,10.9041399 14.3397309,10.9041399 C20.2874436,10.9041399 22.7656572,5.45206996 22.7656572,5.45206996 C22.7656572,5.45206996 19.3457224,0 14.3397309,0 L14.3397309,0 Z M14.3397309,8.92156903 C12.4067243,8.92156903 10.8702319,7.38507659 10.8702319,5.45206996 C10.8702319,3.51906334 12.4067243,1.9825709 14.3397309,1.9825709 C16.2727375,1.9825709 17.80923,3.51906334 17.80923,5.45206996 C17.80923,7.38507659 16.2727375,8.92156903 14.3397309,8.92156903 L14.3397309,8.92156903 Z" id="Fill-1"></path>
                        <path d="M15.8266591,5.45206996 C15.8266591,6.27327561 15.1609366,6.93899813 14.3397309,6.93899813 C13.5185253,6.93899813 12.8528028,6.27327561 12.8528028,5.45206996 C12.8528028,4.63086432 13.5185253,3.96514179 14.3397309,3.96514179 C15.1609366,3.96514179 15.8266591,4.63086432 15.8266591,5.45206996 L15.8266591,5.45206996 Z" id="Fill-3"></path>
                    </g>
                </g>
            </g>
        </g>
    </g>
</svg>