<?xml version="1.0" encoding="UTF-8"?>
<svg width="42px" height="52px" viewBox="0 0 42 52" version="1.1" xmlns="http://www.w3.org/2000/svg" xmlns:xlink="http://www.w3.org/1999/xlink">
    <!-- Generator: Sketch 40.3 (33839) - http://www.bohemiancoding.com/sketch -->
    <title>solutions-asset-monitoring</title>
    <desc>Created with Sketch.</desc>
    <defs></defs>
    <g id="Page-1" stroke="none" stroke-width="1" fill="none" fill-rule="evenodd">
        <g id="Desktop-HD-Copy-5" transform="translate(-111.000000, -431.000000)" fill="#4A4F4C">
            <path d="M148.263889,435.657986 L138.517053,435.657986 C137.562166,432.956354 135.000273,431 131.960938,431 C128.921602,431 126.359709,432.956354 125.404822,435.657986 L115.657986,435.657986 C113.084449,435.657986 111,437.742435 111,440.315972 L111,477.579861 C111,480.153397 113.084449,482.237847 115.657986,482.237847 L148.263889,482.237847 C150.837426,482.237847 152.921875,480.153397 152.921875,477.579861 L152.921875,440.315972 C152.921875,437.742435 150.837426,435.657986 148.263889,435.657986 L148.263889,435.657986 Z M131.960937,435.657986 C133.241884,435.657986 134.289931,436.694388 134.289931,437.986979 C134.289931,439.27957 133.241884,440.315972 131.960937,440.315972 C130.679991,440.315972 129.631944,439.27957 129.631944,437.986979 C129.631944,436.694388 130.679991,435.657986 131.960937,435.657986 L131.960937,435.657986 Z M148.263889,477.579861 L115.657986,477.579861 L115.657986,440.315972 L120.315972,440.315972 L120.315972,447.302951 L143.605903,447.302951 L143.605903,440.315972 L148.263889,440.315972 L148.263889,477.579861 Z M119.151476,451.960938 L143.605903,451.960938 L143.605903,454.289931 L119.151476,454.289931 L119.151476,451.960938 Z M119.151476,457.78342 L138.947917,457.78342 L138.947917,460.112413 L119.151476,460.112413 L119.151476,457.78342 Z M119.151476,463.605903 L141.27691,463.605903 L141.27691,465.934896 L119.151476,465.934896 L119.151476,463.605903 Z" id="solutions-asset-monitoring"></path>
        </g>
    </g>
</svg>