<?xml version="1.0" encoding="UTF-8" standalone="no"?><!DOCTYPE svg PUBLIC "-//W3C//DTD SVG 1.1//EN" "http://www.w3.org/Graphics/SVG/1.1/DTD/svg11.dtd"><svg width="224" height="1837" viewBox="0 0 224 1837" xmlns="http://www.w3.org/2000/svg" xmlns:xlink="http://www.w3.org/1999/xlink"><svg width="224" height="224" viewBox="0 0 224 224" id="circle_green"><title>Oval 5</title><circle fill="#4EAF46" cx="112" cy="112" r="112" fill-rule="evenodd"/></svg><svg width="224" height="224" viewBox="0 0 224 224" id="circle_grey" y="224"><title>Oval 5 Copy 2</title><circle fill="#4A4F4C" cx="112" cy="112" r="112" fill-rule="evenodd"/></svg><svg width="224" height="224" viewBox="0 0 224 224" id="circle_red" y="448"><title>Oval 5 Copy</title><circle fill="#D8262C" cx="112" cy="112" r="112" fill-rule="evenodd"/></svg><svg width="27" height="26" viewBox="0 0 27 26" id="facebook_logo_big" y="672"><title>facebook logo@3x</title><path d="M24.878 0H1.748C.954 0 .312.642.312 1.435v23.13C.313 25.357.955 26 1.746 26H14.2V15.93h-3.388v-3.923H14.2V9.114c0-3.358 2.05-5.187 5.047-5.187 1.435 0 2.668.107 3.027.154v3.51l-2.077.002c-1.63 0-1.945.774-1.945 1.91v2.505h3.886l-.506 3.924h-3.38V26h6.626c.792 0 1.434-.643 1.434-1.435V1.435C26.313.642 25.67 0 24.878 0" fill="#252626" fill-rule="evenodd"/></svg><svg width="16" height="16" viewBox="0 0 16 16" id="facebook_logo_footer" y="698"><title>facebook_logo_footer</title><path d="M15.117 0H.883A.883.883 0 0 0 0 .883v14.234c0 .488.395.883.883.883h7.663V9.804H6.46V7.39h2.086V5.607c0-2.066 1.262-3.19 3.106-3.19.883 0 1.642.064 1.863.094v2.16h-1.28c-1 0-1.195.476-1.195 1.176v1.54h2.39l-.31 2.416h-2.08V16h4.077a.883.883 0 0 0 .883-.883V.883A.883.883 0 0 0 15.117 0" fill="#252626" fill-rule="evenodd"/></svg><svg id="facebook_logo_footer_white" width="16" height="16" viewBox="-471 273 16 16" y="714"><style>.afst0{fill:#FFF}</style><title>facebook_logo_footer</title><g id="afPage-1"><g id="af_x31_.0-Home_x5F_Page_x5F_V1.0_x5F_REVISED" transform="translate(-211 -966)"><g id="affooter" transform="translate(0 924)"><path id="affacebook_logo_footer" class="afst0" d="M-244.9 315h-14.2c-.5 0-.9.4-.9.9v14.2c0 .5.4.9.9.9h7.7v-6.2h-2.1v-2.4h2.1v-1.8c0-2.1 1.3-3.2 3.1-3.2.9 0 1.6.1 1.9.1v2.2h-1.3c-1 0-1.2.5-1.2 1.2v1.5h2.4l-.3 2.4h-2.1v6.2h4.1c.5 0 .9-.4.9-.9v-14.2c-.1-.5-.5-.9-1-.9"/></g></g></g></svg><svg width="52" height="78" viewBox="0 0 52 78" id="green_arrow" y="730"><title>Green Arrow</title><g fill="#4EAF46" fill-rule="evenodd"><path d="M18 49l7.414 28.52h.316l7.413-28.515L18 49"/><path d="M51.194 26.676C51.194 11.943 39.734 0 25.597 0S0 11.943 0 26.676C0 41.41 11.46 53.353 25.597 53.353S51.194 41.41 51.194 26.676m-30.6-7.17c0 3.804-2.96 6.887-6.607 6.887-3.65 0-6.606-3.083-6.606-6.886 0-3.802 2.958-6.884 6.607-6.884 3.648 0 6.606 3.082 6.606 6.884"/></g></svg><svg width="52" height="78" viewBox="0 0 52 78" id="grey_arrow" y="808"><title>Grey Arrow</title><g fill="#4A4F4C" fill-rule="evenodd"><path d="M18 49l7.414 28.52h.316l7.413-28.515L18 49"/><path d="M51.194 26.676C51.194 11.943 39.734 0 25.597 0S0 11.943 0 26.676C0 41.41 11.46 53.353 25.597 53.353S51.194 41.41 51.194 26.676m-30.6-7.17c0 3.804-2.96 6.887-6.607 6.887-3.65 0-6.606-3.083-6.606-6.886 0-3.802 2.958-6.884 6.607-6.884 3.648 0 6.606 3.082 6.606 6.884"/></g></svg><svg width="28" height="26" viewBox="0 0 28 26" id="instagram_logo_big" y="886"><title>instagram logo@3x</title><path d="M24.5 26H3.25C1.49 26 .06 24.656.06 23V3c0-1.657 1.427-3 3.187-3H24.5c1.76 0 3.188 1.343 3.188 3v20c0 1.656-1.427 3-3.187 3zM13.876 8c-2.935 0-5.313 2.238-5.313 5 0 2.76 2.378 5 5.313 5 2.934 0 5.313-2.24 5.313-5 0-2.762-2.38-5-5.313-5zM24.5 4c0-.553-.475-1-1.063-1H20.25c-.587 0-1.062.447-1.062 1v3c0 .552.475 1 1.062 1h3.187c.588 0 1.064-.448 1.064-1V4zm0 7h-2.404c.175.64.278 1.308.278 2 0 4.418-3.805 8-8.5 8-4.693 0-8.5-3.582-8.5-8 0-.692.105-1.36.28-2H3.25v11c0 .55.475 1 1.063 1h19.124c.588 0 1.064-.45 1.064-1V11z" fill="#252626" fill-rule="evenodd"/></svg><svg width="17" height="16" viewBox="0 0 17 16" id="instagram_logo_footer" y="912"><title>instagram_logo_footer</title><path d="M15.04 16H1.96C.88 16 0 15.173 0 14.153V1.846C0 .826.878 0 1.96 0h13.08C16.12 0 17 .826 17 1.846v12.307c0 1.02-.878 1.847-1.96 1.847zM8.5 4.923C6.694 4.923 5.23 6.3 5.23 8s1.464 3.077 3.27 3.077c1.805 0 3.27-1.378 3.27-3.077 0-1.7-1.465-3.077-3.27-3.077zm6.54-2.462c0-.34-.294-.614-.656-.614h-1.96c-.362 0-.655.275-.655.615V4.31c0 .34.292.615.653.615h1.96c.363 0 .656-.276.656-.615V2.46zm0 4.31h-1.48c.107.392.17.804.17 1.23 0 2.72-2.34 4.923-5.23 4.923-2.89 0-5.23-2.204-5.23-4.923 0-.426.063-.838.17-1.23H1.96v6.768c0 .34.294.615.656.615h11.768c.362 0 .655-.275.655-.615v-6.77z" fill="#252626" fill-rule="evenodd"/></svg><svg id="instagram_logo_footer_white" width="17" height="16" viewBox="-471 273 17 16" y="928"><style>.akst0{fill:#FFF}</style><title>instagram_logo_footer</title><g id="akPage-1"><g id="ak_x33_.0-Our_x5F_Distillery" transform="translate(-253 -2233)"><g id="akfooter" transform="translate(2 2191)"><path id="akinstagram_logo_footer" class="akst0" d="M-205 331h-13c-1.1 0-2-.8-2-1.8v-12.3c0-1 .9-1.8 2-1.8h13.1c1.1 0 2 .8 2 1.8v12.3c-.1 1-1 1.8-2.1 1.8zm-6.5-11.1c-1.8 0-3.3 1.4-3.3 3.1 0 1.7 1.5 3.1 3.3 3.1 1.8 0 3.3-1.4 3.3-3.1 0-1.7-1.5-3.1-3.3-3.1zm6.5-2.4c0-.3-.3-.6-.7-.6h-2c-.4 0-.7.3-.7.6v1.8c0 .3.3.6.7.6h2c.4 0 .7-.3.7-.6v-1.8zm0 4.3h-1.5c.1.4.2.8.2 1.2 0 2.7-2.3 4.9-5.2 4.9-2.9 0-5.2-2.2-5.2-4.9 0-.4.1-.8.2-1.2h-1.5v6.8c0 .3.3.6.7.6h11.8c.4 0 .7-.3.7-.6v-6.8z"/></g></g></g></svg><svg width="38" height="36" viewBox="0 0 38 36" id="instagram_logo_posts" y="944"><title>instagram_logo_footer</title><path d="M33.616 35.765H4.383C1.963 35.765 0 33.917 0 31.637V4.127C0 1.846 1.963 0 4.383 0h29.233C36.036 0 38 1.847 38 4.126v27.51c0 2.28-1.963 4.13-4.384 4.13zM19 11.005c-4.037 0-7.308 3.078-7.308 6.877 0 3.798 3.27 6.878 7.308 6.878 4.036 0 7.308-3.08 7.308-6.878 0-3.8-3.272-6.878-7.308-6.878zM33.616 5.5c0-.758-.654-1.374-1.463-1.374H27.77c-.808 0-1.462.616-1.462 1.375v4.13c0 .758.654 1.374 1.462 1.374h4.383c.81 0 1.463-.616 1.463-1.375V5.5zm0 9.63h-3.308c.24.88.383 1.8.383 2.752 0 6.078-5.233 11.004-11.69 11.004S7.308 23.96 7.308 17.882c0-.952.143-1.872.384-2.752h-3.31v15.132c0 .76.656 1.375 1.465 1.375h26.306c.81 0 1.463-.616 1.463-1.375V15.13z" fill="#FFF" fill-rule="evenodd"/></svg><svg width="15.27" height="15.651" viewBox="0 0 15.27 15.651" id="linkedin" y="980"><path fill="#FFF" d="M4.11 1.933c0 1.05-.93 1.904-2.07 1.904C.9 3.837 0 2.98 0 1.933 0 .883.9 0 2.04 0c1.14 0 2.07.883 2.07 1.933zM.36 15.65V4.97h3.36V15.65H.36zM8.7 4.97v.496c1.29-.607 3.06-.497 4.32.11 1.35.69 2.25 2.18 2.25 3.56v6.516h-3.3V9.137c0-.304-.302-.8-.57-.883-1.32-.69-2.7.552-2.7.552v6.846H5.34V4.97H8.7z"/></svg><svg width="33" height="31" viewBox="0 0 33 31" id="logo-cityofmelbourne" y="996"><title>logo-cityofmelbourne</title><defs><path id="ana" d="M32.967 1.81v1.612H.012V.2h32.955v1.61z"/></defs><g fill="none" fill-rule="evenodd" opacity=".51"><g transform="translate(0 27.578)"><mask id="anb" fill="#fff"><use xlink:href="#ana"/></mask><path d="M27.797 1.73c0 .147-.12.274-.266.274h-.336V.742h.332c.15 0 .27.112.27.258v.73zm.266.576l.04-.034c.166-.108.26-.332.26-.536v-.73c0-.45-.37-.805-.832-.805h-.844c-.025 0-.05.025-.05.05v3.123c0 .024.025.05.05.05h.463c.024 0 .05-.026.05-.05v-.828h.326l.356.847c.01.01.035.03.05.03h.528c.04 0 .06-.03.045-.068l-.442-1.048zm-4.81.43c0 .106-.096.145-.197.145H22.9c-.102 0-.198-.038-.198-.145V.89c0-.114.042-.148.158-.148h.236c.116 0 .157.034.157.147v1.845zM23.258.2h-.56a.557.557 0 0 0-.555.538v2.148c0 .297.248.536.555.536h.56c.307 0 .555-.24.555-.536V.738A.557.557 0 0 0 23.258.2zm-3.902 2.68h-.923V.25c0-.024-.025-.05-.05-.05h-.46c-.025 0-.05.026-.05.05v3.124c0 .024.025.048.05.048h1.433c.025 0 .05-.024.05-.048V2.93c0-.025-.025-.05-.05-.05zM26 .2h-.458c-.025 0-.05.026-.05.05v2.485c0 .107-.096.146-.197.146h-.156c-.103 0-.198-.038-.198-.145V.25c0-.024-.026-.05-.05-.05h-.46c-.025 0-.05.026-.05.05v2.636c0 .297.247.536.555.536h.56c.307 0 .555-.24.555-.536V.25c0-.024-.025-.05-.05-.05zm6.917.542c.025 0 .05-.024.05-.048V.25c0-.024-.025-.05-.05-.05h-1.57c-.024 0-.05.026-.05.05v3.124c0 .024.026.048.05.048h1.57c.025 0 .05-.024.05-.048V2.93c0-.025-.025-.05-.05-.05h-1.06v-.92h.808c.025 0 .05-.024.05-.05V1.47c0-.024-.025-.048-.05-.048h-.807V.742h1.06zM30.663.21H30.2c-.01 0-.025.01-.036.02a.037.037 0 0 0-.008.012v1.246L29.72.703l-.073-.45c0-.025-.026-.044-.05-.044H29c-.025 0-.05.023-.05.047v3.116c0 .025.025.05.05.05h.46c.023 0 .05-.025.05-.05V1.376c.228.48.6 1.052.645 1.165v.833c0 .025.025.05.05.05h.458c.026 0 .05-.025.05-.05V.257c0-.024-.024-.048-.05-.048zM17.387.2h-1.57c-.024 0-.05.026-.05.05v3.124c0 .024.026.048.05.048h1.57c.025 0 .05-.024.05-.048V2.93c0-.025-.025-.05-.05-.05h-1.06v-.92h.808c.026 0 .05-.024.05-.05V1.47c0-.024-.024-.048-.05-.048h-.808V.742h1.06c.025 0 .05-.024.05-.048V.25c0-.024-.025-.05-.05-.05zm3.6.97c0 .138-.126.25-.272.25h-.333V.742h.333c.15 0 .272.127.272.273v.156zm0 1.453c0 .146-.12.258-.272.258h-.333v-.92h.338c.146 0 .267.127.267.273v.39zM20.72.2h-.847c-.026 0-.05.026-.05.05v3.124c0 .024.024.048.05.048h.847c.464 0 .837-.356.837-.804v-.39c0-.19-.08-.39-.272-.536.212-.136.272-.37.272-.565V.96c0-.447-.373-.76-.837-.76zM4.396.2H2.962c-.025 0-.05.025-.05.05v.443c0 .024.025.05.05.05h.44v2.63c0 .025.026.05.052.05h.458c.026 0 .05-.025.05-.05V.743h.434c.025 0 .05-.026.05-.05V.25c0-.025-.025-.05-.05-.05zM1.62.2H.555C.263.2 0 .44 0 .737v2.15c0 .34.293.535.555.535H1.62c.025 0 .05-.024.05-.048V2.93c0-.025-.025-.05-.05-.05H.757c-.12 0-.197-.048-.197-.145V.888C.56.78.59.742.716.742h.904c.025 0 .05-.025.05-.05V.25c0-.025-.025-.05-.05-.05zm.94 0H2.1c-.026 0-.05.025-.05.05v2.63h-.002v.493c0 .025.026.05.052.05h.46c.024 0 .05-.025.05-.05V.25c0-.025-.026-.05-.05-.05zm3.963 0h-.51c-.026 0-.05.02-.05.045l-.056.458L5.65 1.72 5.387.704 5.322.245C5.322.22 5.296.2 5.272.2h-.51c-.03 0-.05.025-.05.054.034.263.055.472.145.79.142.492.46 1.422.505 1.55v.78c0 .024.025.048.05.048h.46c.025 0 .05-.024.05-.048v-.78c.045-.128.373-1.034.5-1.54.09-.366.1-.468.146-.8A.044.044 0 0 0 6.523.2zm2.424 2.534c0 .107-.095.146-.195.146h-.156c-.1 0-.197-.04-.197-.146V.894c0-.11.04-.145.156-.145h.235c.118 0 .157.033.157.144v1.84zM8.953.21h-.558c-.297 0-.553.247-.553.534v2.14c0 .298.246.536.553.536h.558a.543.543 0 0 0 .553-.535V.745c0-.288-.257-.535-.553-.535zm6.177 0h-.595c-.026 0-.052.018-.052.042l-.073.45-.38 1.02L13.647.7l-.074-.45c0-.024-.026-.043-.05-.043h-.596c-.025 0-.05.023-.05.047v3.116c0 .025.025.05.05.05h.458c.025 0 .05-.025.05-.05V1.646c.146.41.306.818.336.9.01.033.036.05.05.05h.413c.015 0 .042-.017.05-.05.03-.082.19-.49.337-.9v1.727c0 .025.025.05.05.05h.458c.025 0 .05-.025.05-.05V.257c0-.024-.025-.048-.05-.048zm-3.55 0H10.02c-.025 0-.05.024-.05.048V3.37c0 .025.025.05.05.05h.456c.025 0 .05-.025.05-.05V1.963h.805c.025 0 .05-.023.05-.048v-.442c0-.024-.025-.05-.05-.05h-.805V.75h1.056c.026 0 .052-.026.052-.05V.258c0-.024-.026-.048-.05-.048z" fill="#1A1918" mask="url(#anb)"/></g><path fill="#1A1918" d="M16.485 18.46l5.446-3.05v6.104l5.446 3.046 5.446-3.05V3.213L27.38.164 16.48 6.26 5.59.166.145 3.21v18.3l5.445 3.05 5.45-3.05v-6.1l5.445 3.05"/></g></svg><svg width="39" height="39" viewBox="0 0 39 39" id="logo-cityofportphillip" y="1027"><title>logo-cityofportphillip</title><g fill="#000" fill-rule="evenodd" opacity=".51"><path d="M33.026 5.63l-1.95 1.846.218.24.913-.864.68.75.21-.2-.68-.75.616-.58.753.83.21-.2zM27.82 4.555a1.073 1.073 0 0 1-.534-.64.978.978 0 0 1 .112-.786c.307-.507.974-.674 1.52-.38.54.29.723.916.416 1.422a1.09 1.09 0 0 1-.664.492 1.172 1.172 0 0 1-.85-.11m1.25-2.07c-.712-.382-1.58-.172-1.976.48-.396.653-.15 1.465.562 1.848.715.386 1.586.177 1.982-.476.396-.652.145-1.465-.57-1.85M20.028.008l-.818.995-.862-.963-.41.008 1.11 1.25.03 1.413.33-.005-.03-1.413L20.44 0zM14.715.626l-2.2.69.092.272.942-.295.765 2.252.318-.1-.767-2.25.942-.297zM9.1 3.25l.353-.228 1.47 2.277-.35.227zM7.664 6.9l-.026.1c-.096.38-.217.63-.406.84-.43.48-1.062.518-1.534.095-.46-.413-.5-1.067-.092-1.52.197-.22.445-.38.78-.503l.097-.036-.272-.245-.036.017a2.26 2.26 0 0 0-.794.55 1.457 1.457 0 0 0-.372 1.043c.02.364.183.7.46.95.28.25.63.38.99.36.378-.02.736-.2 1.01-.505.21-.232.364-.534.448-.873l.01-.037-.262-.236zM1.6 15.412a.726.726 0 0 1-.536-.882.727.727 0 0 1 .882-.535c.394.096.632.488.535.882a.726.726 0 0 1-.88.535M2.153 23.75l.108.39c.107.38.28.48.525.408.28-.08.335-.27.21-.723l-.082-.294-.76.22zm1.545.265c.213.765-.217 1.26-.664 1.39-.462.132-1.085-.048-1.3-.818l-.183-.662-1.318.38L0 23.473l3.283-.948.415 1.49zM4.728 27.84c-.325-.548-.886-.702-1.407-.386-.52.315-.653.888-.328 1.437.322.545.883.7 1.404.384.522-.316.654-.89.332-1.433m-2.33 1.41c-.622-1.057-.24-2.097.486-2.535.69-.417 1.796-.318 2.437.767.642 1.085.198 2.116-.487 2.53-.73.442-1.822.272-2.434-.763M6.75 31.862l.32.313c.166.164.396.25.59.038.173-.187.143-.398-.084-.62l-.304-.3-.52.57zm1.42-.558c.496.488.474 1.122.13 1.497-.25.276-.578.346-.975.206.13.372-.077.754-.41 1.823l-.662-.653c.232-.79.577-1.365.25-1.686l-.173-.17-.93 1.017-.603-.593L7.09 30.24l1.08 1.064zM12.832 34.873l-1.106-.59-1.37 2.423-.762-.406 1.37-2.422-1.106-.59.308-.545 2.974 1.587zM17.726 36.97l.404.032c.4.033.554-.098.576-.357.025-.295-.135-.416-.606-.455l-.307-.026-.067.805zm.807-1.386c.797.067 1.11.652 1.07 1.126-.042.488-.437 1.02-1.24.952l-.69-.057L17.554 39l-.87-.073.293-3.472 1.555.13zM25.028 38.342l-.825.164-.268-1.337-1.65.328.268 1.337-.826.165-.662-3.304.826-.165.266 1.328 1.65-.33-.264-1.326.825-.165zM26.227 34.128l.753-.36 1.437 3.013-.753.36zM32.954 33.88l-2.05 1.575-2.122-2.614.67-.514 1.734 2.135 1.378-1.06zM36.082 30.352l-1.656 1.974-2.724-2.066.542-.645 2.224 1.687 1.115-1.328zM37.334 28.05l-.39.73-2.947-1.563.39-.73zM36.647 24.338l.11-.367c.106-.36.01-.528-.24-.595-.28-.077-.428.05-.554.476l-.083.28.767.208zm-1.19-.994c.215-.725.84-.907 1.292-.785.465.126.906.586.69 1.315l-.186.627 1.33.36-.232.79-3.313-.896.417-1.412zM37.056 13.995a.726.726 0 0 1 .882.535.726.726 0 0 1-.535.882.726.726 0 0 1-.882-.535.726.726 0 0 1 .536-.882M17.29 23.358c-2.793-.62-4.675-5.575-11.165-2.804a12.9 12.9 0 0 1-.077-1.508c0-6.224 4.2-11.458 9.9-12.998.51.396 1.053 1.02.93 2.223-3.125-.08-4.222 1.335-4.222 1.335s1.927.24 2.462.78c-3.476.167-3.683 3.416-3.683 3.416s2.525-1.952 4.2-1.25c-2.68.67-2.834 3.25-2.834 3.25s1.923-1.98 3.413-1.486c-2.253 1.86-1.38 4.298-1.38 4.298 1.032-2.373 2.197-2.813 2.387-2.222-.855 2.157.258 3.593.07 6.968zm-7.137-8.668c-1.716 1.728-2.047 3.928-2.047 3.928s1.332-.49 2.55.054c0 0-.807-.75-.503-3.982z"/><path d="M6.883 24.072c1.955 5.07 6.87 8.67 12.628 8.67 6.503 0 11.933-4.59 13.235-10.706l-1.87-1.5-2.85 2.287-2.85-2.286-2.863 2.297-2.8-2.395v7.645c-6.453 0-7.593-6.638-12.63-4.013zM21.8 27.876a.612.612 0 1 0 0-1.225.612.612 0 0 0 0 1.226zm2.86 0a.612.612 0 1 0 0-1.223.612.612 0 0 0 0 1.223zm2.86 0a.612.612 0 1 0 0-1.223.612.612 0 0 0 0 1.223z"/><path d="M18.563 25.146c-4.722.03-5.81-6.332-12.306-3.228.12.63.246 1.023.246 1.023 5.652-2.65 7.015 3.32 12.06 3.964v-1.758zM31.01 17.495V14.93l-2.45.003v-2.55h-2.494v-1.127h4.567a13.558 13.558 0 0 0-11.02-5.625c-1.08 0-2.13.13-3.136.368 1 .307 2.09.536 2.713 2.113 2.69-1.264 4.48.142 4.48.142s-2.483.47-2.567 1.718c2.81-.917 3.67 1.186 3.67 1.186s-2.416-.595-3.146.688c2.516.25 2.893 2.685 2.893 2.685s-2.217-1.53-3.774-.25c3.02.936 2.642 3.602 2.642 3.602s-2.718-2.964-3.654-1.382c.267 1.146.153 2.383.153 2.383l2.558 2.17 2.84-2.26 2.854 2.27 2.853-2.27 2.1 1.67a13.586 13.586 0 0 0-.026-2.968H31.01zm-4.938-3.622h.99v1.054h-.99v-1.054zm2.508 2.566h.99v1.052h-.99V16.44z"/></g></svg><svg width="41" height="26" viewBox="0 0 41 26" id="logo-parksvictoria" y="1066"><title>logo-parksvictoria</title><g fill="#000" fill-rule="evenodd" opacity=".51"><path d="M32.38 6.26v1.82l-3.615-2.273L25.1 8.08l-3.614-2.273-3.614 2.272V6.26l3.614-2.22L25.1 6.26l3.665-2.22z"/><path d="M25.02 2.25v1.79L21.37 1.79l-3.6 2.25-3.603-2.25-3.652 2.25.05-1.79L14.166 0l3.602 2.25 3.6-2.25zM10.723 22.323l1.164 2.764h.405l1.164-2.764h-.405l-.96 2.392-.962-2.392zM14.087 22.323v2.764h.418v-2.764zM16.79 24.874h.248l.25-.05.198-.103.198-.153.15-.154.1-.204.098-.206.05-.205h-.398v.153l-.1.153-.05.103-.148.1-.1.103-.148.05-.2.053h-.398l-.198-.052-.198-.102-.15-.102-.1-.154-.098-.153-.05-.205v-.512l.05-.204.1-.154.1-.153.148-.103.198-.102.2-.05h.398l.148.05.15.05.148.052.1.103.05.102.1.153.048.154h.348l-.05-.205-.05-.205-.148-.205-.15-.154-.148-.102-.25-.102-.198-.052h-.248l-.348.052-.25.05-.247.103-.2.154-.197.203-.1.256-.05.255-.05.307.05.307.05.255.1.256.198.206.2.153.247.1.25.104zM19.83 25.087v-2.392h.985v-.372h-2.312v.372h.984v2.392zM28.385 22.323v2.764h.417v-2.764zM17.45 11.315v9.094h1.653v-4.782l.05-.364.053-.31.103-.313.154-.26.103-.31.207-.21.206-.26.206-.207.207-.155.206-.156.257-.104.258-.104.26-.052.308-.052.258-.052h.156l.103.052h.309l.154.052h.154l.155.052.155.052V11.16h-.103l-.052-.053h-.103l-.103-.052h-.879l-.205.052-.206.052-.258.05-.208.105-.258.052-.206.156-.207.104-.205.104-.155.156-.206.208-.207.156-.155.208-.154.208-.155.208v-1.56zM23.76 11.055v9.354h1.633v-3.275l1.635-1.35 3.73 4.624H32.8l-4.546-5.613 4.24-3.482h-2.4l-4.7 4.002v-4.262z"/><path d="M33.946 17.348H32.17l.05.41.1.357.103.358.152.307.152.307.203.307.203.205.305.203.254.205.304.154.356.153.355.102.457.103.406.05.507.052H37.092l.508-.05.456-.052.406-.103.406-.102.356-.153.355-.154.303-.153.254-.205.254-.204.204-.256.152-.256.102-.256.1-.307.052-.357V17.4l-.05-.257-.052-.256-.05-.204-.102-.205-.1-.205-.154-.153-.152-.154-.203-.153-.203-.103-.254-.102-.253-.102-.254-.102-.355-.102-.305-.052-.355-.05-1.93-.36-.455-.05-.406-.103-.356-.102-.303-.102-.203-.154-.152-.205-.102-.205-.05-.307.05-.256.102-.256.203-.203.253-.154.305-.153.406-.103.456-.05.558-.052h.304l.254.05h.254l.254.052.203.103.203.05.203.052.15.102.153.103.152.102.102.153.1.153.103.154.05.153.05.205.052.204h1.523v-.41l-.05-.306-.052-.307-.152-.257-.15-.307-.154-.204-.203-.256-.253-.205-.254-.152-.305-.154-.354-.153-.355-.1-.405-.053-.406-.05-.458-.052h-.964l-.457.05-.405.052-.406.052-.356.1-.305.154-.305.154-.254.153-.253.206-.203.205-.203.256-.15.256-.103.256-.05.307-.05.307-.052.358.05.256v.255l.102.257.05.256.153.154.102.205.152.153.203.153.203.102.254.103.254.153.254.052.304.102.355.102.357.05.355.053 2.03.358.355.102.355.05.254.104.203.152.202.102.102.154.1.204V17.962l-.05.153-.05.102-.05.154-.103.103-.15.102-.153.154-.152.05-.153.103-.253.05-.204.103-.254.05-.254.052h-.304l-.305.052h-.61l-.254-.052-.253-.05-.254-.052-.255-.05-.203-.103-.152-.103-.203-.102-.152-.103-.153-.153-.1-.102-.103-.205-.102-.153-.05-.205-.052-.205zM22.944 22.11l-.362.052-.258.05-.258.103-.207.153-.156.205-.155.256-.052.255-.052.307.052.307.05.255.156.256.155.206.206.153.258.1.258.104H23.254l.258-.103.258-.1.207-.154.206-.205.104-.255.05-.256.053-.308-.052-.307-.05-.256-.105-.257-.206-.205-.207-.153-.258-.102-.26-.05-.308-.053zm0 2.406h-.26l-.205-.052-.208-.102-.155-.103-.103-.154-.103-.153-.05-.205v-.512l.05-.205.104-.152.103-.154.155-.102.207-.102.205-.052H23.15l.26.052.153.102.155.102.104.154.103.153.052.206v.512l-.052.205-.103.153-.104.153-.155.102-.154.102-.26.052h-.206zM10.212 12.66h.05c.58-.113 1.06-.186 1.55-.18 1.114.015 2.09.22 2.088 1.36 0 .75-.578 1.08-1.434 1.08-.653.13-1.34.143-2.007.222-1.1.13-2.34.23-3.12 1.067-.456.49-.612 1.04-.612 1.69 0 .914.266 1.4.855 1.928.718.642 1.753.776 2.698.793 1.326.025 2.89-.595 3.672-1.64.262.92.566 1.387 1.588 1.387.433 0 .853-.052 1.28-.052V18.98c-.318.06-.538.077-.718.004-.517-.21-.562-.888-.562-1.29v-3.597c0-.7-.084-1.328-.513-1.9-.624-.784-1.597-.982-2.56-1.08-.7-.072-1.4-.093-2.102 0 0 .515.08 1.072-.153 1.542zm1.486 3.647c.468 0 1.87-.23 2.203-.565v1.388c0 .86-.73 1.393-1.434 1.747-.625.25-1.326.36-1.998.36-1.042-.117-1.998-.196-1.998-1.388 0-.732.476-1.114 1.332-1.286.576-.077 1.328-.143 1.896-.257z"/><path d="M0 7.654v12.968h1.924v-5.844H4.98c2.46 0 4.692-.63 4.692-3.536 0-2.953-2.193-3.588-4.71-3.588H0zm4.37 5.69H1.924V9.14h2.942c1.57 0 3.084.286 3.084 2.153 0 2.1-1.99 2.05-3.58 2.05zM25.02 22.323v2.764h.345v-1.17h1.23l.05.053.098.054.05.053v.106l.048.053v.16l.05.425v.214l.05.054h.393l-.05-.106v-.159l-.048-.105v-.426l-.05-.107v-.106l-.05-.107v-.053l-.048-.053-.098-.053-.05-.052h-.1l.1-.053.098-.053.05-.054.048-.106.05-.053.05-.108.048-.106v-.16l-.05-.158-.048-.16-.05-.106-.098-.106-.148-.107-.147-.054-.148-.053H25.02zm.345.32h.984l.147.052h.148l.098.053.098.053.05.108v.425l-.05.107h-.097l-.098.052-.1.053h-1.18v-.903zM30.63 22.323l-1.194 2.764h.348l.348-.798h1.342l.298.797h.397l-1.144-2.764h-.397zm.694 1.594H30.28l.547-1.17.497 1.17z"/></g></svg><svg width="53" height="25" viewBox="0 0 53 25" id="logo-tac" y="1092"><title>logo-tac</title><g fill="#231F1F" fill-rule="evenodd" opacity=".51"><path d="M38.87 15.098c0 2.46 2.007 4.456 4.484 4.456a4.486 4.486 0 0 0 4.13-2.722l5.05 2.12A9.967 9.967 0 0 1 43.355 25c-5.504 0-9.965-4.433-9.965-9.902v.128c0-5.47 4.46-9.902 9.964-9.902a9.97 9.97 0 0 1 9.18 6.047l-5.05 2.12a4.486 4.486 0 0 0-4.13-2.72c-2.477 0-4.484 1.995-4.484 4.456v-.128M5.93 24.306V12.142H0V6.25h17.98v5.892h-5.93v12.164zM24.1 10.915l3.9 7.843h-7.76l3.86-7.843zM24.1 0L12.14 24.306h24.05L24.1 0zm-3.935 18.75l3.797-7.802 2.656-5.458-1.334-2.712-7.772 15.972h2.653z"/></g></svg><svg width="39" height="37" viewBox="0 0 39 37" id="logo-theuniversityofmelbourne" y="1117"><title>logo-theuniversityofmelbourne</title><g fill="none" fill-rule="evenodd" opacity=".51"><path d="M27.92 18.973c1.123-1.252 1.78-3.338 1.78-5.378l-.095-1.206-.14-1.346-.188-1.252-.187-1.206c-.047-.37-.093-.788-.047-1.16-.046-1.065.234-2.086 1.17-2.78l-.468-.604c.42-.37.61-.742.375-.834.14-.093 1.778-1.948.234-1.113.327-.186.56-.742.655-1.113-.61.092-.844.185-1.452.37l-1.45.557L26.703.053c-.094.14-.188.232-.28.325-.563.51-1.405.51-2.154.416L22.866.564l-1.123-.14A13.215 13.215 0 0 0 18.42.287l-1.31.14-1.59.277c-.984.14-2.34.325-2.95-.695l-1.544 1.948c-.187-.047-.468-.14-.795-.186-.046.186.14.51.375.788l-.234.325L9.06 4.6c1.217.88 1.217 2.41 1.077 3.755l-.374 2.272-.14 1.205c-.094.696-.14 1.438-.094 2.18.092 3.802 2.385 6.677 5.942 7.883l.75.278c1.17.51 2.34.974 3.32 1.948.048-.046.095-.046.095-.092 1.17-1.067 2.574-1.577 3.978-2.087 2.667-.926 3.603-2.086 4.305-2.967z" fill="#000"/><path d="M14.536.982l.468-.093L17.11.563l1.404-.14c1.357-.138 2.76.048 4.024.233l1.872.325c.796.046 1.638 0 2.2-.557l.094-.14 1.263 1.67a3.69 3.69 0 0 0-.655.232h-.047l-.655-.88c-.655.37-1.404.417-2.2.37l-1.076-.185-1.357-.232-1.45-.14c-.843-.092-1.732-.046-2.575.047l-1.17.186-2.012.278c-.75.047-1.498-.045-2.106-.37l-.75.974a4.13 4.13 0 0 1-.7-.232L12.57.24c.468.65 1.217.695 1.966.742z" fill="#FFF"/><path d="M14.536.982l.468-.093L17.11.563l1.404-.14C19.654.31 20.72.39 22.538.658l1.872.325c1.03.06 1.714-.076 2.2-.557l.094-.14 1.263 1.67c-.21.052-.483.147-.655.232h-.047l-.655-.88c-.585.33-1.256.425-2.2.37l-1.076-.185-1.357-.232-1.45-.14c-.76-.083-1.597-.06-2.575.047l-1.17.185-2.012.28c-.813.05-1.537-.068-2.106-.372l-.75.974c-.194-.04-.353-.094-.7-.232L12.57.24c.39.54.843.672 1.966.742zm0 0C13.413.91 12.96.78 12.57.24l-1.357 1.762c.348.138.507.193.702.232l.75-.974c.568.304 1.292.42 2.105.37l2.012-.277 1.17-.186c.978-.107 1.814-.13 2.574-.046l1.45.14 1.358.232 1.076.185c.944.056 1.615-.04 2.2-.37l.655.88h.047c.172-.085.445-.18.655-.23L26.704.286l-.094.138c-.486.48-1.17.617-2.2.556L22.54.658C20.72.39 19.654.307 18.513.425l-1.404.14-2.106.324-.468.09z"/><path d="M30.868 1.12c-.327.743-.608.975-1.076 1.114l-2.06.65c-.327.092-.654.324-1.028.462-1.404-.51-2.48-.092-2.95.047-.654.232-1.17.556-1.73.974a.258.258 0 0 0-.234-.14c.093.093.187.325.234.418.046 0 .28-.14.468 0 .187.186-.047.37-.14.556.233-.184.42-.277.654-.184.235.185-.093.464-.187.603.186 0 .374-.187.608-.048.093.186-.14.28-.328.37.187 0 .42.094.562.233-.234.14-.515 0-.796-.046-.515-.14-.655-.326-1.17-.465-.14-.046-.374-.093-.515-.046-.092-.048-.233-.048-.326-.048.75-.232.56-1.113.89-1.67.373-.648 1.122-.787 1.777-.88.89-.14 1.826-.093 2.622-.325l.702-.185 1.123-.417 1.59-.557c.422-.14.844-.324 1.31-.417z" fill="#FFF"/><path d="M30.915 2.002c-.14.278-.56.88-.89 1.066-.56.325-1.262.464-1.964.557-.467.092-.56 0-1.03-.047l-.28-.046c1.077-.556 2.013-.788 3.23-1.113.608-.233.7-.325.935-.418zM30.026 3.486c-.047.14-.234.417-.374.556-.234.186-.328.278-.983.417-.516.046-1.452.14-1.545-.047.702-.278.702-.51.842-.603.56-.046 1.123-.14 2.012-.464.093-.046.14.047.046.14zM26.19 3.393c.326.093.56.185.42.232-1.17.232-1.825.37-3.838 1.16.047-.047-.093-.233-.14-.28-.047-.046-.327-.092-.42-.092 1.403-.742 2.01-1.16 3.555-1.113.094 0 .28.046.422.093zM20.152 3.115c-.28-.093-.562 0-.75.046-.186.048-.42.186-.514.326.328.092.702.046 1.03.092.187.047.327.232.514.14.14-.14.14-.186.14-.28-.046-.045-.14-.23-.42-.323zM27.593 3.903c0 .14-.375.232-.422.325-.466.23-.513.37-1.028.463l-1.404.372c-.374.093-.89.232-1.497.325.14-.232.188-.418-.046-.556l2.48-.788c.795-.232 1.45-.417 1.92-.14zM20.01 3.717c.142.047.422.325.516.51.047.093 0 .232-.094.28-.093.045-.14.138-.187.184.047-.09 0-.138-.046-.184-.048-.047-.142-.14-.19-.232-.28 0-.794 0-.794-.232.047-.046.42 0 .514 0 .14 0 .28 0 .422.093h-.094c.047.093.14.14.234.093.047 0 .047-.093.047-.14-.048-.092-.188-.092-.33-.14h-.888c-.093-.045-.28-.277-.374-.323 0-.047.047-.047.093-.047.33.093.797.093 1.17.14M13.46 3.903c.748.232.795.464.982.974l-1.31-.093c-1.59-.185-2.153-1.438-2.433-2.04 1.075.788 2.338 1.113 2.76 1.16z" fill="#FFF"/><path d="M29.558 4.367c-.374.51-.75.788-1.263.927-.28.046-.515.186-.843 0-.608-.37-.89-.603-.56-.695 1.075.23 2.198-.048 2.666-.233zM14.676 5.387l.188.185H13.46c-.422 0-1.124-.51-1.357-.788a5.923 5.923 0 0 0 1.404.232c.467.046.842-.047 1.17.37zM16.314 5.572c-.046.093.14.28-.093.186-.608 0-1.356-.186-1.684-.742.234 0 .42 0 .562.046.468.186.795.278 1.216.51z" fill="#FFF"/><path d="M27.452 5.572c-.093.232-.327.232-.515.28 0-.048-.046-.14-.233-.14-.14 0-.235.046-.328.046.047-.047.093-.186.047-.278 0 0-.047-.047-.094-.047-.048 0-.095.093-.188.093-.187.093-.468.14-.655.37l-1.077.14c-.234 0-.702 0-.89-.14 0 0 .282-.138.142-.37l1.918-.464c1.17-.37.983-.278 1.404.186l.468.324" fill="#FFF"/><path d="M26.33 5.62c0 .184-.235.23-.328.37l-.094.092c.094 0 .187-.046.28-.14.14-.045.656-.138.656-.045 0 .093-.094.232-.187.278-.28.14-.655.325-1.03.232-.234 0-.42.093-.608.14l-1.03.277c-.375.093-.796.186-1.17.047-.562-.092-1.124-.23-1.732-.23-.094.045-.187.092-.234.138.093 0 .187-.046.234 0-.047.185-.047.417-.187.556-.046 0-.046-.046-.046-.092-.094-.464-.328-1.113.187-1.484.235-.047.516.046.75.14.42.277.982.323 1.497.51.187-.047.42-.094.61-.14l1.496-.186c.234.047.28-.278.515-.324.14 0 .234-.093.374-.186 0 0 .047 0 .047.047M28.716 5.248c-.328 1.02-1.076.834-1.404.65.374-.14.374-.326.374-.326.515 0 .75-.14 1.03-.324zM16.033 5.99c-.14.046-.14.092-.093.185 0 .046.093.093.093.093-.093.046-.093.324-.233.232-.422-.232-.75-.37-1.264-.37-.28-.048-.89-.233-1.123-.372.515 0 .702.046.936.046.326 0 .56-.093.56-.093.42.048.702.14 1.123.28z" fill="#FFF"/><path d="M14.162 6.268c.046-.047.234-.093.42-.047.328.048.516.094.796.28.468.14.89.51 1.404.65.047-.047-.047-.094-.093-.094.326-.232.654-.464 1.028-.603.234-.278.562-.556.936-.51l.047.093c.048.232-.186.417-.186.696l-.468.185-1.217.696c-.328.278-.47 0-.797-.232-.374-.185-.748-.37-1.076-.695 0 0 .094 0 .047-.046-.14 0-.28.092-.468.138-.047 0-.187.046-.234 0l.047-.046c.093-.047.093-.186.28-.232-.14-.14-.375-.186-.515-.186l.047-.046zM27.733 6.36c-.187.372-.936.14-1.03.28-.046.092.328.045.468.277-.373.278-1.31-.14-1.45 0-.14.093.282.093.375.278-.562.28-.842.047-1.404-.14-.092-.045-.092 0-.186-.045.047.232.234.14.327.324-.373.093-.654-.14-.934-.324.56-.14 1.076-.418 1.637-.51.515.092 1.124-.093 1.358-.37.094-.14.188-.094.235-.094 0 0 .56.14.608.325zM23.1 7.15c.28 0 .468-.094.702-.14.14.093.047.37-.094.37.047.14.188.325.14.51-.093-.046-.514-.23-.514-.23.094.184.234.463.187.648-.14-.14-.467-.14-.607-.232.047.232.234.557 0 .79-.187-.14-.28-.326-.468-.51.047.23.093.6-.047.787-.093-.14-.562-.278-.515-.417-.047-.047-.187.463-.327.51-.14-.186-.28-.464-.515-.603.048-.047.14-.047.14-.14-.14-.185-.326-.185-.513-.324-.235-.094.046-.233.046-.233.328-.14.375-.51.42-.834.142-.28.516-.186.797-.186.375.046.796.14 1.17.232zM18.233 7.103c0 .092-.094.14-.14.23-.094.233 0 .465.234.604.093.093.187.14.28.232-.327.23-.514.648-.56.74-.095-.138-.142-.37-.142-.555-.093.092-.28.185-.374.185-.046-.093.095-.325.095-.417 0 0-.328 0-.422.046-.046-.186.094-.28.188-.372-.046-.093-.374-.046-.42-.093a13.99 13.99 0 0 1 1.17-.602h.093z" fill="#FFF"/><path d="M20.292 8.262c-.14-.093-.515-.14-.655-.093-.328 0-.702-.047-.983.092h.047l-.093.046c-.093.093-.046.093-.14.186 0 .046-.234.324-.187.37-.047.093-.094.186-.094.233.094.14.187.092.28.14-.093-.094-.093-.14-.093-.187-.046-.14.188-.464.28-.603.048-.046.095-.092.142-.092h.046c-.14.185-.233.37-.326.556 0 .094 0 .14.047.233.047.046.282.046.375.046-.047-.186.094-.28 0-.51.047 0 .094 0 .14.046.047.23-.093.37.094.556.233.093.327-.093.514-.185.046-.28 0-.557-.047-.79.14.048.187.465.28.558.094.046.14 0 .188-.047.187-.185 0-.417-.14-.603.046 0 .187 0 .28.232.14.28 0 .232.094.37.046-.045.28-.045.327-.045.234-.186.14-.232.28-.278a3.675 3.675 0 0 0-.655-.232M18.327 12.9l.655.926c.28.557.655 1.113.983 1.623.187.37.42.65.655 1.066.28.278.374.324.514.556-.42.278-.327.742-.748.974 0 0-1.17.37-1.59-.186-.33-.51-.516-1.437-.376-2.133.234.418.61.928.843 1.067l.046-.046a9.784 9.784 0 0 0-.983-1.438c-.328-.463-.188-1.16-.28-1.715 0 0 .046 0 .046-.047.093.047.093.185.14.232a.625.625 0 0 0 .374.325l-.187-.372-.374-.927c-.047-.14-.234-.464-.094-.51l.375.603zM24.738 18.973c.093.14.14.232.14.418-.047.093-.047.14-.14.186-.328-.14-.795-.14-.75-.603 0 0 .376-.602.75 0z" fill="#FFF"/><path d="M22.913 11.693c.28.37.56.696.56.696-.092-.094-.467-.187-1.028-.836-.14-.185-.375-.464-.42-.417-.048.093.14.232.186.278 0 0 .703.927.562.927-.093 0-.467-.37-.702-.74-.28-.42-.748-1.114-.842-1.624 0 0 .796 1.02.983 1.112 0 0-.56-.88-.654-1.16-.094-.277-.422-1.02-.655-1.25 0 0 .047.092-.233.23-.235.094-.28-.045-.562.047-.234.093-.187.14-.328.28-.187.138-.56.416-.795.045 0 0-.328.232-.61.093 0 0-.513 1.623-.42 1.994 0 0 .187-.187.375-.094.14.093.28-.186.514-.093.19.093-.092.603.002.65.093.092.187-.14.374-.047.187.093.047.37.234.37.14 0-.047-.834.187-.834 0 0 0 .557.234.696 0 0-.28-1.252.14-2.272 0 0-.092 1.484.048 2.086 0 0 .234-.556.562-.324.28.185 0 .603.14.65.187.045.468-.233.562-.326.14-.092.28-.14.374 0 .14.325-.187.232-.14.418.093.185.234.092.42.185.282.14-.467.278-.14.464.234.184.75.23 1.17.184 0 0 .796.325 1.077.51-.047-.14-.187-.232-.187-.417a.8.8 0 0 1 .514.65c.047 0 .14 0 .188-.14.046-.232-.094-.417.093-.556.14-.092.33-.092.47-.092-.422-.278-2.013-1.252-2.247-1.345zM20.526 5.572c-.42-.14-.28-.603-.327-.927 0-.046-.095-.093-.142-.046-.14 0-.28.184-.374.045.046 0 .14 0 .187-.046.048-.048.095-.094.095-.187-.047-.046-.094-.046-.14-.046 0 .046-.048.046-.048.092-.14 0-.234-.14-.42-.093-.094 0-.14-.093-.188-.14-.048-.185-.282-.324-.422-.463-.094.14-.14.232-.14.37 0 .094.187.047.233.094.142.046-.092.14-.092.185-.047 0-.047-.046 0-.093.047-.046-.047-.046-.094-.092 0 .185-.093.324-.093.463l.14.048c.048.046 0 .093 0 .14a.145.145 0 0 0 .095.045h.046c.002.046-.045.046-.045.046h-.047c0 .046 0 .092.093.092.048.047-.045.186.048.232.328 0 .515-.232.75-.417-.048.14-.235.232-.282.37-.047.14 0 .325-.093.464-.047.187-.328.094-.375.28 0 .185-.093.417.094.556.28 0 .515-.046.748-.185.375-.14.656-.51.983-.74-.093 0-.14 0-.187-.048" fill="#FFF"/><path d="M22.632 21.43c-1.076.372-2.153.882-3.09 1.578-.935-.696-1.964-1.206-3.04-1.623-4.072-1.206-6.318-4.915-6.13-7.79V12.39l.186-1.253.374-2.272.094-.79c.047-1.25 0-2.642-.89-3.57l.796-1.02s-.233-.23-.374-.648c-.42.51-.936 1.205-1.31 1.715.374.325.655.696.795 1.113.328.88.328 1.994.188 2.968l-.28 1.716-.187 1.297a16.06 16.06 0 0 0-.094 2.597c.093 2.55 1.59 6.167 5.99 7.558 1.356.51 2.713 1.067 3.883 2.087.843-.743 1.78-1.207 2.762-1.624l1.17-.418c4.726-1.576 6.13-5.425 6.083-8.3l-.047-1.252-.14-1.066-.373-2.412a7.22 7.22 0 0 1 0-2.457c.046-.278.28-1.16 1.03-1.715-.375-.603-.048-.232-1.03.51 0 0-.094.556-.655.974-.188.787-.235 1.854-.047 2.688l.233 1.484.188 1.206c.093.834.14 1.716.093 2.597-.047 2.365-1.498 5.98-6.178 7.326z" fill="#FFF"/><path d="M1.34 28.99v.788c.046.093.046.185.14.185h.187v.047h-.89s0-.047.047-.047h.094c.047 0 .093-.092.093-.185.048-.14.048-.417.048-.788v-1.484h-.56c-.235 0-.282.046-.376.092 0 .093-.047.093-.047.14 0 0 0 .046-.046.046v-.046c0-.047.092-.325.092-.37v-.094c.047 0 .094.046.187.046.093.047.233.047.28.047h1.357c.187 0 .28-.047.328-.047V27.784c-.047 0-.047 0-.047-.046v-.047c0-.092-.094-.184-.42-.184h-.47v1.484M4.99 28.99c0 .37 0 .65.046.788 0 .093 0 .185.14.185h.14l.048.047h-.936s0-.047.046-.047h.094c.094 0 .094-.092.094-.185.046-.14.046-.417.046-.788v-.37H3.117v.37c0 .37 0 .65.047.788 0 .093 0 .185.14.185h.14c.048 0 .048.047.048.047H2.555l.047-.047h.093c.094 0 .094-.092.14-.185v-2.181c0-.09-.046-.184-.14-.184h-.14l-.047-.046h.889s0 .046-.047.046H3.26c-.094 0-.094.093-.094.185-.047.14-.047.232-.047.79v.045c0 .046.047.046.047.046h1.498c.046 0 .046 0 .046-.047V27.597c-.046-.09-.046-.184-.187-.184H4.43c-.047 0-.047-.046-.047-.046h.89l-.047.046H5.13c-.094 0-.14.093-.14.185v1.392M6.066 28.387v-.79c0-.09-.047-.184-.188-.184h-.093c-.047 0-.047-.046-.047-.046h1.31c.047 0 .094-.047.14-.047h.047v.187c0 .045-.046.184-.046.23v.047c-.048 0-.048 0-.048-.046v-.14c-.047-.046-.094-.092-.28-.092h-.515v.973c0 .046 0 .046.046.046h.562c.093 0 .14 0 .14-.047.047-.047.047-.047.094-.047v.046s0 .046-.048.185v.278h-.047v-.14c-.047-.045-.047-.092-.187-.138h-.561v.927c0 .28.093.325.42.325.094 0 .235 0 .328-.046.094-.046.14-.138.187-.278 0-.046 0-.046.047-.046v.046c0 .047-.048.28-.048.37 0 .094-.047.094-.187.094-.562 0-.795-.046-.89-.046H5.786s0-.047.047-.047h.093c.094 0 .094-.092.094-.185.046-.14.046-.417.046-.788v-.603M9.2 28.387v-.79c0-.09-.046-.184-.186-.184H8.92l-.047-.046h.89s0 .046-.047.046H9.67c-.14 0-.14.093-.14.185v1.252c0 .51.092.742.233.882a.745.745 0 0 0 .56.23c.235 0 .422-.138.563-.277.14-.185.187-.51.187-.88v-1.208c0-.09-.047-.184-.14-.184h-.14v-.046h.794l-.047.046h-.093c-.093 0-.14.093-.14.185V28.758c0 .37-.047.788-.328 1.066-.235.232-.515.232-.75.232-.093 0-.467 0-.7-.232-.19-.185-.33-.417-.33-.927v-.51M12.477 29.546c0 .278.047.37.14.417h.187v.047h-.842c0-.047.047-.047.047-.047h.14c.093-.046.093-.14.093-.463v-2.04c0-.14.047-.186.047-.186.046 0 .093.093.14.14.047.045.562.648 1.123 1.205.375.37.75.833.89.926l-.047-1.808c0-.232-.047-.28-.14-.325h-.188l-.047-.046h.843l-.047.046h-.094c-.093 0-.14.093-.14.325v2.086c0 .232 0 .232-.047.232l-.234-.232a26.957 26.957 0 0 1-.936-.974c-.42-.417-.842-.88-.936-1.02l.047 1.716M15.987 28.99c0 .37 0 .65.046.788 0 .093 0 .185.14.185h.14l.048.047h-.935s0-.047.047-.047h.094c.093 0 .093-.092.093-.185.046-.14.046-.417.046-.788v-1.393c-.047-.09-.047-.184-.14-.184h-.094c-.047 0-.047-.046-.047-.046h.843l-.047.046h-.093c-.094 0-.094.093-.14.185v1.392M18.046 29.592c.187-.463.702-1.715.75-1.947.046-.093.046-.14.046-.14 0-.046 0-.092-.047-.092h-.14s-.048 0-.048-.046H19.403l-.047.046c-.047 0-.093 0-.187.046-.048 0-.095.092-.188.324-.047.093-.234.51-.42.927-.19.558-.376.93-.423 1.114-.14.186-.14.232-.188.232-.047 0-.047-.046-.093-.185l-.89-2.18c-.094-.184-.14-.23-.28-.277h-.142v-.046h.936s0 .046-.047.046h-.14c-.047 0-.047.046-.047.093 0 .046.047.14.094.278l.702 1.808M19.918 28.387v-.79c0-.09-.047-.184-.14-.184h-.14v-.046H20.9c.047 0 .14-.047.14-.047h.048c.046 0 .046 0 .046.047 0 0-.046.046-.046.14v.23c0 .047-.047.047-.047.047s-.046 0-.046-.046v-.14c-.047-.046-.047-.092-.234-.092h-.515v1.019h.562c.094 0 .14 0 .187-.047 0-.047.047-.047.047-.047V28.664c0 .046-.046.185-.046.232v.046h-.047v-.14c0-.045-.046-.092-.187-.138h-.515v.927c0 .28.047.325.375.325.093 0 .28 0 .374-.046.094-.046.14-.138.14-.278 0-.046.047-.046.047-.046v.046c0 .047 0 .28-.046.37 0 .094-.046.094-.187.094-.515 0-.748-.046-.89-.046h-.373v-.047h.14c.047 0 .094-.092.094-.185v-1.391M22.305 27.506s.046 0 .046-.047h.235c.375 0 .61.278.61.695 0 .278-.095.464-.19.556-.092.048-.186.094-.28.094-.14 0-.327-.046-.374-.093 0 0-.045 0-.045-.045v-1.16zm-.28 1.484v.788c0 .093-.048.185-.095.185h-.14v.047H22.68s0-.047-.048-.047h-.14c-.094 0-.14-.092-.14-.185-.047-.14-.047-.417-.047-.788v-.093h.514c.093.093.28.324.42.556.188.232.328.418.468.51.094.047.188.047.375.047h.374l-.047-.047h-.14c-.094 0-.234-.046-.42-.23-.235-.233-.47-.558-.75-.93.28-.277.42-.556.42-.834 0-.232-.186-.418-.233-.464-.187-.14-.468-.14-.655-.14h-.889v.047h.14c.094 0 .14.093.14.185v1.392zM24.598 29.963c-.047 0-.047 0-.047-.092 0-.185.048-.324.048-.417v-.046c.046 0 .046 0 .046.046v.14c.047.278.28.37.515.37.373 0 .514-.278.514-.51 0-.232-.094-.37-.42-.603l-.142-.14c-.374-.323-.468-.555-.468-.787 0-.37.28-.65.75-.65.14 0 .233.047.327.047.094.047.094.047.14.047V27.83c-.046 0-.046 0-.046-.046s0-.14-.047-.186c0-.046-.093-.185-.467-.185-.234 0-.422.14-.422.417 0 .186.094.325.422.603l.14.093c.42.324.515.51.515.835 0 .14-.094.418-.328.557-.14.14-.327.14-.515.14-.187 0-.327 0-.514-.094M27.125 28.99v.788c0 .093.046.185.14.185h.187v.047h-.889v-.047h.14c.047 0 .094-.092.094-.185v-2.181c0-.09-.047-.184-.093-.184h-.14v-.046h.795v.046h-.095c-.094 0-.14.093-.14.185v1.392M29.09 28.99v.788c0 .093.047.185.14.185h.188v.047h-.889v-.047h.14c.048 0 .095-.092.095-.185V27.506h-.515c-.234 0-.328.046-.375.092-.046.093-.046.093-.046.14 0 0 0 .046-.047.046v-.046c0-.047.047-.325.093-.37v-.094c.047 0 .094.046.188.046.094.047.235.047.282.047h1.31c.234 0 .327-.047.374-.047V27.784c-.047 0-.047 0-.047-.046v-.047c0-.092-.094-.184-.47-.184h-.42v1.484M31.336 29.13c0-.233-.046-.28-.093-.372 0-.093-.468-.88-.61-1.02a1.777 1.777 0 0 0-.232-.28c-.046-.045-.14-.045-.187-.045v-.046h.749s-.047 0-.094.046l-.046.046c0 .046.046.092.046.138.094.093.61 1.02.702 1.113.047-.138.515-.926.562-1.02.047-.092.094-.138.094-.184 0-.047-.047-.093-.094-.093l-.047-.046H32.787l-.047.046c-.046 0-.093 0-.187.046l-.187.185c-.094.14-.608.974-.655 1.113-.046.14-.046.232-.046.37v.65c0 .093.047.185.14.185h.14c.048 0 .048.047.048.047h-.89v-.047h.093c.094 0 .14-.092.14-.185v-.65M34.378 28.572c0-.742.468-1.16 1.03-1.16.56 0 1.123.465 1.123 1.3 0 1.066-.7 1.25-.982 1.25-.655 0-1.17-.555-1.17-1.39zm-.327.093c0 .65.422 1.39 1.358 1.39.89 0 1.45-.648 1.45-1.436 0-.836-.608-1.346-1.403-1.346-.983 0-1.404.835-1.404 1.39zM37.56 28.387v-.79c-.046-.09-.046-.184-.187-.184h-.093c-.047 0-.047-.046-.047-.046h1.357c.047 0 .094 0 .14-.047h.047s.047 0 .047.047c0 0-.047.046-.047.14v.23c0 .047-.047.047-.047.047s-.046 0-.046-.046v-.14c-.047-.046-.094-.092-.234-.092H37.84v1.02H38.5c.092 0 .14 0 .14-.047l.046-.047c.046 0 .046 0 .046.046 0 0-.046.046-.046.185v.232c0 .046 0 .046-.047.046 0-.046-.047-.093-.047-.14 0-.045-.047-.092-.187-.138h-.515c-.047 0-.047 0-.047.046v1.068c.048.093.048.185.142.185h.187l.046.047h-.936s0-.047.047-.047h.093c.094 0 .094-.092.094-.185.047-.14.047-.417.047-.788v-.603M5.036 35.99c0 .187.047.512.28.604.188.047.329.047.375.047h.048c0 .047-.047.093-.14.093-.094 0-.702-.046-.936-.046a.207.207 0 0 1-.14-.046c0-.046 0-.046.046-.046v-.232l-.28-2.828L2.93 36.41c-.14.23-.14.277-.187.277-.047 0-.094-.046-.187-.232-.14-.278-.61-1.252-.655-1.298-.046-.093-.7-1.438-.748-1.577l-.234 2.55v.325c0 .047.047.14.14.14a.468.468 0 0 0 .188.046h.046c0 .047 0 .093-.093.093-.19 0-.47-.046-.516-.046-.047 0-.328.046-.468.046-.047 0-.094-.046-.094-.092H.355c.187-.046.187-.278.234-.463l.375-3.663c0-.047.046-.093.093-.093 0 0 .047.047.047.094l1.73 3.477 1.64-3.476c.046-.047.046-.093.093-.093s.047.047.094.14l.374 3.43M6.627 34.137V32.93c-.047-.185-.094-.277-.234-.324H6.16l-.048-.046c0-.046.047-.046.094-.046h1.92c.14 0 .234 0 .28-.047h.047c.047 0 .047 0 .047.047 0 .046-.048.092-.048.278 0 .046-.046.278-.046.37 0 0 0 .047-.047.047 0 0-.048-.047-.048-.094v-.185c-.047-.092-.094-.138-.42-.185h-.75c-.047 0-.047 0-.047.047v1.53c0 .046 0 .046.047.046h.89c.14 0 .186-.046.233-.092.047-.047.094-.047.094-.047.046 0 .046 0 .046.046 0 0-.047.092-.047.278 0 .14-.048.325-.048.37v.094c-.047 0-.047 0-.047-.047 0-.045 0-.09-.047-.184 0-.093-.047-.186-.28-.186-.14 0-.703-.046-.796-.046-.047 0-.047.046-.047.046V36.038c0 .417.094.464.655.464.14 0 .375 0 .515-.047.187-.093.234-.185.28-.417 0-.047 0-.093.048-.093.046 0 .046.046.046.093 0 .046-.047.417-.094.556-.047.14-.094.14-.28.14-.89 0-1.264-.047-1.405-.047-.046 0-.373.046-.56.046-.047 0-.094-.046-.094-.046 0-.046.047-.046.047-.046.047 0 .14 0 .187-.046.093 0 .14-.14.14-.278.047-.232.047-.696.047-1.206v-.973M10.51 35.11c0 .835.048 1.16.142 1.252.093.093.234.14.655.14.327 0 .56 0 .702-.14.046-.092.14-.23.14-.37 0-.047 0-.047.046-.047.047 0 .047 0 .047.093 0 .046-.047.37-.094.556-.047.093-.047.14-.375.14-.796 0-1.17-.047-1.498-.047-.046 0-.374.046-.56.046-.048 0-.095-.046-.095-.046 0-.046.047-.046.047-.046.093 0 .14 0 .186-.046.094 0 .14-.14.187-.278V32.93c0-.185-.046-.277-.234-.324H9.62c-.047 0-.047-.046-.047-.046 0-.046 0-.046.094-.046h1.217c.045 0 .092 0 .092.046 0 0 0 .046-.048.046h-.187c-.14 0-.187.14-.234.325v2.18M13.834 32.745c0-.046 0-.046.047-.046.094-.047.235-.047.282-.047.56 0 .748.51.748.974a.987.987 0 0 1-.187.556c-.14.14-.187.14-.515.14h-.327c-.046-.047-.046-.047-.046-.094v-1.485zm-.468 2.365v1.206c-.047.14-.094.278-.187.278-.048.047-.095.047-.188.047v.047s0 .046.046.046c.188 0 .562-.046.562-.046.047 0 .608.046.75.046.98 0 1.45-.602 1.45-1.205 0-.65-.562-1.067-.983-1.206.28-.232.514-.51.514-.974 0-.278-.186-.834-1.122-.834h-1.216c-.094 0-.094 0-.094.046 0 0 0 .046.047.046h.187c.187.047.234.14.234.325v2.18zm.468-.602v-.047c.094 0 .374 0 .468.048.14 0 .28 0 .468.14.42.277.515.787.515 1.112 0 .65-.468.788-.75.788-.14 0-.373 0-.514-.093-.186-.093-.186-.14-.186-.417v-1.53zM17.25 34.46c0-1.25.702-1.854 1.638-1.854.89 0 1.685.742 1.685 2.087 0 1.577-1.03 1.9-1.544 1.9-1.03 0-1.78-.833-1.78-2.132zm-.56.14c0 1.02.654 2.18 2.198 2.18 1.357 0 2.246-1.02 2.246-2.272 0-1.3-.935-2.087-2.2-2.087-1.59 0-2.245 1.3-2.245 2.18zM22.258 34.137V32.93c0-.185-.047-.277-.234-.324h-.188c-.046 0-.046-.046-.046-.046 0-.046 0-.046.093-.046h1.17c.094 0 .094 0 .094.046 0 0 0 .046-.047.046h-.14c-.14 0-.188.14-.188.325v1.949c0 .833.14 1.158.422 1.39.28.278.514.324.842.324.328 0 .655-.185.89-.417.233-.325.327-.788.327-1.345v-.695c0-.88 0-1.02-.047-1.206 0-.185-.047-.277-.234-.324h-.187l-.047-.046c0-.046.047-.046.093-.046h1.078c.047 0 .094 0 .094.046l-.047.046h-.14c-.14 0-.188.14-.235.325V34.694c0 .603-.047 1.298-.514 1.67-.422.37-.843.417-1.17.417-.188 0-.75 0-1.124-.37-.28-.28-.514-.65-.514-1.485v-.788M27.593 32.792c0-.047 0-.047.047-.093h.374c.608 0 .983.416.983 1.112 0 .417-.14.696-.375.835-.094.092-.28.092-.42.092-.235 0-.47 0-.563-.047-.047-.046-.047-.046-.047-.093v-1.808zm-.468 2.318v1.206c-.047.14-.047.278-.188.278-.046.047-.093.047-.14.047-.047 0-.047 0-.047.047 0 0 0 .046.094.046.14 0 .515-.046.515-.046.045 0 .373.046.7.046.047 0 .094-.046.094-.046 0-.046-.047-.046-.047-.046-.046 0-.187 0-.28-.046-.14 0-.188-.14-.188-.278-.047-.232-.047-.696-.047-1.206v-.14c0-.045 0-.045.047-.045h.702s.046 0 .046.046c.14.14.375.51.61.836.326.417.513.696.747.788.187.093.328.14.61.14h.42c.093 0 .14-.047.14-.047 0-.046-.047-.046-.047-.046h-.234c-.14-.046-.374-.092-.702-.417-.327-.37-.702-.834-1.17-1.437.515-.464.703-.88.703-1.3 0-.37-.235-.648-.375-.74-.327-.186-.702-.232-1.03-.232h-1.31c-.046 0-.093 0-.093.046 0 0 0 .046.047.046h.187c.188.047.235.14.235.325v2.18zM31.85 35.945c.048.464.095.603.235.65.094.046.234.046.28.046.048 0 .048 0 .048.047 0 0-.047.046-.094.046-.328 0-.562-.046-.61-.046-.046 0-.28.046-.514.046-.093 0-.093-.046-.093-.046 0-.046 0-.046.046-.046s.14 0 .186-.046c.14-.046.188-.185.188-.695v-3.2c0-.233.046-.28.046-.28.047 0 .14.14.234.186.094.093.89.974 1.78 1.902.56.602 1.17 1.298 1.356 1.437l-.094-2.782c0-.37-.046-.51-.187-.557h-.282c-.047 0-.047-.046-.047-.046 0-.046.048-.046.095-.046H35.503c.045 0 .092 0 .092.046 0 0 0 .046-.047.046h-.14c-.187.047-.234.14-.234.51v3.246c0 .37 0 .37-.047.37s-.094-.045-.42-.323c-.048-.048-.843-.882-1.452-1.53-.655-.697-1.263-1.393-1.45-1.578l.046 2.643M36.67 34.137V32.93c0-.185-.045-.277-.233-.324h-.187c-.047 0-.047-.046-.047-.046 0-.046.047-.046.094-.046H38.215c.094 0 .188 0 .235-.047h.093v.047c0 .046 0 .092-.046.278v.37l-.047.047c-.047 0-.047-.047-.047-.094 0-.046 0-.138-.047-.185-.047-.092-.093-.138-.374-.185h-.796v1.623h.89c.14 0 .233-.046.28-.092.047-.047.047-.047.094-.047v.046s0 .092-.047.278v.37c0 .047 0 .094-.047.094s-.047 0-.047-.047v-.184c-.047-.093-.094-.186-.282-.186-.187 0-.748-.046-.842-.046v.556c0 .186-.047.835 0 .928 0 .417.094.464.61.464.186 0 .42 0 .56-.047.14-.093.234-.185.234-.417.047-.047.047-.093.047-.093.047 0 .047.046.047.093 0 .046-.047.417-.047.556-.047.14-.094.14-.328.14-.843 0-1.217-.047-1.405-.047 0 0-.374.046-.514.046-.093 0-.093-.046-.093-.046 0-.046 0-.046.047-.046s.093 0 .14-.046c.14 0 .14-.14.187-.278v-2.179M23.38 22.034c-1.45-.974-3.462-1.39-5.334-1.067-.983.186-1.825.557-2.668 1.067-.28.14-.608.37-.89.556l-.935.603c-1.59 1.02-3.603 1.53-5.616 1.067-.42-.093-.89-.232-1.216-.603-.093-.093-.14-.232-.14-.417l.515-2.458c-.562-.37-1.217-.51-1.92-.557-.326 0-.654 0-.935.047.843-.742 1.077-1.81.796-2.875 1.357 0 2.62.185 3.79.742.328.184.796.51.796.926v2.643c1.17 0 2.106-.51 3.042-1.114l1.076-.742c2.013-1.298 4.353-1.994 6.927-1.67 1.45.187 2.807.743 4.07 1.53l1.405.93c.936.602 1.872 1.158 3.042 1.158v-.88l.046-1.902c.188-.603.843-.835 1.358-1.067 1.03-.324 2.106-.463 3.23-.463-.282 1.066 0 2.18.84 2.92-.982-.185-2.01-.045-2.807.418-.046 0-.092.047-.092.047l.468 2.55c-.047.464-.562.696-.983.788-1.92.603-4.072.186-5.663-.788l-.75-.464-1.262-.833-.187-.093" fill="#000"/><path d="M23.615 21.988a8.193 8.193 0 0 0-5.756-1.113c-1.125.23-2.107.695-3.043 1.298l-1.545.974a6.935 6.935 0 0 1-4.913 1.066c-.563-.092-1.078-.232-1.5-.602-.092-.092-.14-.14-.14-.278l.47-2.272c.514.603 1.356.742 2.15.788 1.17.047 2.154-.37 3.09-.927l1.685-1.066c1.872-1.205 4.07-1.808 6.458-1.483 1.404.14 2.62.65 3.837 1.345l1.077.65 1.076.695c1.03.696 2.246 1.02 3.603.788.515-.092 1.124-.23 1.498-.742l.42 2.32c-.046.37-.42.51-.7.648-2.107.696-4.447.14-6.13-1.02l-1.64-1.066z" fill="#FFF"/><path d="M23.633 21.96a8.224 8.224 0 0 0-5.78-1.118c-1.056.218-2.034.646-3.055 1.303l-1.544.974a6.9 6.9 0 0 1-4.89 1.06c-.68-.112-1.114-.272-1.48-.594a.94.94 0 0 1-.075-.08c-.04-.048-.055-.094-.055-.174l.467-2.265-.06.015c.453.53 1.132.74 2.178.8 1.052.042 1.99-.268 3.108-.932l1.685-1.067c1.956-1.26 4.153-1.79 6.435-1.48 1.28.128 2.457.56 3.826 1.34l1.075.65 1.075.695c1.085.733 2.316 1.018 3.627.793.765-.136 1.2-.318 1.52-.754l-.06-.014.42 2.32c-.03.22-.18.363-.488.517-.037.018-.17.08-.196.094-1.974.652-4.3.22-6.096-1.017l-1.64-1.067zm-.037.055l1.638 1.067c1.813 1.247 4.16 1.684 6.16 1.024l.2-.097c.327-.164.492-.32.525-.58l-.423-2.33-.014-.077-.046.064c-.307.418-.728.594-1.477.728-1.293.222-2.506-.058-3.578-.782l-1.077-.696-1.077-.65c-1.377-.787-2.56-1.222-3.852-1.35-2.297-.312-4.51.22-6.48 1.49l-1.684 1.066c-1.106.657-2.032.963-3.07.922-1.028-.06-1.69-.265-2.128-.776l-.044-.054-.014.067-.468 2.273c0 .1.02.16.07.223.017.022.034.04.08.084.378.334.824.498 1.515.612a6.968 6.968 0 0 0 4.938-1.07l1.545-.975c1.014-.652 1.984-1.077 3.03-1.293a8.156 8.156 0 0 1 5.732 1.11v-.002z" fill="#000"/><path d="M9.482 21.71c-.796 0-1.545-.14-2.106-.65-.094-.14-.187-.278-.094-.417.187-.418.702-.464 1.077-.603.42-.093.794-.186 1.122-.51v2.18z" fill="#FFF"/><path d="M9.482 21.676c-.91 0-1.583-.186-2.083-.64a.073.073 0 0 0 .004.005c-.133-.196-.16-.28-.094-.38.11-.24.306-.358.696-.475.032-.01.062-.02.124-.037.11-.032.175-.053.24-.077.58-.126.852-.235 1.136-.516l-.058-.024v2.18l.034-.034zm0 .067l.034-.034V19.45l-.058.056c-.273.27-.533.375-1.107.5-.066.026-.13.046-.24.078l-.123.037c-.408.123-.62.25-.735.51-.086.126-.052.23.095.448.52.475 1.21.665 2.135.665z" fill="#000"/><path d="M31.477 20.55c.093.093.14.278.093.417-.187.325-.608.51-.936.65-.42.092-.842.185-1.31.185v-2.18c.608.557 1.498.464 2.153.928z" fill="#FFF"/><path d="M31.453 20.574a.41.41 0 0 1 .085.383c-.146.253-.403.41-.917.63-.62.135-.91.182-1.296.182l.034.032v-2.18l-.057.025c.28.255.543.362 1.162.53l.016.005c.507.137.734.222.98.395l-.005-.003zm.043-.05c-.253-.18-.486-.267-1-.407l-.016-.004c-.61-.165-.865-.27-1.133-.515l-.057-.052v2.257l.034.032c.394 0 .686-.046 1.318-.186.533-.227.798-.39.958-.666a.475.475 0 0 0-.1-.458l-.004-.003z" fill="#000"/><path d="M8.873 18.324c.28.186.656.418.61.79-.048.51-.61.648-1.03.74-.47.186-1.124.232-1.358.79-.702-.465-1.59-.604-2.527-.558.655-.695.842-1.67.655-2.55 1.31.046 2.574.185 3.65.788z" fill="#FFF"/><path d="M8.855 18.352l.078.052.08.054c.32.22.466.408.435.65-.036.4-.34.568-1.003.714a3.93 3.93 0 0 1-.323.107c-.073.02-.11.032-.147.043-.508.156-.768.318-.91.657l.05-.015c-.664-.438-1.523-.613-2.55-.562l.028.056c.632-.672.863-1.64.663-2.58l-.034.04c1.63.057 2.698.26 3.635.783h-.002zm.035-.057c-.948-.53-2.026-.734-3.666-.792l-.034.04c.196.92-.03 1.866-.647 2.52l-.056.06.083-.003c1.012-.05 1.857.122 2.506.55l.05-.014c.133-.316.378-.468.87-.62.036-.01.072-.02.146-.043.15-.046.236-.073.323-.108.687-.15 1.01-.33 1.05-.77.035-.274-.123-.478-.463-.712a5.32 5.32 0 0 0-.08-.055c-.02-.01-.04-.026-.08-.052H8.89z" fill="#000"/><path d="M33.676 17.63c-.187.926-.047 1.853.562 2.595-.89-.046-1.778.093-2.527.51-.093-.37-.467-.51-.748-.602-.515-.186-1.123-.232-1.544-.65-.094-.138-.094-.37-.047-.556.422-.603 1.124-.788 1.78-.974.795-.232 1.637-.324 2.526-.324z" fill="#FFF"/><path d="M33.643 17.622c-.2.992-.017 1.91.57 2.624l.027-.054c-.957-.05-1.832.116-2.546.514l.05.02c-.082-.32-.317-.475-.77-.625a5.273 5.273 0 0 0-.44-.13l-.098-.027c-.5-.137-.762-.252-.995-.483-.074-.114-.087-.326-.036-.525.298-.423.72-.648 1.473-.87a17.67 17.67 0 0 1 .282-.08c.756-.22 1.583-.323 2.516-.323l-.033-.04zm.067.013l-.034-.04c-.94 0-1.772.103-2.536.326a110.623 110.623 0 0 0-.283.082c-.767.225-1.2.456-1.514.906-.06.227-.046.457.047.594.247.246.518.365 1.028.505l.1.027c.213.058.316.088.433.13.435.144.655.288.728.58l.05.02c.7-.39 1.563-.554 2.508-.505l.076.003-.048-.06c-.572-.697-.75-1.594-.554-2.568zM7.376 23.47c.047 0 .047-.045.093-.09l.14-1.068c0-.046 0-.046-.047-.093l.608.046c.282.046.423.278.376.463-.047.185-.187.37-.515.324l-.28-.046-.046.417c0 .046 0 .093.046.093v.046l-.374-.093zm.42-.694l.235.046c.188.047.235 0 .282-.14 0-.138-.047-.184-.234-.184l-.234-.047-.047.326zM9.295 22.405c.374.046.608.324.56.695 0 .37-.233.65-.607.65-.375 0-.61-.325-.562-.696 0-.37.234-.65.61-.65zm-.047 1.16c.234 0 .374-.186.374-.465 0-.278-.093-.463-.327-.463s-.375.14-.375.417c0 .325.094.464.328.51zM10.324 23.332h.047c0 .093.235.14.33.093.232-.046.326-.14.28-.278-.048-.232-.796.093-.89-.37-.047-.187.047-.372.375-.465h.327c.047 0 .094.047.14 0h.047l-.094.325h-.047v-.047c0-.046-.14-.14-.33-.092-.14.046-.186.14-.186.185.047.278.796-.093.89.417.046.186-.094.464-.47.51-.092.047-.233.047-.28 0h-.187v.047h-.046l.094-.325M11.962 23.24v-.047c.047 0 .047-.046 0-.093l-.374-.88-.28.14c-.048 0-.095 0-.048.045l-.047.046-.14-.277.047-.046c0 .046.047.046.093 0l.75-.325c.093-.046.093-.046.093-.093l.14.278h-.047c0-.047-.047-.047-.094 0l-.28.14.42.88c.047.046.047.046.094.046v.046l-.328.14M13.085 22.405l.468-.325c.047-.046.094-.046.047-.092h.047l.14.23v.048c-.047-.047-.047-.047-.093 0l-.75.463H12.9c.047-.047.047-.093.047-.093l-.61-.928c-.045-.047-.045-.047-.092-.047h-.047l.75-.464c.046-.047.046-.047.046-.094v-.046l.187.278H13.037l-.42.325.14.232.28-.14c.047-.046.047-.046.047-.092h.047l.14.232c-.046 0-.046 0-.093.046l-.282.14.187.325M13.974 22.08v-.139l-.608-.926c-.047 0-.047-.047-.094 0v-.047l.515-.324c.234-.14.42-.14.562.046.093.185.093.324-.048.463l.374.232c.094.046.14.092.188.046l.046.047-.327.186v-.046c0-.047 0-.047-.047-.047l-.42-.232-.188.093.234.372c.046.046.046.046.093.046l.047.047-.328.185zm-.14-.788l.234-.186c.14-.046.14-.14.094-.23-.094-.094-.14-.14-.28-.048l-.235.14.187.324zM14.957 21.43l-.047-.045c.047 0 .047-.047.047-.047l-.187-1.113v-.092h-.094v-.047l.375-.185v.047c-.046 0-.046.047 0 .047 0 0 0 .046.048.092l.795.742c.047.047.047.047.094.047l-.28.185v-.093l-.048-.046-.14-.138-.422.185.046.232v.046s.047.046.094 0v.046l-.28.14zm.42-.787l-.42-.37.14.51.28-.14zM17.157 19.205l-.094.37v-.045c-.047-.093-.187-.14-.328-.093-.187.093-.327.232-.187.557.047.278.234.417.468.324.14-.046.234-.14.187-.232v-.046l.28.185h-.046c-.046.047-.093.232-.374.325-.374.093-.655-.14-.795-.464-.14-.463.093-.74.42-.834a.3.3 0 0 1 .282 0h.093c.047 0 .047 0 .047-.047h.047M17.625 20.365v-.047l.046-.046-.186-1.113c0-.047 0-.047-.047-.047v-.047l.61-.093c.28-.046.467.093.467.325.047.185-.047.325-.234.37l.28.372c.047.093.094.14.14.14v.045l-.373.047v-.047s.046 0 .046-.046l-.046-.047-.28-.37h-.188l.045.462c0 .047 0 .047.047.047v.046l-.327.047zm.187-.79l.28-.045c.14 0 .188-.093.188-.185 0-.14-.094-.186-.234-.14l-.28.047.046.324zM19.17 19.994h.56c.047 0 .094 0 .094-.047h.047v.278h-.046s-.047-.046-.094-.046h-.89c.048 0 .048-.047.048-.094v-1.113c0-.046 0-.046-.047-.046l.002-.046h.842c.093 0 .093 0 .093-.046h.047v.325h-.047c0-.047 0-.047-.093-.047h-.515v.324h.327c.046 0 .046 0 .046-.046h.047v.28h-.047c0-.047 0-.047-.046-.047h-.328v.37M20.105 19.854h.047v.047c0 .094.187.14.327.186.233.047.327-.046.327-.14.047-.277-.796-.23-.702-.694 0-.186.187-.325.515-.28.14 0 .234.048.28.094.094.047.094.047.14.047h.094l-.233.278h-.046v-.045c0-.047-.094-.186-.28-.186-.142-.047-.235.045-.235.092-.048.278.794.185.7.695 0 .186-.233.37-.608.325-.14 0-.233-.047-.28-.093-.094-.047-.094-.047-.14-.047h-.094l.187-.28M22.398 19.483l-.234.232v-.046c0-.094-.094-.187-.187-.233-.234-.046-.42.046-.515.37-.093.233.047.465.234.51.14.048.28 0 .328-.092v-.046l.14.324c-.047 0-.047 0-.047-.047-.047 0-.187.14-.514.047-.328-.093-.47-.418-.375-.79.094-.416.468-.555.796-.462.093.046.187.093.234.14l.093.09.048-.045v.046M22.07 20.643l.047-.047s.047 0 .047-.046l.75-.835c.046 0 .046-.046.046-.046.046 0 0-.047 0-.047v-.047l.374.186c-.047 0-.047 0-.093.046v.093l-.093 1.067c0 .047.047.093.047.093v.046l-.328-.14v-.045h.047c.047 0 .047-.045.047-.045v-.232l-.422-.186-.14.186h-.047c0 .046 0 .046.048.093v.046l-.328-.14zm.89-.186l.046-.556-.327.418.28.14z" fill="#000"/><path d="M23.194 21.106l.047-.046c0 .046.047 0 .047 0l.61-.974c.046-.046.046-.046 0-.046v-.046l.373.23v.048h-.047c-.047.046-.14.65-.14.788.28-.232.608-.464.655-.464 0-.046 0-.046-.047-.046l.048-.046.374.232h-.046s-.047 0-.047.046l-.61.974c-.046 0 0 .046 0 .046v.046l-.28-.185v-.046c.046.046.046.046.093 0l.468-.79c-.28.233-.607.42-.888.65v-.046c.047-.324.094-.694.187-1.02l-.47.743c-.046.046-.046.093 0 .093v.046l-.326-.186M25.767 21.292c0-.046 0-.046-.046-.093v-.047l.375.232-.047.046c-.046-.045-.046-.045-.093 0l-.562.836.468.278c.048.046.095.046.095 0l.047.046-.188.232c0-.046 0-.046-.047-.093l-.748-.464.046-.047c.046.046.046.046.093 0l.607-.928M26.002 22.915v-.046h.093l.796-.836c0-.046.047-.046.047-.046 0-.047 0-.047-.046-.047v-.045l.375.185c-.047 0-.047 0-.047.047 0 0 0 .046-.047.092l-.092 1.066v.138l-.328-.14.047-.045h.047v-.047l.047-.232-.42-.184-.14.14c-.048 0-.048.045-.048.045s0 .048.047.048l-.048.046-.28-.14zm.89-.14l.092-.556-.374.417.28.14zM27.967 22.312v.047c-.047 0-.094 0-.094.045l-.187.695c-.046.186.047.28.234.325.14.046.28-.046.328-.185l.187-.696c0-.046 0-.093-.047-.093v-.045l.328.093v.046c-.047 0-.047 0-.047.046l-.188.696c-.094.278-.28.417-.655.37-.328-.092-.422-.324-.375-.602l.188-.742c0-.046 0-.046-.047-.046v-.047l.374.092M28.903 22.59c0-.046-.047-.046-.094-.046v-.046h.56c.422 0 .61.324.61.65 0 .463-.235.648-.656.648h-.515c.046-.046.046-.046.046-.093l.047-1.113zm.234 1.02h.14c.328 0 .422-.092.468-.463 0-.325-.14-.418-.468-.418h-.14v.88zM30.634 23.47l.562-.138c.047 0 .047 0 .047-.046h.047l.093.278h-.047c0-.046-.046-.046-.093-.046l-.89.232c.048-.047.048-.047.048-.093l-.28-1.067c0-.046 0-.046-.094-.046v-.046l.842-.232c.047 0 .094 0 .094-.047l.094.278h-.047c0-.047-.048-.047-.095 0l-.514.14.094.277.28-.046c.094-.048.094-.048.094-.094h.047l.047.278h-.094l-.327.093.094.324" fill="#000"/><path d="M17.86 4.506l-.095-.093c-.047-.417-.14-.88-.515-1.16-1.03-.37-2.2-.138-3.23-.463 0 0-.7-.185-1.17-.278-.467-.093-.747-.14-1.122-.232a9.717 9.717 0 0 0-1.357-.324c.33 1.02 2.434 1.622 2.996 1.715.14.047.42.094.842.187.796.23 1.685.185 2.34.742l-1.544-.372c-.187-.047-.374-.093-.702-.14.047.37.28.65.515.743.795.232 1.076.28 1.544.557.095-.14.33-.047.47-.186 0-.23.046-.416.467-.37.047-.14.328-.278.374-.278-.092.14-.186.28-.186.417 0 0-.327-.047-.468.046-.093.093.047.278.047.417-.14 0-.468-.093-.515.093-.046.185.094.278.187.325-.233.14-.56-.046-.608.186-.047.232.094.185.187.278l-.28.278s.42.232.7.325c.33-.37.563-.51.937-.603.235-.417.563-.556.937-.556-.514-.37-.748-.65-.748-1.252zm-3.23-1.113l-.562-.185c.796.138 1.778.138 2.527.417.328.14.468.463.562.788-.655-.788-1.45-.788-2.527-1.02z" fill="#FFF"/><path d="M17.86 4.505l-.094-.093c-.064-.57-.196-.922-.515-1.16-.433-.155-.826-.207-1.614-.248L15.57 3c-.79-.04-1.137-.08-1.55-.21a24.842 24.842 0 0 0-1.17-.28c-.13-.025-.523-.1-.595-.115a15.15 15.15 0 0 1-.527-.116 9.604 9.604 0 0 0-1.357-.325c.26.814 1.822 1.524 2.996 1.717.094.03.85.188.842.186.194.056.378.094.696.15l.075.014c.838.146 1.194.26 1.568.577l-1.544-.373a6.166 6.166 0 0 0-.702-.14c.043.348.26.643.515.744.08.025.683.195.817.237a3.185 3.185 0 0 1 .727.32c.04-.058.09-.075.217-.092l.053-.007c.09-.014.15-.037.2-.086 0-.3.103-.41.467-.37.04-.115.297-.28.374-.28-.14.21-.187.302-.187.417a1.31 1.31 0 0 0-.264-.01.437.437 0 0 0-.202.055c-.05.05-.043.104.007.25l.006.02a.47.47 0 0 1 .032.148c-.027 0-.042-.002-.132-.012a2.103 2.103 0 0 0-.095-.008c-.167-.012-.263.017-.288.114-.038.153.04.252.188.325a.455.455 0 0 1-.187.055c-.04.003-.073.004-.142.003-.196-.002-.257.017-.28.128-.026.132-.002.175.087.217l.04.02a.24.24 0 0 1 .06.042l-.136.134-.144.142c.02.013.057.032.106.058a7.07 7.07 0 0 0 .367.178c.085.038.162.068.228.09.32-.36.55-.507.937-.603.217-.387.524-.556.935-.556-.565-.41-.747-.695-.747-1.254zm-.002 0c0 .56.182.845.75 1.254-.413-.003-.72.166-.937.554-.385.095-.617.242-.935.602a2.86 2.86 0 0 1-.345-.143 7.07 7.07 0 0 1-.356-.18l.145-.143.135-.135a.214.214 0 0 0-.06-.044.908.908 0 0 0-.04-.018c-.09-.042-.113-.084-.087-.216.022-.11.083-.128.278-.126.07 0 .102 0 .142-.003a.433.433 0 0 0 .188-.056c-.148-.074-.225-.17-.187-.324.023-.096.118-.124.285-.113a2.1 2.1 0 0 1 .095.01c.09.01.105.01.133.01a.44.44 0 0 0-.032-.15l-.005-.02c-.05-.144-.056-.198-.008-.246a.436.436 0 0 1 .202-.055 1.308 1.308 0 0 1 .264.008c0-.116.048-.208.187-.416h.002c-.08-.003-.337.162-.376.276-.364-.04-.468.072-.468.37-.048.05-.107.072-.198.086a2.06 2.06 0 0 1-.053.007c-.127.017-.177.035-.217.093a3.02 3.02 0 0 0-.726-.32c-.133-.042-.738-.213-.817-.236-.255-.1-.47-.396-.514-.742a7.032 7.032 0 0 1 .7.14l1.545.37c-.373-.318-.73-.43-1.568-.578l-.076-.013a6.218 6.218 0 0 1-.695-.15c.007 0-.75-.156-.844-.187-1.173-.193-2.733-.903-2.994-1.715.568.104.966.197 1.356.326a9.93 9.93 0 0 0 .526.117l.597.116a12.52 12.52 0 0 1 .513.113 29.656 29.656 0 0 1 .658.165c.413.13.76.17 1.55.212l.066.004c.788.04 1.18.093 1.614.25.318.235.45.587.514 1.157l.094.094zM14.63 3.393l-.562-.185c.223.04.424.065.84.11l.294.03c.634.072 1.033.145 1.393.28.283.12.44.368.56.786-.433-.525-.86-.704-1.833-.887-.023-.004-.263-.05-.336-.062a14.43 14.43 0 0 1-.356-.072zm0 .002c.11.024.223.046.356.07.073.015.313.06.335.064.976.183 1.4.362 1.836.886-.12-.42-.277-.67-.56-.79-.36-.134-.76-.207-1.394-.278-.08-.01-.116-.013-.293-.03-.418-.046-.62-.07-.842-.11l.56.188z" fill="#005D90"/><path d="M25.346 15.218l-.936-1.113c-.14-.047-.187-.232-.187-.232-.655-.093-1.03-.603-1.73-.464-.61-.048-1.218-.372-.844-.743-.14-.046-.235-.093-.28-.232-.048-.14.092-.232.092-.324-.093.047-.328.186-.374.372-.094.23.468.788.608.973l1.03.928c.093.232.468.51.468.65a.36.36 0 0 1-.234-.094c-.796-.65-1.59-1.392-2.06-2.273-.046.046-.093 0-.14-.046-.234-.138-.14-.463-.28-.695-.048 0-.094-.046-.14-.046-.095 0-.095.138-.14.23 0 0 0 .186.045.464.094.28-.468-.232-.608-.37 0 .138.093.37.14.51-.047.046-.093 0-.187 0-.28-.047-.468-.557-.608-.603-.14-.046-.14.14-.328.047-.093-.14-.093-.185-.047-.325.14-.092.14-.278 0-.23-.093.045-.14.09-.42-.048-.188.047-.328.14-.14.696.186.278.373.51.56.788l.75 1.113.982 1.577.42.603c.14.325.936.696.61.928-.657.88.186 1.066.186 1.066.702.14.702-.278.936-.556.093-.14.42-.093.327.185 0 0-.094.186-.188.232-.702.464.328.186.562.14 0 0 .234 0 0 .324-.14.323.514.23.702.138.608-.325.468-.557.842-.742.562-.278.983-.37.936-1.067-.468-.28-1.638-1.438-1.638-1.438h.047l.936.65.607.463c.094.046.28.185.328.278 0 .37-.14.788-.515.974-.234.14-.796.186-.89.603.094.185.516.185.89.092.655-.23.655-.51.936-1.16.093-.277.328-.277.608-.23-.515-.51-1.123-1.485-1.638-1.994zm-2.386 1.715c-.14-.278-.515-.695-.75-.974L20.433 13.5c.515.37 2.48 2.968 2.48 2.968.094.278.094.37.048.463z" fill="#FFF"/><path d="M25.347 15.217l-.936-1.113a.258.258 0 0 1-.13-.11.425.425 0 0 1-.056-.122c-.216-.03-.38-.092-.677-.237a18.3 18.3 0 0 0-.11-.053c-.38-.182-.622-.238-.946-.174-.307-.024-.61-.118-.788-.25-.197-.144-.226-.318-.052-.49-.17-.058-.24-.11-.28-.233-.023-.066-.008-.117.04-.2.045-.074.053-.092.053-.124-.178.088-.338.222-.376.37-.04.098.03.256.188.468.037.05.08.104.127.162.05.06.262.305.293.346l1.03.927c.02.054.06.113.113.18.03.04.064.078.11.13.217.24.245.275.245.34a.363.363 0 0 1-.233-.095c-1-.815-1.65-1.502-2.06-2.27-.04.037-.07.02-.14-.048-.114-.068-.15-.156-.185-.377a4.575 4.575 0 0 0-.012-.066.702.702 0 0 0-.083-.252c-.02 0-.036-.007-.07-.024-.036-.016-.05-.022-.07-.022-.054 0-.077.034-.106.13l-.008.027a.472.472 0 0 1-.028.075 3.598 3.598 0 0 0 .047.464c.02.066.008.09-.035.078a.646.646 0 0 1-.18-.107 4.493 4.493 0 0 1-.392-.342.848.848 0 0 0 .05.256l.03.09c.01.023.05.137.06.164h-.002c-.026.024-.04.024-.106.01a.336.336 0 0 0-.08-.012c-.12-.02-.224-.116-.356-.3-.01-.015-.11-.16-.137-.195-.047-.062-.083-.097-.115-.107-.05-.017-.08-.008-.13.028l-.006.004c-.065.048-.106.056-.19.014-.09-.133-.097-.178-.048-.323.065-.043.106-.11.106-.17 0-.057-.04-.085-.107-.063l-.044.022c-.09.043-.172.033-.376-.07-.248.062-.303.22-.142.698.078.116.14.203.28.393.14.192.203.28.282.396l.748 1.11.983 1.578.42.603c.033.074.098.152.2.25l.135.12c.194.17.252.225.305.303.07.104.066.186-.03.254-.353.474-.312.787-.03.972a.73.73 0 0 0 .217.095c.444.088.602-.005.79-.333l.027-.045c.047-.08.08-.13.12-.18.045-.065.15-.092.233-.062.094.033.135.123.093.248a.95.95 0 0 1-.074.12.35.35 0 0 1-.112.11.998.998 0 0 0-.222.18c-.03.04-.026.065.008.078.057.022.193.008.397-.032l.11-.023.27-.06a.13.13 0 0 1 .05.012c.078.036.078.13-.052.31-.064.148.03.222.23.23.157.004.37-.037.473-.088.292-.157.38-.246.556-.49a.684.684 0 0 1 .286-.253c.075-.037.323-.153.37-.176.446-.22.598-.42.567-.89-.16-.096-.41-.297-.724-.578a26.676 26.676 0 0 1-.914-.86h.047l.935.65.61.464c.112.056.284.196.326.278 0 .43-.177.805-.514.972a1.02 1.02 0 0 1-.173.076s-.175.06-.227.08c-.285.11-.443.236-.49.448.086.17.47.198.89.093.418-.148.578-.303.735-.666.022-.052.153-.38.202-.493.08-.243.254-.29.607-.232-.213-.214-.397-.442-.818-.998-.42-.556-.604-.785-.82-.997zm0 0c.213.214.397.442.817.998.422.557.605.785.82.997-.354-.06-.527-.012-.61.23-.048.114-.18.442-.2.494-.158.362-.317.518-.734.666-.42.104-.803.077-.888-.093.047-.21.204-.336.488-.445.052-.02.227-.08.227-.08.08-.03.132-.052.173-.077.34-.168.516-.544.516-.975-.042-.082-.215-.223-.328-.28l-.61-.463-.935-.65h-.047c.01.014.033.036.065.067a28.87 28.87 0 0 0 .85.796c.315.28.564.483.723.577.03.468-.12.67-.567.89-.045.022-.293.138-.368.175a.686.686 0 0 0-.288.253c-.174.245-.263.333-.555.49-.102.05-.315.09-.473.086-.198-.007-.29-.08-.228-.225.13-.18.13-.278.052-.315a.13.13 0 0 0-.052-.012l-.27.06-.11.023c-.203.04-.34.054-.395.033-.034-.014-.038-.038-.008-.076a.996.996 0 0 1 .22-.178.35.35 0 0 0 .114-.11.95.95 0 0 0 .074-.122c.043-.127 0-.217-.094-.25-.085-.03-.19-.004-.235.063-.04.048-.073.1-.12.18l-.025.044c-.19.33-.347.42-.79.333a.73.73 0 0 1-.218-.096c-.28-.184-.32-.495.032-.97.096-.067.1-.15.03-.255-.054-.078-.112-.134-.306-.304a4.582 4.582 0 0 1-.133-.12.823.823 0 0 1-.2-.248l-.42-.603-.983-1.577-.75-1.112c-.077-.117-.14-.204-.28-.396-.14-.19-.203-.277-.28-.393-.16-.48-.106-.634.14-.695.204.102.287.112.377.07.008-.005.04-.02.044-.024.064-.02.104.008.104.064 0 .057-.04.125-.105.168-.05.146-.044.19.047.326.085.042.128.034.193-.014l.007-.005c.048-.036.077-.045.127-.028.033.01.07.044.116.106.026.035.126.18.137.195.13.184.236.28.357.3.027 0 .05.005.08.012.067.015.08.015.107-.01-.008-.03-.048-.142-.056-.164a3.474 3.474 0 0 1-.03-.092.916.916 0 0 1-.052-.255c.1.1.267.25.39.343.08.06.142.098.18.108.047.012.06-.014.038-.08a3.6 3.6 0 0 1-.046-.463.46.46 0 0 0 .028-.074l.008-.026c.03-.097.05-.13.103-.13.018 0 .034.005.07.023.034.017.05.023.07.023a.71.71 0 0 1 .082.252l.01.065c.037.222.073.31.188.378.07.07.102.087.14.048.41.77 1.06 1.456 2.06 2.272a.36.36 0 0 0 .234.093c0-.066-.026-.1-.244-.342a2.688 2.688 0 0 1-.11-.128.76.76 0 0 1-.113-.18l-1.03-.927c-.03-.04-.244-.286-.294-.347a3.817 3.817 0 0 1-.127-.16c-.156-.213-.226-.37-.187-.466.036-.15.196-.283.373-.37-.002.03-.01.05-.053.12-.05.085-.065.137-.042.204.04.123.112.176.28.232-.174.172-.145.347.053.493.18.132.482.226.79.25.325-.064.565-.008.945.173l.11.054c.3.145.462.206.678.237.007.03.024.075.054.12.035.054.08.094.133.112l.936 1.112zm-2.387 1.716a3.025 3.025 0 0 0-.34-.487c-.032-.04-.067-.084-.106-.13-.066-.08-.28-.33-.302-.357l-1.78-2.46c.195.143.61.61 1.18 1.31l.124.154a66.922 66.922 0 0 1 1.176 1.506c.088.262.097.364.047.463zm0 0c.05-.1.042-.2-.046-.464a31.006 31.006 0 0 0-.36-.472 66.924 66.924 0 0 0-.942-1.19c-.57-.7-.983-1.166-1.18-1.307l1.778 2.46.303.357.107.13c.162.202.275.36.34.487z" fill="#005D90"/><path d="M20.526 5.99s-.468.602-.796.788c-.327.14-.608.185-.748.14.374-.094.468-.094.748-.372-.327.14-.467.14-.7.14-.235 0-.282-.28-.282-.186-.047.185-.187.37-.187.37-.093.28-.467.51-.233.835.093.186.28.232.468.232 0 .047-.094.093-.047.14.14.046.374-.186 1.59 0 .703-.325-.093-1.716.47-2.226.046-.046-.188.047-.282.14zm-.56 1.947c-.282.047-.33 0-.516-.046-.187-.046-.28-.185-.28-.324 0 0 .186.278.607.278.328 0 .422-.092.515-.185 0 0-.047.277-.327.277z" fill="#FFF"/><path d="M20.525 5.99l-.106.13c-.084.1-.17.198-.26.29-.065.068-.128.13-.188.185-.09.08-.17.142-.242.182-.318.135-.604.187-.748.14a6.9 6.9 0 0 0 .235-.057.958.958 0 0 0 .237-.09c.082-.045.165-.112.277-.223a1.515 1.515 0 0 1-.7.137.26.26 0 0 1-.21-.102.46.46 0 0 1-.057-.086c-.006-.012-.01-.016-.012-.016s-.003.006-.003.02a.932.932 0 0 1-.086.21c-.037.07-.075.127-.1.16a.982.982 0 0 1-.145.254l-.01.014c-.176.255-.21.386-.08.568.084.165.243.232.47.232 0 .014-.01.027-.03.054l-.012.014c-.023.03-.027.05-.006.07.027.01.056.01.104 0 .02-.002.128-.025.168-.032.32-.058.712-.06 1.32.033.31-.142.348-.4.282-1.11l-.005-.064c-.053-.583-.02-.857.192-1.052.007-.005.01-.01.006-.01-.003-.003-.008-.003-.017 0a.71.71 0 0 0-.27.15h-.002zm.002 0a.71.71 0 0 1 .27-.15h.014c.003 0 0 .005-.004.01-.214.195-.246.47-.193 1.053l.005.063c.066.71.027.968-.28 1.11-.608-.094-1-.092-1.32-.034l-.168.033a.207.207 0 0 1-.102 0c-.02-.02-.016-.038.006-.068l.01-.013c.024-.028.03-.04.03-.057-.225 0-.384-.068-.466-.232-.13-.18-.097-.31.08-.566.004-.008.004-.008.01-.015a.982.982 0 0 0 .144-.254c.025-.032.063-.09.1-.16a.932.932 0 0 0 .087-.21v-.018c.003 0 .006.004.012.014a.46.46 0 0 0 .057.088.262.262 0 0 0 .21.102c.11 0 .155 0 .212-.005.148-.01.285-.047.49-.133a1.37 1.37 0 0 1-.28.222.957.957 0 0 1-.235.088c-.044.012-.228.056-.236.058.146.05.432-.002.75-.137.072-.042.154-.104.243-.184.06-.054.124-.116.19-.185a5.883 5.883 0 0 0 .364-.42zm-.563 1.946a.78.78 0 0 1-.343 0c-.02-.004-.13-.036-.17-.046-.175-.043-.28-.174-.28-.324.022.036.07.088.145.14a.79.79 0 0 0 .462.14c.274 0 .375-.047.516-.186a.415.415 0 0 1-.06.138.305.305 0 0 1-.268.138zm0 .002c.124 0 .212-.052.27-.14a.374.374 0 0 0 .06-.14h-.003c-.14.14-.24.186-.513.186a.79.79 0 0 1-.46-.14.582.582 0 0 1-.147-.138c-.002.15.104.282.28.326.04.01.15.042.17.047a.782.782 0 0 0 .345-.002z" fill="#005D90"/><path d="M12.945 9.328l.562-.14-.28.465.467.325-.562.046c0 .185.047.37.047.556l-.422-.37c-.14.14-.28.23-.422.37l.047-.51c-.187-.092-.374-.092-.56-.14l.467-.323-.234-.464.468.185c.14-.185.187-.37.234-.51.046.14.093.325.187.51z" fill="#FFF"/><path d="M12.945 9.328l.562-.14-.28.465.467.325-.562.046c0 .077.006.14.023.278.018.14.024.2.024.278l-.422-.37c-.06.057-.106.098-.21.185a2.794 2.794 0 0 0-.212.185l.047-.51c-.104-.05-.187-.072-.374-.103a2.212 2.212 0 0 1-.188-.036l.468-.323-.234-.464.468.185c.063-.084.11-.172.152-.272.016-.04.03-.078.045-.125.006-.015.03-.092.038-.112l.076.238c.034.103.07.19.11.272zm0 0a2.027 2.027 0 0 1-.11-.272c-.018-.05-.067-.208-.077-.238l-.037.112a2.01 2.01 0 0 1-.044.126c-.04.1-.09.188-.152.272l-.468-.185.234.464-.468.324c.052.014.093.022.187.037.186.03.27.052.373.103l-.047.51c.06-.058.106-.098.21-.185.106-.087.153-.128.212-.186l.42.37c0-.077-.005-.14-.022-.278-.018-.14-.024-.2-.024-.278l.562-.046-.468-.325.28-.464-.56.138zM16.08 10.117c.188 0 .375-.093.562-.14l-.28.464c.186.094.327.233.467.372l-.562.047c0 .138.046.323.046.555l-.42-.37a3.02 3.02 0 0 0-.422.37c0-.185 0-.37.047-.556-.142-.048-.376-.048-.516-.094l.468-.325-.28-.462.514.14c.094-.14.094-.326.187-.51l.187.51z" fill="#FFF"/><path d="M16.08 10.117a.935.935 0 0 0 .28-.052l.095-.03c.093-.032.135-.044.187-.057l-.28.463c.155.08.257.164.467.372l-.562.047c0 .055 0 .068.023.242.017.128.024.215.024.313l-.42-.37c-.118.076-.21.16-.422.37 0-.278.008-.402.047-.556a1.304 1.304 0 0 0-.258-.048 1.31 1.31 0 0 1-.258-.046l.468-.325-.28-.462.514.14a.73.73 0 0 0 .094-.24c.04-.147.055-.196.093-.27l.187.51zm0 0l-.187-.51a1.223 1.223 0 0 0-.094.272.733.733 0 0 1-.094.237l-.515-.14.282.464-.468.326c.058.02.117.03.257.046h.002c.14.018.198.028.257.047-.04.153-.048.277-.048.555.21-.21.304-.294.42-.37l.422.37c0-.098-.007-.185-.023-.313a1.64 1.64 0 0 1-.022-.243l.56-.048c-.21-.208-.31-.294-.467-.37l.282-.464a2.26 2.26 0 0 0-.188.056 4.853 4.853 0 0 1-.093.03.935.935 0 0 1-.28.053zM12.336 13.316c.188-.046.375-.092.562-.14l-.28.465c.14.093.327.186.467.325l-.56.047c0 .185.045.37.045.556-.14-.14-.28-.232-.42-.37-.14.138-.282.23-.422.37l.047-.51c-.14-.093-.374-.093-.515-.14.14-.092.328-.185.468-.323l-.28-.464c.186.047.327.14.514.186.047-.185.14-.324.187-.51l.186.51z" fill="#FFF"/><path d="M12.337 13.316l.56-.14-.28.465c.04.028.203.126.234.146.1.062.173.118.235.18l-.56.046c0 .077.004.14.022.278.017.14.023.2.023.278a2.726 2.726 0 0 0-.21-.185 2.81 2.81 0 0 1-.21-.186c-.06.058-.106.1-.212.186a2.8 2.8 0 0 0-.21.185l.047-.51a.684.684 0 0 0-.257-.087 5.368 5.368 0 0 0-.093-.015 1.11 1.11 0 0 1-.165-.036c.04-.028.204-.126.234-.146a1.37 1.37 0 0 0 .234-.18l-.28-.463c.077.02.134.04.256.093.123.053.18.074.258.093.02-.077.04-.133.094-.255.052-.12.074-.177.093-.254l.186.51zm0 0l-.188-.51c-.02.077-.042.133-.094.255a1.522 1.522 0 0 0-.094.256 1.573 1.573 0 0 1-.257-.093 1.567 1.567 0 0 0-.258-.092l.28.465a1.378 1.378 0 0 1-.233.18c-.03.018-.193.117-.234.144.04.012.083.02.165.035l.092.016a.685.685 0 0 1 .258.088l-.047.51a2.88 2.88 0 0 1 .21-.185 2.81 2.81 0 0 0 .21-.186c.06.058.107.1.212.186a2.8 2.8 0 0 1 .21.185c0-.077-.005-.14-.023-.278-.017-.14-.023-.2-.023-.278l.56-.046a1.347 1.347 0 0 0-.233-.18c-.03-.02-.192-.118-.233-.145l.28-.463-.56.14zM16.033 13.502h.515l-.42.278.14.51-.375-.325-.42.325.14-.51a2.58 2.58 0 0 0-.375-.278h.468c.094-.14.094-.325.187-.464.047.14.094.324.14.464z" fill="#FFF"/><path d="M16.033 13.502h.515l-.42.278.14.51-.375-.325-.42.325.14-.51c-.08-.078-.166-.14-.375-.278h.468a.74.74 0 0 0 .093-.23v-.002a.742.742 0 0 1 .093-.232c.02.058.036.112.07.233.036.123.05.174.07.232zm0 0a5.385 5.385 0 0 1-.07-.23 5.207 5.207 0 0 0-.07-.234.736.736 0 0 0-.094.232.743.743 0 0 1-.094.232h-.468c.21.138.296.2.374.278l-.14.51.42-.324.376.324-.14-.51.42-.278h-.515zM16.08 16.794c.188-.046.328-.14.515-.186l-.234.464.422.37c-.14 0-.374 0-.514.048v.556l-.375-.37-.42.37v-.556c-.142-.047-.33-.047-.516-.093.14-.14.328-.232.468-.325l-.234-.464.47.186.233-.51.187.51" fill="#FFF"/><path fill="#000" d="M.075 31.506h38.75v-.3H.074z"/></g></svg><svg width="55" height="31" viewBox="0 0 55 31" id="logo-victoria" y="1154"><title>logo-victoria</title><g fill="#000" fill-rule="evenodd" opacity=".51"><path d="M50.896 10.245l-3.234 6.842h2.07l.353-.785h2.423l.354.785h2.068l-3.233-6.842h-.8zm.354 3.074h.093l.56 1.477H50.69l.56-1.478zM13.262 17.084h1.9v-6.837h-1.9v6.837zM29.726 0H0l4.95 10.25H7.06l1.77 3.73 1.77-3.73h2.125l-3.186 6.84H8.255l6.608 13.68 6.724-13.92a4.22 4.22 0 0 1-1.797.39c-1.974 0-3.744-1.54-3.744-3.574 0-2.033 1.77-3.574 3.744-3.574 1.332 0 2.533.574 3.26 1.614l-1.584.948c-.354-.474-.856-.794-1.583-.794-.968 0-1.807.867-1.807 1.806 0 .94.84 1.805 1.807 1.805.727 0 1.23-.318 1.583-.792l.908.543 1.592-3.296h1.365v5.16h1.9v-5.16h1.91v-1.677h-4.364L29.726 0zM33.33 15.47c-1.014 0-1.843-.81-1.843-1.804s.83-1.805 1.844-1.805c1.016 0 1.844.812 1.844 1.806 0 .993-.828 1.805-1.843 1.805m0-5.378c-2.076 0-3.874 1.54-3.874 3.574 0 2.033 1.798 3.573 3.875 3.573s3.875-1.54 3.875-3.574c0-2.033-1.798-3.574-3.874-3.574M41.2 13.547h-1.21v-1.623h1.21c.428 0 .707.474.707.812 0 .337-.28.81-.707.81m2.7-.81c0-1.432-1.164-2.49-2.635-2.49H38.09v6.838h1.9v-1.86h.893l.866 1.86h2.132L42.7 14.787c.67-.456 1.2-1.13 1.2-2.05M44.83 17.084h1.9v-6.837h-1.9z"/></g></svg><svg width="53" height="31" viewBox="0 0 53 31" id="logo-vta" y="1185"><title>logo-vta</title><g fill="#000" fill-rule="evenodd" opacity=".51"><path d="M0 26.92c4.964-5.757 12.352-11.704 21.32-16.73C32.82 3.746 44.374.23 52.994 0L53 .004l-3.197 4.068h-.015c-7.886.765-17.475 3.59-27.13 8.367C13.155 17.14 5.272 22.896 0 28.552V26.92"/><path d="M0 30.728C6.62 24.81 17.7 19.24 30.887 15.803a103.093 103.093 0 0 1 11.43-2.306l4.826-6.154c-6.694.86-14.266 2.88-21.962 6.057C14.51 17.806 5.65 23.593 0 29.357v1.37"/><path d="M25.478 30.995L20.92 31l6.327-8.12h-3.36l2.574-3.3H37.1l-2.577 3.3h-2.72l-6.325 8.115M38.303 19.58L29.29 31h3.857l5.327-6.57v2.666c1.22-.407 2.798-.704 3.864-.76l-2.162 2.713c-.85.127-.973.136-1.702.35V31h4.205V19.58h-4.377M16.2 26.15l5.327-6.57h3.857L16.37 31h-4.375V19.58H16.2v6.57M45.05 29.69c.183 0 .348-.014.348-.23 0-.176-.16-.208-.312-.208h-.295v.437h.26zm-.26.792h-.215V29.07h.544c.336 0 .504.124.504.402 0 .253-.16.362-.37.39l.406.62h-.243l-.377-.612h-.25v.612zm.264.314c.56 0 1.002-.434 1.002-1.023a.994.994 0 0 0-1.002-1.016.996.996 0 0 0-1.01 1.016.996.996 0 0 0 1.01 1.023zm-1.26-1.023c0-.703.578-1.22 1.26-1.22.675 0 1.25.517 1.25 1.22 0 .71-.575 1.227-1.25 1.227-.682 0-1.26-.518-1.26-1.227z"/></g></svg><svg width="10" height="15" viewBox="0 0 10 15" id="post-arrow-left" y="1216"><title>arrow 3</title><path d="M4.718 7.596l4.95-4.95L7.545.526l-7.07 7.07 1.068 1.07 6.02 6.02 2.12-2.122L4.72 7.596z" fill="#FFF" fill-rule="evenodd"/></svg><svg width="16" height="16" viewBox="0 0 16 16" id="post-facebook-share" y="1231"><title>facebook logo 2</title><path d="M15.117 0H.883A.883.883 0 0 0 0 .883v14.234c0 .488.395.883.883.883h7.663V9.804H6.46V7.39h2.086V5.607c0-2.066 1.262-3.19 3.106-3.19.883 0 1.642.064 1.863.094v2.16h-1.28c-1 0-1.195.476-1.195 1.176v1.54h2.39l-.31 2.416h-2.08V16h4.077a.883.883 0 0 0 .883-.883V.883A.883.883 0 0 0 15.117 0" fill="#FFF" fill-rule="evenodd"/></svg><svg width="52" height="78" viewBox="0 0 52 78" id="red_arrow" y="1247"><title>Red Arrow</title><g fill="#DB3833" fill-rule="evenodd"><path d="M18.063 49.178l7.414 28.52h.316l7.413-28.516-15.143-.004"/><path d="M51.232 26.784C51.232 12.05 39.772.108 25.635.108S.038 12.05.038 26.784c0 14.734 11.46 26.677 25.597 26.677S51.232 41.52 51.232 26.785m-30.602-7.17c0 3.804-2.957 6.887-6.605 6.887-3.65 0-6.606-3.082-6.606-6.885 0-3.802 2.956-6.884 6.605-6.884 3.648 0 6.605 3.083 6.605 6.885"/></g></svg><svg width="69" height="101" viewBox="0 0 69 101" id="slider-arrow-left" y="1325"><title>slider-arrow-left</title><defs><filter x="-50%" y="-50%" width="200%" height="200%" filterUnits="objectBoundingBox" id="axa"><feOffset dy="1" in="SourceAlpha" result="shadowOffsetOuter1"/><feGaussianBlur stdDeviation="10" in="shadowOffsetOuter1" result="shadowBlurOuter1"/><feColorMatrix values="0 0 0 0 0 0 0 0 0 0 0 0 0 0 0 0 0 0 0.35 0" in="shadowBlurOuter1" result="shadowMatrixOuter1"/><feMerge><feMergeNode in="shadowMatrixOuter1"/><feMergeNode in="SourceGraphic"/></feMerge></filter></defs><path d="M38.01 35.272L4.182.855.788 4.308l30.434 30.964L.76 66.265l3.394 3.454L38.01 35.27z" transform="rotate(-180 27 43.5)" filter="url(#axa)" fill="#FFF" fill-rule="evenodd"/></svg><svg width="51" height="50" viewBox="0 0 51 50" id="slider-arrow-left-dark" y="1426"><title>slider-arrow-left-dark</title><defs><ellipse id="aya" cx="25.5" cy="25" rx="25.5" ry="25"/><mask id="ayb" x="0" y="0" width="51" height="50" fill="#fff"><use xlink:href="#aya"/></mask></defs><g transform="rotate(-180 25.5 25)" stroke="#979797" fill="none" fill-rule="evenodd"><path stroke-width="2" stroke-linecap="round" d="M22 14l11 10.5L22 35"/><use mask="url(#ayb)" stroke-width="4" xlink:href="#aya"/></g></svg><svg width="50" height="65" viewBox="0 0 50 65" id="slider-arrow-left-mobile" y="1476"><title>slider-arrow-left-mobile</title><defs><filter x="-50%" y="-50%" width="200%" height="200%" filterUnits="objectBoundingBox" id="aza"><feOffset dy="1" in="SourceAlpha" result="shadowOffsetOuter1"/><feGaussianBlur stdDeviation="10" in="shadowOffsetOuter1" result="shadowBlurOuter1"/><feColorMatrix values="0 0 0 0 0 0 0 0 0 0 0 0 0 0 0 0 0 0 0.35 0" in="shadowBlurOuter1" result="shadowMatrixOuter1"/><feMerge><feMergeNode in="shadowMatrixOuter1"/><feMergeNode in="SourceGraphic"/></feMerge></filter></defs><path d="M19.022 17.652L2.092.428.395 2.156l15.23 15.496L.38 33.162l1.7 1.73L19.02 17.65z" transform="rotate(-180 17.76 25.516)" stroke="#FFF" filter="url(#aza)" fill="#FFF" fill-rule="evenodd"/></svg><svg width="69" height="101" viewBox="0 0 69 101" id="slider-arrow-right" y="1541"><title>slider-arrow-right</title><defs><filter x="-50%" y="-50%" width="200%" height="200%" filterUnits="objectBoundingBox" id="baa"><feOffset dy="1" in="SourceAlpha" result="shadowOffsetOuter1"/><feGaussianBlur stdDeviation="10" in="shadowOffsetOuter1" result="shadowBlurOuter1"/><feColorMatrix values="0 0 0 0 0 0 0 0 0 0 0 0 0 0 0 0 0 0 0.35 0" in="shadowBlurOuter1" result="shadowMatrixOuter1"/><feMerge><feMergeNode in="shadowMatrixOuter1"/><feMergeNode in="SourceGraphic"/></feMerge></filter></defs><path d="M38.01 35.272L4.182.855.788 4.308l30.434 30.964L.76 66.265l3.394 3.454L38.01 35.27z" transform="translate(15 14)" filter="url(#baa)" fill="#FFF" fill-rule="evenodd"/></svg><svg width="51" height="50" viewBox="0 0 51 50" id="slider-arrow-right-dark" y="1642"><title>slider-arrow-right-dark</title><defs><ellipse id="bba" cx="25.5" cy="25" rx="25.5" ry="25"/><mask id="bbb" x="0" y="0" width="51" height="50" fill="#fff"><use xlink:href="#bba"/></mask></defs><g stroke="#979797" fill="none" fill-rule="evenodd"><path stroke-width="2" stroke-linecap="round" d="M22 14l11 10.5L22 35"/><use mask="url(#bbb)" stroke-width="4" xlink:href="#bba"/></g></svg><svg width="50" height="64" viewBox="0 0 50 64" id="slider-arrow-right-mobile" y="1692"><title>slider-arrow-right-mobile</title><defs><filter x="-50%" y="-50%" width="200%" height="200%" filterUnits="objectBoundingBox" id="bca"><feOffset dy="1" in="SourceAlpha" result="shadowOffsetOuter1"/><feGaussianBlur stdDeviation="10" in="shadowOffsetOuter1" result="shadowBlurOuter1"/><feColorMatrix values="0 0 0 0 0 0 0 0 0 0 0 0 0 0 0 0 0 0 0.35 0" in="shadowBlurOuter1" result="shadowMatrixOuter1"/><feMerge><feMergeNode in="shadowMatrixOuter1"/><feMergeNode in="SourceGraphic"/></feMerge></filter></defs><path d="M19.022 17.652L2.092.428.395 2.156l15.23 15.496L.38 33.162l1.7 1.73L19.02 17.65z" transform="translate(14.465 13.25)" stroke="#FFF" filter="url(#bca)" fill="#FFF" fill-rule="evenodd"/></svg><svg preserveAspectRatio="xMidYMid" width="10" height="10" viewBox="0 0 10 10" id="slider-dot" y="1756"><defs><style>.bdcls-2{stroke:#959595;stroke-width:1px;fill:none}</style></defs><circle id="bdcircle-1" class="bdcls-2" cx="5" cy="5" r="5"/></svg><svg preserveAspectRatio="xMidYMid" width="10" height="10" viewBox="0 0 10 10" id="slider-dot-current" y="1766"><defs><style>.becls-2{fill:#000;stroke:#000;stroke-width:1px;opacity:.65}</style></defs><circle id="becircle-1" class="becls-2" cx="5" cy="5" r="5"/></svg><svg width="40" height="40" viewBox="0 0 40 40" id="x_close_desktop" y="1776"><title>x_close_desktop</title><g stroke-linecap="square" stroke="#979797" fill="none" fill-rule="evenodd"><path d="M39.5.5L.61 39.438M.5.5l38.89 38.937"/></g></svg><svg width="21" height="21" viewBox="0 0 21 21" id="x_close_mobile" y="1816"><title>x_close_mobile</title><g transform="translate(.5 .5)" stroke-linecap="square" stroke="#979797" fill="none" fill-rule="evenodd"><path d="M19.75.25L.305 19.695M.25.25l19.445 19.445"/></g></svg></svg>