<?xml version="1.0" encoding="UTF-8" standalone="no"?>
<svg width="459px" height="302px" viewBox="0 0 459 302" version="1.1" xmlns="http://www.w3.org/2000/svg" xmlns:xlink="http://www.w3.org/1999/xlink">
    <!-- Generator: Sketch 39.1 (31720) - http://www.bohemiancoding.com/sketch -->
    <title>community-background</title>
    <desc>Created with Sketch.</desc>
    <defs>
        <linearGradient x1="29.0075231%" y1="26.8082575%" x2="125.209355%" y2="135.171772%" id="linearGradient-1">
            <stop stop-color="#FFFFFF" offset="0%"></stop>
            <stop stop-color="#FFFFFF" stop-opacity="0" offset="100%"></stop>
        </linearGradient>
    </defs>
    <g id="Page-1" stroke="none" stroke-width="1" fill="none" fill-rule="evenodd">
        <g id="community-background">
            <g id="DirectionalDevice_1_RGB" transform="translate(87.000000, 62.000000)" fill="#D6D6D6">
                <polyline id="Fill-1" points="332.429 197.9 338.761 221.806 339.046 221.806 345.8 197.9 332.429 197.9"></polyline>
                <path d="M357.66,186.908 C357.66,176.666 349.356,168.363 339.114,168.363 C328.873,168.363 320.569,176.666 320.569,186.908 C320.569,197.15 328.873,205.453 339.114,205.453 C349.356,205.453 357.66,197.15 357.66,186.908 M335.489,181.924 C335.489,184.568 333.346,186.711 330.703,186.711 C328.06,186.711 325.917,184.568 325.917,181.924 C325.917,179.281 328.06,177.138 330.703,177.138 C333.346,177.138 335.489,179.281 335.489,181.924" id="Fill-2"></path>
                <polyline id="Fill-3" points="290.358 196.193 314.838 199.705 314.949 199.443 295.582 183.884 290.358 196.193"></polyline>
                <path d="M301.063,188.467 C302.488,178.324 295.422,168.947 285.279,167.521 C275.138,166.095 265.759,173.162 264.333,183.304 C262.908,193.447 269.976,202.826 280.117,204.252 C290.261,205.675 299.638,198.609 301.063,188.467 M295.38,180.738 C295.013,183.355 292.593,185.179 289.974,184.81 C287.356,184.443 285.533,182.023 285.901,179.406 C286.269,176.789 288.688,174.965 291.308,175.334 C293.925,175.701 295.748,178.121 295.38,180.738" id="Fill-4"></path>
                <polyline id="Fill-5" points="237.254 162.689 261.972 161.898 262.036 161.619 240.263 149.66 237.254 162.689"></polyline>
                <path d="M246.454,153.22 C246.098,142.984 237.51,134.978 227.274,135.334 C217.038,135.693 209.03,144.279 209.387,154.515 C209.743,164.752 218.332,172.759 228.567,172.402 C238.804,172.045 246.812,163.457 246.454,153.22 M239.516,146.597 C239.608,149.238 237.542,151.455 234.899,151.547 C232.259,151.638 230.042,149.572 229.95,146.931 C229.858,144.289 231.924,142.074 234.565,141.98 C237.208,141.888 239.424,143.955 239.516,146.597" id="Fill-6"></path>
                <polyline id="Fill-7" points="226.513 220.482 249.469 211.285 249.435 211.002 224.884 207.211 226.513 220.482"></polyline>
                <path d="M231.921,208.439 C228.083,198.941 217.274,194.353 207.778,198.191 C198.282,202.027 193.694,212.838 197.53,222.334 C201.368,231.83 212.177,236.418 221.673,232.582 C231.17,228.744 235.758,217.935 231.921,208.439 M223.135,204.588 C224.124,207.039 222.94,209.826 220.489,210.818 C218.04,211.808 215.249,210.625 214.26,208.174 C213.27,205.722 214.454,202.933 216.905,201.943 C219.354,200.953 222.145,202.136 223.135,204.588" id="Fill-8"></path>
                <polyline id="Fill-9" points="135.538 206.101 158.495 196.904 158.46 196.621 133.909 192.83 135.538 206.101"></polyline>
                <path d="M140.946,194.058 C137.109,184.562 126.3,179.974 116.805,183.81 C107.308,187.648 102.72,198.457 106.557,207.953 C110.394,217.449 121.202,222.037 130.698,218.201 C140.195,214.363 144.784,203.554 140.946,194.058 M132.161,190.207 C133.15,192.658 131.966,195.447 129.516,196.437 C127.065,197.427 124.275,196.244 123.286,193.793 C122.296,191.342 123.479,188.552 125.931,187.562 C128.38,186.572 131.171,187.756 132.161,190.207" id="Fill-10"></path>
                <polyline id="Fill-11" points="104.046 136.476 128.388 140.84 128.509 140.582 109.696 124.357 104.046 136.476"></polyline>
                <path d="M115.014,129.129 C116.793,119.041 110.057,109.424 99.971,107.644 C89.884,105.867 80.265,112.601 78.487,122.687 C76.708,132.773 83.442,142.392 93.53,144.172 C103.616,145.949 113.235,139.215 115.014,129.129 M109.604,121.207 C109.146,123.808 106.663,125.547 104.06,125.088 C101.457,124.629 99.719,122.146 100.178,119.545 C100.637,116.939 103.118,115.203 105.722,115.662 C108.325,116.121 110.063,118.603 109.604,121.207" id="Fill-12"></path>
                <polyline id="Fill-13" points="289.787 144.816 304.265 164.867 304.532 164.763 302.269 140.025 289.787 144.816"></polyline>
                <path d="M302.78,147.15 C311.067,141.131 312.903,129.533 306.884,121.248 C300.864,112.961 289.266,111.125 280.979,117.144 C272.694,123.164 270.856,134.761 276.876,143.049 C282.896,151.334 294.495,153.172 302.78,147.15 M304.393,137.695 C302.254,139.248 299.261,138.773 297.708,136.634 C296.153,134.498 296.628,131.504 298.767,129.951 C300.905,128.396 303.897,128.871 305.45,131.009 C307.005,133.148 306.53,136.14 304.393,137.695" id="Fill-14"></path>
                <polyline id="Fill-15" points="215.146 112.236 234.589 127.519 234.817 127.347 225.823 104.189 215.146 112.236"></polyline>
                <path d="M228.278,110.898 C234.585,102.828 233.153,91.172 225.083,84.867 C217.012,78.562 205.356,79.992 199.051,88.064 C192.745,96.134 194.176,107.789 202.247,114.095 C210.317,120.4 221.973,118.97 228.278,110.898 M227.222,101.363 C225.594,103.447 222.587,103.816 220.504,102.189 C218.421,100.562 218.052,97.554 219.679,95.47 C221.306,93.388 224.313,93.019 226.397,94.646 C228.479,96.273 228.849,99.281 227.222,101.363" id="Fill-16"></path>
                <polyline id="Fill-17" points="161.888 70.142 186.563 68.49 186.618 68.209 164.439 57.017 161.888 70.142"></polyline>
                <path d="M170.753,60.359 C170.039,50.142 161.177,42.439 150.959,43.154 C140.742,43.867 133.038,52.73 133.753,62.947 C134.468,73.166 143.329,80.867 153.547,80.154 C163.765,79.439 171.468,70.576 170.753,60.359 M163.587,53.982 C163.771,56.617 161.783,58.904 159.147,59.09 C156.511,59.273 154.224,57.285 154.039,54.65 C153.854,52.013 155.843,49.726 158.479,49.541 C161.116,49.357 163.403,51.345 163.587,53.982" id="Fill-18"></path>
                <polyline id="Fill-19" points="84.468 57.097 100.962 75.523 101.218 75.394 96.382 51.027 84.468 57.097"></polyline>
                <path d="M97.635,58.06 C105.247,51.207 105.86,39.48 99.008,31.869 C92.153,24.258 80.428,23.644 72.817,30.496 C65.205,37.351 64.591,49.076 71.444,56.687 C78.297,64.299 90.024,64.914 97.635,58.06 M98.249,48.486 C96.284,50.256 93.259,50.097 91.489,48.133 C89.722,46.168 89.88,43.142 91.845,41.373 C93.81,39.605 96.835,39.763 98.604,41.728 C100.372,43.693 100.214,46.719 98.249,48.486" id="Fill-20"></path>
                <polyline id="Fill-21" points="27.581 71.547 52.312 71.619 52.386 71.343 31.042 58.633 27.581 71.547"></polyline>
                <path d="M37.106,62.408 C37.106,52.166 28.804,43.863 18.562,43.863 C8.319,43.863 0.017,52.166 0.017,62.408 C0.017,72.648 8.319,80.953 18.562,80.953 C28.804,80.953 37.106,72.648 37.106,62.408 M30.403,55.545 C30.403,58.187 28.261,60.33 25.618,60.33 C22.974,60.33 20.832,58.187 20.832,55.545 C20.832,52.9 22.974,50.76 25.618,50.76 C28.261,50.76 30.403,52.9 30.403,55.545" id="Fill-22"></path>
                <polyline id="Fill-23" points="196.134 31.066 208.81 52.302 209.084 52.222 208.987 27.383 196.134 31.066"></polyline>
                <path d="M208.875,34.525 C217.653,29.25 220.495,17.856 215.22,9.076 C209.944,0.297 198.551,-2.543 189.772,2.732 C180.993,8.006 178.151,19.401 183.427,28.179 C188.702,36.959 200.096,39.799 208.875,34.525 M211.305,25.244 C209.038,26.605 206.099,25.873 204.737,23.607 C203.376,21.34 204.108,18.401 206.375,17.039 C208.641,15.678 211.581,16.412 212.942,18.676 C214.303,20.943 213.569,23.883 211.305,25.244" id="Fill-24"></path>
                <polyline id="Fill-25" points="176.541 164.384 200.746 159.314 200.761 159.027 177.241 151.033 176.541 164.384"></polyline>
                <path d="M183.958,153.465 C181.828,143.445 171.981,137.05 161.962,139.179 C151.944,141.308 145.548,151.156 147.679,161.175 C149.808,171.193 159.655,177.59 169.674,175.459 C179.692,173.33 186.087,163.482 183.958,153.465 M175.974,148.144 C176.524,150.73 174.873,153.271 172.288,153.82 C169.702,154.371 167.161,152.72 166.612,150.134 C166.062,147.55 167.712,145.008 170.298,144.459 C172.883,143.908 175.425,145.56 175.974,148.144" id="Fill-26"></path>
                <polyline id="Fill-27" points="264.334 83.103 285.269 96.269 285.478 96.074 274.112 73.984 264.334 83.103"></polyline>
                <path d="M277.256,80.398 C282.684,71.713 280.042,60.271 271.356,54.844 C262.67,49.418 251.229,52.058 245.801,60.744 C240.374,69.429 243.015,80.871 251.7,86.299 C260.387,91.726 271.827,89.086 277.256,80.398 M275.208,71.027 C273.807,73.267 270.854,73.949 268.612,72.549 C266.37,71.148 265.69,68.195 267.09,65.955 C268.491,63.713 271.444,63.031 273.685,64.431 C275.927,65.834 276.608,68.785 275.208,71.027" id="Fill-28"></path>
            </g>
            <rect id="Rectangle" fill="url(#linearGradient-1)" x="0" y="0" width="459" height="302"></rect>
        </g>
    </g>
</svg>