<?xml version="1.0" encoding="UTF-8" standalone="no"?>
<svg width="1440px" height="944px" viewBox="0 0 1440 944" version="1.1" xmlns="http://www.w3.org/2000/svg" xmlns:xlink="http://www.w3.org/1999/xlink">
    <!-- Generator: Sketch 3.8.3 (29802) - http://www.bohemiancoding.com/sketch -->
    <title>modal-signup-background</title>
    <desc>Created with Sketch.</desc>
    <defs>
        <rect id="path-1" x="0" y="0" width="1440" height="944"></rect>
    </defs>
    <g id="Page-1" stroke="none" stroke-width="1" fill="none" fill-rule="evenodd">
        <g id="modal-signup-background">
            <mask id="mask-2" fill="white">
                <use xlink:href="#path-1"></use>
            </mask>
            <use id="Mask" fill="#CFD2C1" xlink:href="#path-1"></use>
            <path d="M237.385183,277.344036 C232.940867,284.80079 228.00342,292.080233 222.567096,299.141491 C147.911864,396.111403 7.43025927,415.217736 -91.1955248,341.809531 C-189.821309,268.401326 -209.253904,130.284722 -134.585669,33.3148098 C-59.9304361,-63.6551021 80.5381658,-82.7614347 179.170451,-9.35322987 C237.250982,33.8767177 267.864988,99.5475961 267.97319,166.040581 L457,274.576206 L455.979285,277.344036 L237.385183,277.344036 L237.385183,277.344036 Z M118.415148,167.615261 C92.962284,148.675126 87.9367249,113.032132 107.213287,88.0066071 C126.476847,62.9810828 162.728486,58.0526845 188.174849,76.9928195 C213.627713,95.9393468 218.640269,131.582341 199.383211,156.601474 C180.11315,181.626998 143.86151,186.561788 118.415148,167.615261" id="Fill-4" fill-opacity="0.05" fill="#4A4F4C" mask="url(#mask-2)"></path>
            <path d="M1249.61482,312.344036 C1254.05913,319.80079 1258.99658,327.080233 1264.4329,334.141491 C1339.08814,431.111403 1479.56974,450.217736 1578.19552,376.809531 C1676.82131,303.401326 1696.2539,165.284722 1621.58567,68.3148098 C1546.93044,-28.6551021 1406.46183,-47.7614347 1307.82955,25.6467701 C1249.74902,68.8767177 1219.13501,134.547596 1219.02681,201.040581 L1030,309.576206 L1031.02072,312.344036 L1249.61482,312.344036 L1249.61482,312.344036 Z M1368.58485,202.615261 C1394.03772,183.675126 1399.06328,148.032132 1379.78671,123.006607 C1360.52315,97.9810828 1324.27151,93.0526845 1298.82515,111.99282 C1273.37229,130.939347 1268.35973,166.582341 1287.61679,191.601474 C1306.88685,216.626998 1343.13849,221.561788 1368.58485,202.615261" id="Fill-4-Copy-2" fill-opacity="0.05" fill="#4A4F4C" mask="url(#mask-2)"></path>
            <path d="M1082.61482,961.344036 C1087.05913,968.80079 1091.99658,976.080233 1097.4329,983.141491 C1172.08814,1080.1114 1312.56974,1099.21774 1411.19552,1025.80953 C1509.82131,952.401326 1529.2539,814.284722 1454.58567,717.31481 C1379.93044,620.344898 1239.46183,601.238565 1140.82955,674.64677 C1082.74902,717.876718 1052.13501,783.547596 1052.02681,850.040581 L863,958.576206 L864.020715,961.344036 L1082.61482,961.344036 L1082.61482,961.344036 Z M1201.58485,851.615261 C1227.03772,832.675126 1232.06328,797.032132 1212.78671,772.006607 C1193.52315,746.981083 1157.27151,742.052684 1131.82515,760.99282 C1106.37229,779.939347 1101.35973,815.582341 1120.61679,840.601474 C1139.88685,865.626998 1176.13849,870.561788 1201.58485,851.615261" id="Fill-4-Copy" fill-opacity="0.05" fill="#4A4F4C" mask="url(#mask-2)"></path>
        </g>
    </g>
</svg>